<svg id="Layer_1" data-name="Layer 1" xmlns="http://www.w3.org/2000/svg" viewBox="0 0 95 65.51"><defs><style>.cls-1{fill:#7f372a;}.cls-2,.cls-3{fill:#e2614b;}.cls-3{font-size:7.5px;font-family:Big John;}</style></defs><title>christmas_icons</title><path class="cls-1" d="M16.5,25.73S22.42,16,39.92,10.84A133.33,133.33,0,0,1,59.5,8.16s12.6-.87,21-7L79.93,7.84l6.36,3.46s-5.55,5-18.18,7.74c0,0-17.72,1.57-22.59,3.62,0,0-16.09,4.46-25.5,14.94Z"/><path class="cls-2" d="M16.89,26c6.94-11.08,22-15,34.05-16.55C57.4,8.56,63.66,8.48,70,6.6,70.8,6.35,81,2,80,1.33c0.48,0.31-.45,5.7-0.51,6.52a0.44,0.44,0,0,0,.22.39l4.45,2.42a8.33,8.33,0,0,1,1.76,1c-0.07-.12.08-0.94-0.29-0.34C83.72,14.42,76,16.42,73,17.33c-8.14,2.47-16.86,2-25.09,4.13A67.58,67.58,0,0,0,28,30.26c-2,1.35-4.73,3-6.3,4.93-1.76,2.14-1.16,2.7-2-.14l-2.8-9.45a0.45,0.45,0,0,0-.87.24l3.52,11.86a0.45,0.45,0,0,0,.75.2C29.85,27.77,43.48,22.62,57,20.75c10.16-1.4,21.47-2,29.61-9.13a0.45,0.45,0,0,0-.09-0.71C85,10.11,81,8.72,80.35,7.61c-0.52-.83.45-5,0.55-6.44A0.45,0.45,0,0,0,80.22.78C68.13,9.13,53.66,6.92,40.09,10.34c-8.54,2.15-19.1,7.37-24,15.16A0.45,0.45,0,0,0,16.89,26Z"/><text class="cls-3" transform="translate(24.78 28.57) rotate(-32.98) scale(0.97 1)">W</text><text class="cls-3" transform="translate(32.39 23.81) rotate(-27.2) scale(0.97 1)">i</text><text class="cls-3" transform="matrix(0.9, -0.38, 0.39, 0.92, 34.55, 22.65)">l</text><text class="cls-3" transform="translate(38.56 21) rotate(-17.72) scale(0.97 1)">m</text><text class="cls-3" transform="translate(45.01 19.08) rotate(-11.32) scale(0.97 1)">i</text><text class="cls-3" transform="translate(47.39 18.53) rotate(-6.31) scale(0.97 1)">n</text><text class="cls-3" transform="translate(52.55 17.94) rotate(0.24) scale(0.97 1)">g</text><text class="cls-3" transform="translate(59.15 17.86) rotate(-9.08) scale(0.97 1)">t</text><text class="cls-3" transform="translate(64.4 17.06) rotate(-16.5) scale(0.97 1)">o</text><text class="cls-3" transform="matrix(0.87, -0.43, 0.45, 0.89, 70.99, 15.05)">n</text><path class="cls-2" d="M15.43,24.77L27.34,65a0.75,0.75,0,0,0,1.45-.4L16.88,24.37a0.75,0.75,0,0,0-1.45.4h0Z"/></svg>