<svg id="Layer_1" data-name="Layer 1" xmlns="http://www.w3.org/2000/svg" viewBox="0 0 45.25 56.5"><defs><style>.cls-1{fill:#7f372a;}.cls-2,.cls-3{fill:#e2614b;}.cls-3{stroke:#e2614b;stroke-miterlimit:10;}</style></defs><title>christmas_icons</title><path class="cls-1" d="M22.84,0.56C3.31,0.56,2.6,20.26,2.6,20.26,2.6,43.42,22.84,55.5,22.84,55.5S43.08,43.42,43.08,20.26C43.08,20.26,41.77.56,22.84,0.56Z"/><path class="cls-2" d="M22.84,0.11c-12.36.3-21.31,10-20.62,22.34C3,35.76,11.17,49,22.62,55.89a0.45,0.45,0,0,0,.45,0C34.28,49.1,42.48,36.2,43.43,23.16,44.33,10.78,35.31.42,22.84,0.11a0.45,0.45,0,0,0,0,.9c10.68,0.27,18.59,7.9,19.7,18.48,1.19,11.29-5.49,22.9-13.39,30.43-1.37,1.31-4.42,4.9-6.43,5.12,0.46,0,.06-0.19-0.56-0.52a22.56,22.56,0,0,1-3.87-3C9.45,43.88,2.48,32.22,3.06,20.18,3.59,9.11,11.84,1.27,22.84,1A0.45,0.45,0,0,0,22.84.11Z"/><circle class="cls-3" cx="22.7" cy="19.43" r="6.56"/></svg>