<svg id="Layer_1" data-name="Layer 1" xmlns="http://www.w3.org/2000/svg" viewBox="0 0 95 65.51"><defs><style>.cls-1{fill:#49756a;}.cls-2,.cls-3{fill:#5db59c;}.cls-3{font-size:7.5px;font-family:Big John;}</style></defs><title>christmas_icons</title><path class="cls-1" d="M21,30.91l-1.66-12.6S33.31,20,43.55,17.84c0,0,12.86-1,26.81-11.59l-2,8.42L77,18.31s-16.45,9.24-28.1,11.35C48.88,29.66,34.72,32.81,21,30.91Z"/><path class="cls-2" d="M21.49,30.91l-0.83-6.3A30.74,30.74,0,0,0,20.05,20c-0.3-1,.17-1.58-0.46-1.17,1.29-.85,7.13.52,8.7,0.56a78.67,78.67,0,0,0,14-.81,61,61,0,0,0,15.18-4.19,62.53,62.53,0,0,0,7.06-3.61,28.52,28.52,0,0,0,4.55-3c0.71-.65.56-2.19,0.69-0.81,0.2,2.22-1.26,5.37-1.78,7.58a0.46,0.46,0,0,0,.21.51l4.73,2a28.41,28.41,0,0,0,3,1.26c1.19,0.35.47,0,.67-0.27-0.65,1-3.73,2-4.77,2.5-2.92,1.47-5.88,2.85-8.89,4.11A82,82,0,0,1,21,30.46c-0.57-.07-0.57.83,0,0.9,20.07,2.45,38.75-2.93,56.17-12.66a0.45,0.45,0,0,0,0-.78c-2-.84-7.06-1.89-8.34-3.53-0.24-.31,1.49-6.2,1.92-8a0.46,0.46,0,0,0-.66-0.51c-15,11.06-32.45,14.13-50.75,12a0.45,0.45,0,0,0-.45.45l1.66,12.6C20.67,31.48,21.57,31.48,21.49,30.91Z"/><text class="cls-3" transform="translate(23.09 27.19) rotate(6.31) scale(0.97 1)">N</text><text class="cls-3" transform="matrix(0.97, 0.02, -0.02, 1, 29.02, 27.8)">e</text><text class="cls-3" transform="matrix(0.97, -0.08, 0.08, 1, 33.78, 28.01)">w</text><text class="cls-3" transform="translate(43.11 27.11) rotate(-9.96) scale(0.97 1)"> </text><text class="cls-3" transform="matrix(0.95, -0.23, 0.24, 0.97, 46.54, 26.53)">B</text><text class="cls-3" transform="matrix(0.93, -0.3, 0.3, 0.95, 51.79, 25.24)">e</text><text class="cls-3" transform="translate(56.22 23.83) rotate(-22.02) scale(0.97 1)">r</text><text class="cls-3" transform="matrix(0.87, -0.44, 0.45, 0.89, 61.59, 21.65)">n</text><path class="cls-2" d="M18.07,15.6l5.21,41.59c0.12,0.95,1.62,1,1.5,0L19.57,15.6c-0.12-.95-1.62-1-1.5,0h0Z"/></svg>