<svg id="Layer_1" data-name="Layer 1" xmlns="http://www.w3.org/2000/svg" viewBox="0 0 95 95"><defs><style>.cls-1{fill:#7f372a;}.cls-2,.cls-3{fill:#e2614b;}.cls-3{stroke:#e2614b;stroke-miterlimit:10;}</style></defs><title>christmas_icons</title><path class="cls-1" d="M48.08,24.39c-16.65,0-17.25,16.8-17.25,16.8,0,19.74,17.25,30,17.25,30s17.25-10.3,17.25-30C65.33,41.19,64.22,24.39,48.08,24.39Z"/><path class="cls-2" d="M48.08,23.94c-10.44.3-18,8.21-17.67,18.71,0.37,11.49,7.64,23,17.45,29a0.45,0.45,0,0,0,.45,0C58,65.75,65,54.63,65.7,43.37A18,18,0,0,0,48.08,23.94a0.45,0.45,0,0,0,0,.9A17,17,0,0,1,64.82,40.61c0.93,9.54-4.63,19.31-11.29,25.71-1.22,1.17-3.78,4.19-5.55,4.45,0.34,0,.1-0.16-0.57-0.51a18.61,18.61,0,0,1-3.3-2.58c-7.45-6.5-13.31-16.34-12.84-26.52,0.43-9.42,7.46-16,16.8-16.31A0.45,0.45,0,0,0,48.08,23.94Z"/><circle class="cls-3" cx="47.96" cy="40.48" r="5.59"/></svg>