<svg id="Layer_1" data-name="Layer 1" xmlns="http://www.w3.org/2000/svg" viewBox="0 0 95 95"><defs><style>.cls-1{fill:#fff;}.cls-2{fill:#e2614b;}.cls-3{fill:#7f372a;}</style></defs><title>christmas_icons</title><rect class="cls-1" x="20.07" y="21.22" width="54" height="54"/><path class="cls-2" d="M74.07,74.77H26.88c-1.53,0-5.26.73-6.66,0,0.18,0.09.44,0.66,0.29-.39a26.43,26.43,0,0,1,0-3.44V29.47c0-2.24-.65-5.6,0-7.76,0.29-1-.86.24-0.07,0a10.1,10.1,0,0,1,2.82,0h41c2.9,0,6.06-.37,8.94,0,0.93,0.12.6,0,.39-0.35a7.32,7.32,0,0,1,0,2.39V75.22a0.45,0.45,0,0,0,.9,0v-54a0.46,0.46,0,0,0-.45-0.45h-54a0.46,0.46,0,0,0-.45.45v54a0.46,0.46,0,0,0,.45.45h54A0.45,0.45,0,0,0,74.07,74.77Z"/><rect class="cls-3" x="20.07" y="21.22" width="54" height="13.74"/><path class="cls-2" d="M74.07,34.5H29.86c-2.15,0-7.69,1.06-9.63,0,0,0,.53.61,0.29-0.31a17.22,17.22,0,0,1,0-3.7c0-2.56-.65-6,0-8.51,0.17-.65-0.88-0.38.86-0.31s3.45,0,5.17,0h43.8c0.8,0,2.85-.39,3.57,0-0.43-.23-0.27-0.19-0.29.86,0,1.53,0,3.06,0,4.59V35a0.45,0.45,0,0,0,.9,0V21.22a0.46,0.46,0,0,0-.45-0.45h-54a0.46,0.46,0,0,0-.45.45V35a0.46,0.46,0,0,0,.45.45h54A0.45,0.45,0,0,0,74.07,34.5Z"/><path class="cls-2" d="M26.73,35V75.22a0.45,0.45,0,0,0,.9,0V35a0.45,0.45,0,0,0-.9,0h0Z"/><path class="cls-2" d="M34.83,35V75.22a0.45,0.45,0,0,0,.9,0V35a0.45,0.45,0,0,0-.9,0h0Z"/><path class="cls-2" d="M42.93,35V75.22a0.45,0.45,0,0,0,.9,0V35a0.45,0.45,0,0,0-.9,0h0Z"/><path class="cls-2" d="M51,35V75.22a0.45,0.45,0,0,0,.9,0V35a0.45,0.45,0,0,0-.9,0h0Z"/><path class="cls-2" d="M59.13,35V75.22a0.45,0.45,0,0,0,.9,0V35a0.45,0.45,0,0,0-.9,0h0Z"/><path class="cls-2" d="M67.23,35V75.22a0.45,0.45,0,0,0,.9,0V35a0.45,0.45,0,0,0-.9,0h0Z"/><path class="cls-2" d="M20.07,42.51h54a0.45,0.45,0,0,0,0-.9h-54a0.45,0.45,0,0,0,0,.9h0Z"/><path class="cls-2" d="M20.07,51.27h54a0.45,0.45,0,0,0,0-.9h-54a0.45,0.45,0,0,0,0,.9h0Z"/><path class="cls-2" d="M20.07,60h54a0.45,0.45,0,0,0,0-.9h-54a0.45,0.45,0,0,0,0,.9h0Z"/><path class="cls-2" d="M20.07,68.8h54a0.45,0.45,0,0,0,0-.9h-54a0.45,0.45,0,0,0,0,.9h0Z"/><circle class="cls-2" cx="23.48" cy="24.3" r="1.57"/><circle class="cls-2" cx="70.49" cy="24.3" r="1.57"/></svg>