<svg id="Layer_1" data-name="Layer 1" xmlns="http://www.w3.org/2000/svg" viewBox="0 0 95 95"><defs><style>.cls-1{fill:#49756a;}.cls-2,.cls-3{fill:#5db59c;}.cls-3{font-size:7.5px;font-family:Big John;}</style></defs><title>christmas_icons</title><path class="cls-1" d="M24.66,49.85L26,37.32S39.17,38.11,47.36,30c0,0,8.05-8.68,25-12.84l-2.57,5.22,7.54,3.13S69.23,27,64.46,31.66A74.19,74.19,0,0,1,46.13,43.81,121.84,121.84,0,0,1,24.66,49.85Z"/><path class="cls-2" d="M25.11,49.85l0.75-6.76c0.16-1.44.4-2.89,0.48-4.34,0.07-1.18.29-1.17,0-1,1.24-.77,4.81-0.21,6.39-0.46a30.18,30.18,0,0,0,10.47-3.57c4.15-2.43,7.34-6.22,11.46-8.79a59.73,59.73,0,0,1,13.66-6.2c0.29-.09,3.87-1,3.57-1.65a5.32,5.32,0,0,1-.78,1.59c-0.47,1.18-1.14,2.32-1.7,3.46a0.46,0.46,0,0,0,.27.66l5.05,2.1c0.58,0.24,2.37,1.35,2.37.58s-1.18-.07-1.77,0c-4.59.79-8.63,3.65-12,6.63C52,41.92,39,46.74,24.54,49.41c-0.57.11-.33,1,0.24,0.87,11.17-2.07,22-5.25,31.44-11.63,7.06-4.75,12.44-11,21.2-12.71,0.49-.09.36-0.72,0-0.87-1.85-.77-5.44-1.44-6.79-2.82-0.53-.54-0.45-0.16-0.39.17A4.2,4.2,0,0,1,71,20.84a36.16,36.16,0,0,0,1.7-3.46,0.46,0.46,0,0,0-.51-0.66C63.34,19,54.63,22.77,47.77,29A29.83,29.83,0,0,1,26,36.87a0.46,0.46,0,0,0-.45.45L24.21,49.85C24.14,50.42,25,50.42,25.11,49.85Z"/><text class="cls-3" transform="translate(28.42 45.87) rotate(-10.06) scale(0.97 1)">a</text><text class="cls-3" transform="translate(34.59 44.72) rotate(-16.19) scale(0.97 1)">s</text><text class="cls-3" transform="matrix(0.9, -0.36, 0.37, 0.93, 39.02, 43.45)">h</text><text class="cls-3" transform="matrix(0.87, -0.43, 0.45, 0.89, 44.54, 41.16)">e</text><text class="cls-3" transform="translate(48.7 39.11) rotate(-30.49) scale(0.97 1)">v</text><text class="cls-3" transform="matrix(0.8, -0.56, 0.57, 0.82, 53.96, 35.93)">i</text><text class="cls-3" transform="matrix(0.73, -0.64, 0.66, 0.75, 56.34, 34.33)">l</text><text class="cls-3" transform="matrix(0.81, -0.54, 0.55, 0.83, 59.48, 31.31)">l</text><text class="cls-3" transform="matrix(0.9, -0.37, 0.39, 0.92, 62.98, 28.96)">e</text><path class="cls-2" d="M24.59,34.93L21.15,76.7c-0.16,1.92,2.84,1.91,3,0l3.44-41.77c0.16-1.92-2.84-1.91-3,0h0Z"/></svg>