<svg id="Layer_1" data-name="Layer 1" xmlns="http://www.w3.org/2000/svg" viewBox="0 0 95 94.67"><defs><style>.cls-1{fill:#49756a;}.cls-2,.cls-3{fill:#5db59c;}.cls-3{font-size:7.5px;font-family:Big John;}</style></defs><title>christmas_icons</title><path class="cls-1" d="M21,47.49L19.39,34.9s13.93,1.67,24.16-.47c0,0,12.86-1,26.81-11.59l-2,8.42L77,34.9s-16.45,9.24-28.1,11.35C48.88,46.25,34.72,49.39,21,47.49Z"/><path class="cls-2" d="M21.49,47.49l-0.83-6.3a30.74,30.74,0,0,0-.61-4.66c-0.3-1,.17-1.58-0.46-1.17,1.29-.85,7.13.52,8.7,0.56a78.67,78.67,0,0,0,14-.81,61,61,0,0,0,15.18-4.19,62.53,62.53,0,0,0,7.06-3.61,28.52,28.52,0,0,0,4.55-3c0.71-.65.56-2.19,0.69-0.81,0.2,2.22-1.26,5.37-1.78,7.58a0.46,0.46,0,0,0,.21.51l4.73,2a28.41,28.41,0,0,0,3,1.26c1.19,0.35.47,0,.67-0.27-0.65,1-3.73,2-4.77,2.5-2.92,1.47-5.88,2.85-8.89,4.11A82,82,0,0,1,21,47c-0.57-.07-0.57.83,0,0.9C41.12,50.4,59.79,45,77.21,35.29a0.45,0.45,0,0,0,0-.78c-2-.84-7.06-1.89-8.34-3.53-0.24-.31,1.49-6.2,1.92-8a0.46,0.46,0,0,0-.66-0.51c-15,11.06-32.45,14.13-50.75,12a0.45,0.45,0,0,0-.45.45l1.66,12.6C20.67,48.06,21.57,48.07,21.49,47.49Z"/><text class="cls-3" transform="translate(23.09 43.77) rotate(6.31) scale(0.97 1)">N</text><text class="cls-3" transform="matrix(0.97, 0.02, -0.02, 1, 29.02, 44.38)">e</text><text class="cls-3" transform="matrix(0.97, -0.08, 0.08, 1, 33.78, 44.6)">w</text><text class="cls-3" transform="translate(43.11 43.69) rotate(-9.96) scale(0.97 1)"> </text><text class="cls-3" transform="matrix(0.95, -0.23, 0.24, 0.97, 46.54, 43.11)">B</text><text class="cls-3" transform="matrix(0.93, -0.3, 0.3, 0.95, 51.79, 41.82)">e</text><text class="cls-3" transform="translate(56.22 40.41) rotate(-22.02) scale(0.97 1)">r</text><text class="cls-3" transform="matrix(0.87, -0.44, 0.45, 0.89, 61.59, 38.23)">n</text><path class="cls-2" d="M17.32,32.19l5.21,41.59c0.24,1.89,3.24,1.91,3,0L20.32,32.19c-0.24-1.89-3.24-1.91-3,0h0Z"/></svg>