<svg id="Layer_1" data-name="Layer 1" xmlns="http://www.w3.org/2000/svg" xmlns:xlink="http://www.w3.org/1999/xlink" viewBox="0 0 95 94.18"><defs><style>.cls-1,.cls-2{fill:none;}.cls-2{stroke:#e2614b;stroke-linecap:round;stroke-miterlimit:10;}.cls-3{clip-path:url(#clip-path);}.cls-4{fill:#7f372a;}.cls-5{fill:#49756a;}.cls-6{fill:#fff;}.cls-7{fill:#28403a;}.cls-8{opacity:0.5;}.cls-9{fill:#e2614b;}</style><clipPath id="clip-path"><path class="cls-1" d="M51.85,22.57c-9-1.33-12,7.06-12,7.06L34.23,67.78l22,3.25,5.63-38.15a11.47,11.47,0,0,0-10-10.31"/></clipPath></defs><title>christmas_icons</title><path class="cls-2" d="M32.83,69.76L39,28.12S42.24,19,52.06,20.42L44.52,71.48"/><path class="cls-2" d="M56.84,73.3L63,31.67s-0.63-9.73-10.92-11.25"/><line class="cls-2" x1="37.79" y1="27.95" x2="64.48" y2="31.89"/><g class="cls-3"><rect class="cls-4" x="39.31" y="21.2" width="3.1" height="47.3" transform="translate(6.99 -5.49) rotate(8.4)"/><rect class="cls-4" x="44.05" y="19" width="3.1" height="50.19" transform="translate(6.93 -6.19) rotate(8.4)"/><rect class="cls-4" x="50.43" y="19.94" width="3.1" height="50.19" transform="translate(7.14 -7.11) rotate(8.4)"/><rect class="cls-4" x="54.91" y="21.49" width="3.1" height="49.3" transform="translate(7.35 -7.75) rotate(8.4)"/></g><path class="cls-5" d="M37.51,31.78a4.47,4.47,0,0,1-1.37,2,0.3,0.3,0,0,0,.3.52,4.85,4.85,0,0,0,1.64-2.41c0.15-.36-0.43-0.51-0.58-0.16h0Z"/><path class="cls-5" d="M39.38,38.35a9.44,9.44,0,0,0-.29,2.89c0,0.38.63,0.39,0.6,0A8.87,8.87,0,0,1,40,38.51a0.3,0.3,0,0,0-.58-0.16h0Z"/><path class="cls-5" d="M41.49,40.12c0.36,1.6-.85,1.79-1.83,1a7.64,7.64,0,0,1-1.77-3.14l-2.11-5.15c-0.14-.35-0.73-0.2-0.58.16l1.58,3.85a17.27,17.27,0,0,0,1.9,4.11c1.29,1.65,4,1.88,3.4-.94a0.3,0.3,0,0,0-.58.16h0Z"/><path class="cls-6" d="M44.76,27.65a6.15,6.15,0,0,0-4-1.69,10.66,10.66,0,0,1-1.31,2.36S37.08,30.11,37.3,31a21.74,21.74,0,0,0,.65,2.62,14.46,14.46,0,0,1,.26,2.08,3.85,3.85,0,0,0,1.47,2.72,13.8,13.8,0,0,0,3.18,2.15s1.26,0.28,1.09-2.19l-0.7-4.3a7.64,7.64,0,0,1,.2-2.75Z"/><path class="cls-5" d="M45,27.44a6.78,6.78,0,0,0-4.19-1.78,0.29,0.29,0,0,0-.26.15c-0.75,1.71-1.78,2.4-2.87,3.78s-0.35,2.44,0,4.13,0.12,2.88,1.15,4.22a9,9,0,0,0,3.56,2.77c2.07,0.59,1.94-1.83,1.73-3.29-0.28-2-.87-4-0.35-6,0.32-1.25.88-2.48,1.31-3.7,0.13-.36-0.45-0.52-0.58-0.16-0.76,2.14-1.74,4.2-1.53,6.52,0.08,0.92.3,1.85,0.45,2.76a7.48,7.48,0,0,1,.25,1.53c-0.21,3-1.3,1.73-2.54.8A5.87,5.87,0,0,1,38.46,35c-0.23-1.42-1.17-3.33-.65-4.67,0.4-1,1.84-1.68,2.46-2.64,0.76-1.19.23-1.8,2.09-1.18a5.78,5.78,0,0,1,2.2,1.32A0.3,0.3,0,0,0,45,27.44Z"/><path class="cls-7" d="M44.82,28.44c-0.07-.49-1.05-0.61-1.38-0.66s-0.27.26-.08,0.29,1.12,0.12,1.17.45,0.32,0.11.29-.08h0Z"/><path class="cls-7" d="M44.32,29.1a2.72,2.72,0,0,0-1.25-.56,0.15,0.15,0,0,0-.08.29,2.42,2.42,0,0,1,1.12.48,0.15,0.15,0,0,0,.21-0.21h0Z"/><path class="cls-7" d="M43.83,30a5.37,5.37,0,0,0-1.18-.57c-0.18-.07-0.26.22-0.08,0.29a5.05,5.05,0,0,1,1.11.54c0.16,0.11.31-.15,0.15-0.26h0Z"/><path class="cls-7" d="M43.67,31a1.86,1.86,0,0,0-1.44-.5,0.15,0.15,0,0,0,.08.29,1.66,1.66,0,0,1,1.21.47c0.15,0.12.3-.14,0.15-0.26h0Z"/><path class="cls-7" d="M43.4,31.75a2.05,2.05,0,0,0-1.51-.34c-0.18.07-.1,0.36,0.08,0.29a1.81,1.81,0,0,1,1.28.31,0.15,0.15,0,0,0,.15-0.26h0Z"/><path class="cls-7" d="M43.27,32.65a2.1,2.1,0,0,0-1.51-.34c-0.19,0-.11.33,0.08,0.29a1.81,1.81,0,0,1,1.28.31,0.15,0.15,0,0,0,.15-0.26h0Z"/><path class="cls-7" d="M43.16,33.46a2.26,2.26,0,0,0-1.58-.2c-0.18.08,0,.34,0.15,0.26a2.12,2.12,0,0,1,1.35.23c0.18,0.07.26-.22,0.08-0.29h0Z"/><path class="cls-7" d="M43.34,34.52a2.46,2.46,0,0,0-1.5-.21c-0.18.07-.1,0.36,0.08,0.29a2.25,2.25,0,0,1,1.34.21c0.18,0.06.26-.23,0.08-0.29h0Z"/><path class="cls-7" d="M44.72,28.34c0.92-.33.56-2.81-0.46-2.81s-0.63,2.84.42,2.82a0.15,0.15,0,0,0,0-.3,1.26,1.26,0,0,1-.66-1c-0.06-.26-0.14-1.48.46-1.09A1.47,1.47,0,0,1,44.92,27a1.2,1.2,0,0,1-.27,1C44.46,28.11,44.54,28.4,44.72,28.34Z"/><path class="cls-7" d="M41.11,31.39a0.53,0.53,0,0,0-.46-0.24,0.15,0.15,0,0,0-.13.07,0.61,0.61,0,0,0,.4,1,1.14,1.14,0,0,0,1.07-1c0.29-.81.11-1.66,0.68-2.38a1.55,1.55,0,0,1,.88-0.58,1.84,1.84,0,0,1,.84,0l0.56,0.86a2.11,2.11,0,0,1-.79,1.16c-0.45.58-.52,3,0.75,2.35,0.84-.42,0-1.54-0.45-0.62-0.08.18,0.18,0.33,0.26,0.15q-0.53.11-.54-0.31a2.52,2.52,0,0,1-.06-0.45,1.82,1.82,0,0,1,.55-1.19,2.87,2.87,0,0,0,.52-0.82,1,1,0,0,0-.81-1.45,1.93,1.93,0,0,0-2,.81,3.11,3.11,0,0,0-.43,1.05c-0.06.25-.29,2.55-1,1.82a0.15,0.15,0,0,0,.21-0.21h0Z"/><path class="cls-7" d="M46.83,27.63c0.31-.56,0-1.21-0.67-1.06a2.2,2.2,0,0,0-1.47,1.26c-0.09.2-.28,0.77,0.15,0.68a1.77,1.77,0,0,0,.37-0.23,2.84,2.84,0,0,1,.85-0.3,1.14,1.14,0,0,0,.75-0.31c0.12-.15-0.09-0.36-0.21-0.21a2.24,2.24,0,0,1-1,.34A2.92,2.92,0,0,0,45,28a0.82,0.82,0,0,0-.19.12s0,0.11.06,0a5.76,5.76,0,0,1,.48-0.82A1.83,1.83,0,0,1,45.86,27a0.86,0.86,0,0,1,.32-0.12q0.18-.08.27,0.2,0.34,0.15.13,0.41A0.15,0.15,0,0,0,46.83,27.63Z"/><path class="cls-5" d="M50.67,35.6a4.84,4.84,0,0,0,.89,2.78A0.3,0.3,0,0,0,52,38a4.25,4.25,0,0,1-.71-2.36c0-.38-0.64-0.38-0.6,0h0Z"/><path class="cls-5" d="M47,41.35A8.86,8.86,0,0,1,46.45,44c-0.14.36,0.44,0.52,0.58,0.16a9.4,9.4,0,0,0,.55-2.85c0-.39-0.58-0.38-0.6,0h0Z"/><path class="cls-5" d="M44.54,42.13c-0.44.77-.65,2,0.34,2.49s2.45-.39,3.18-1.06a55.3,55.3,0,0,0,5-6.12c0.24-.3-0.18-0.72-0.42-0.42l-3.43,4.23a13.9,13.9,0,0,1-1.79,2.06c-0.92.76-3.71,1.47-2.4-.87a0.3,0.3,0,0,0-.52-0.3h0Z"/><path class="cls-6" d="M45.52,29.55a6.15,6.15,0,0,1,4.3-.47,10.66,10.66,0,0,0,.57,2.64s1.77,2.4,1.3,3.21a21.74,21.74,0,0,1-1.38,2.32,14.46,14.46,0,0,0-.85,1.92,3.85,3.85,0,0,1-2.19,2.18,13.8,13.8,0,0,1-3.67,1.14s-1.28-.09-0.41-2.42l1.91-3.91a7.64,7.64,0,0,0,.6-2.69Z"/><path class="cls-5" d="M45.67,29.81a5.27,5.27,0,0,1,3.17-.62c1,0.24.66,0.3,0.9,1.39A12.21,12.21,0,0,0,51,33.18c0.93,2.07-.71,3.42-1.52,5.23a5.68,5.68,0,0,1-3.7,3.23c-0.81.29-1.75,0.78-2.32,0.16s0.15-1.75.47-2.47c0.46-1,1.05-2,1.48-3,0.91-2.19.56-4.45,0.45-6.76a0.3,0.3,0,0,0-.6,0,26.36,26.36,0,0,1,.09,4.65,15.32,15.32,0,0,1-1.84,4.63c-0.66,1.34-1.71,3.94.61,3.92a8.9,8.9,0,0,0,4.11-1.59c1.42-1,1.59-2.32,2.38-3.76s1.77-2.19,1.28-3.74c-0.55-1.71-1.51-2.67-1.73-4.58a0.31,0.31,0,0,0-.22-0.29,6.79,6.79,0,0,0-4.53.5A0.3,0.3,0,0,0,45.67,29.81Z"/><path class="cls-7" d="M45.5,30.45a1.64,1.64,0,0,1,1.21-.1c0.19,0,.27-0.26.08-0.29-0.35,0-1.33-.23-1.55.23-0.08.17,0.18,0.33,0.26,0.15h0Z"/><path class="cls-7" d="M45.68,31.34a2.44,2.44,0,0,1,1.21-.13,0.15,0.15,0,0,0,0-.3,2.71,2.71,0,0,0-1.36.17,0.15,0.15,0,0,0,.15.26h0Z"/><path class="cls-7" d="M45.82,32.35A5,5,0,0,1,47,32.16c0.19,0,.19-0.31,0-0.3a5.38,5.38,0,0,0-1.3.2,0.15,0.15,0,0,0,.08.29h0Z"/><path class="cls-7" d="M45.66,33.39a1.64,1.64,0,0,1,1.29-.1A0.15,0.15,0,0,0,47.11,33a1.87,1.87,0,0,0-1.52.07c-0.18.07-.1,0.36,0.08,0.29h0Z"/><path class="cls-7" d="M45.72,34.17a1.8,1.8,0,0,1,1.32.08c0.15,0.12.3-.14,0.15-0.26a2.05,2.05,0,0,0-1.55-.11c-0.19,0-.11.33,0.08,0.29h0Z"/><path class="cls-7" d="M45.58,35.06a1.8,1.8,0,0,1,1.32.08,0.15,0.15,0,0,0,.15-0.26,2.1,2.1,0,0,0-1.55-.11,0.15,0.15,0,0,0,.08.29h0Z"/><path class="cls-7" d="M45.37,35.88a2.09,2.09,0,0,1,1.36.17c0.15,0.12.36-.09,0.21-0.21a2.26,2.26,0,0,0-1.57-.26c-0.19,0-.19.31,0,0.3h0Z"/><path class="cls-7" d="M44.89,36.84A2.29,2.29,0,0,1,46.2,37c0.15,0.12.36-.09,0.21-0.21a2.44,2.44,0,0,0-1.52-.25,0.15,0.15,0,0,0,0,.3h0Z"/><path class="cls-7" d="M45.52,30a1.12,1.12,0,0,1,0-1,1.53,1.53,0,0,1,.7-1c0.7-.23.34,0.84,0.18,1.13a1.27,1.27,0,0,1-.93.78c-0.18-.06-0.26.23-0.08,0.29,1,0.35,2.21-2.41,1.16-2.59s-2,2-1.2,2.58C45.52,30.34,45.67,30.08,45.52,30Z"/><path class="cls-7" d="M48.09,34.45c-0.92.51-.5-1.52-0.46-1.85a3.45,3.45,0,0,0,0-1A2,2,0,0,0,46,29.94a1,1,0,0,0-1.31.83,2,2,0,0,0,.15,1,1.93,1.93,0,0,1,.37,1,1.73,1.73,0,0,1-.19.72,0.48,0.48,0,0,1-.7.26c0,0.19.32,0.19,0.3,0-0.13-1.05-1.29-.2-0.61.43,0.47,0.43.93,0.07,1.18-.38a2,2,0,0,0,.16-1.76,2.28,2.28,0,0,1-.38-1.25c0.2-1.23,1.81-.53,2.19.2,0.49,0.93,0,1.83,0,2.78A1.16,1.16,0,0,0,47.79,35a0.62,0.62,0,0,0,.76-0.8,0.15,0.15,0,0,0-.1-0.1,0.51,0.51,0,0,0-.51.1,0.15,0.15,0,0,0,.15.26h0Z"/><path class="cls-7" d="M43.84,28.86V28.57l0.51-.2a0.84,0.84,0,0,1,.28.2,1.79,1.79,0,0,1,.41.54,2.21,2.21,0,0,1,.2.57,3.57,3.57,0,0,0,0,.44s0.15,0.06.1,0a0.79,0.79,0,0,0-.12-0.15,3,3,0,0,0-.45-0.42,2.59,2.59,0,0,1-1-.67c-0.08-.18-0.33,0-0.26.15a1.15,1.15,0,0,0,.63.51,2.87,2.87,0,0,1,.67.48,2.73,2.73,0,0,0,.33.38c0.38,0.24.38-.37,0.35-0.6a2.2,2.2,0,0,0-1-1.64c-0.63-.34-1.08.2-0.95,0.83C43.59,29.13,43.88,29,43.84,28.86Z"/><path class="cls-7" d="M47,19.93a12.8,12.8,0,0,1-1.19,5.87,18.45,18.45,0,0,0-1.35,2.35,0.15,0.15,0,0,0,.22.17,5.17,5.17,0,0,0,1.1-1.46,15.54,15.54,0,0,0,1.83-3.66,3.4,3.4,0,0,0-.33-3.35c-0.11-.15-0.37,0-0.26.15a3.13,3.13,0,0,1,.3,3.12A14.21,14.21,0,0,1,46,26c-0.23.38-.46,0.76-0.71,1.13,0,0-.84,1.1-0.45,1a4.37,4.37,0,0,0,.82-1.32,13.74,13.74,0,0,0,.88-1.87,13.21,13.21,0,0,0,.79-5A0.15,0.15,0,0,0,47,19.93Z"/><path class="cls-7" d="M47,19.69a0.88,0.88,0,0,0-.65,1.06c0.21,0.48,1.35,1.16,1.83.67a1.16,1.16,0,0,0,.1-1.06A0.9,0.9,0,0,0,47,19.68c-0.18.06-.1,0.35,0.08,0.29a0.61,0.61,0,0,1,.88.47,1.22,1.22,0,0,1,0,.59c-0.16.59-1.29,0-1.41-.39A0.64,0.64,0,0,1,47.16,20C47.33,19.87,47.18,19.62,47,19.69Z"/><g class="cls-8"><path class="cls-9" d="M36.42,65.45a0.15,0.15,0,0,0,0-.3,0.15,0.15,0,0,0,0,.3h0Z"/><path class="cls-9" d="M38.45,66.85a0.15,0.15,0,0,0,0-.3,0.15,0.15,0,0,0,0,.3h0Z"/><path class="cls-9" d="M37.77,62.46a0.15,0.15,0,0,0,0-.3,0.15,0.15,0,0,0,0,.3h0Z"/><path class="cls-9" d="M42.95,61.62a0.15,0.15,0,0,0,0-.3,0.15,0.15,0,0,0,0,.3h0Z"/><path class="cls-9" d="M44.24,58a0.15,0.15,0,0,0,0-.3,0.15,0.15,0,0,0,0,.3h0Z"/><path class="cls-9" d="M49.7,56.16a0.15,0.15,0,0,0,0-.3,0.15,0.15,0,0,0,0,.3h0Z"/><path class="cls-9" d="M55.11,51.94a0.15,0.15,0,0,0,0-.3,0.15,0.15,0,0,0,0,.3h0Z"/><path class="cls-9" d="M56.35,50.3a0.15,0.15,0,0,0,0-.3,0.15,0.15,0,0,0,0,.3h0Z"/><path class="cls-9" d="M49.87,53.18a0.15,0.15,0,0,0,0-.3,0.15,0.15,0,0,0,0,.3h0Z"/><path class="cls-9" d="M49.31,62a0.15,0.15,0,0,0,0-.3,0.15,0.15,0,0,0,0,.3h0Z"/><path class="cls-9" d="M54.77,59.87a0.15,0.15,0,0,0,0-.3,0.15,0.15,0,0,0,0,.3h0Z"/><path class="cls-9" d="M54.43,64a0.15,0.15,0,0,0,0-.3,0.15,0.15,0,0,0,0,.3h0Z"/><path class="cls-9" d="M48.63,67a0.15,0.15,0,0,0,0-.3,0.15,0.15,0,0,0,0,.3h0Z"/><path class="cls-9" d="M48.47,69.27a0.15,0.15,0,0,0,0-.3,0.15,0.15,0,0,0,0,.3h0Z"/><path class="cls-9" d="M53.25,70.34a0.15,0.15,0,0,0,0-.3,0.15,0.15,0,0,0,0,.3h0Z"/><path class="cls-9" d="M52.74,67.19a0.15,0.15,0,0,0,0-.3,0.15,0.15,0,0,0,0,.3h0Z"/><path class="cls-9" d="M54.66,67.59a0.15,0.15,0,0,0,0-.3,0.15,0.15,0,0,0,0,.3h0Z"/><path class="cls-9" d="M53.59,68.66a0.15,0.15,0,0,0,0-.3,0.15,0.15,0,0,0,0,.3h0Z"/><path class="cls-9" d="M42.44,67.7a0.15,0.15,0,0,0,0-.3,0.15,0.15,0,0,0,0,.3h0Z"/><path class="cls-9" d="M41.2,67a0.15,0.15,0,0,0,0-.3,0.15,0.15,0,0,0,0,.3h0Z"/><path class="cls-9" d="M42.78,65.73a0.15,0.15,0,0,0,0-.3,0.15,0.15,0,0,0,0,.3h0Z"/><path class="cls-9" d="M43.12,64.49a0.15,0.15,0,0,0,0-.3,0.15,0.15,0,0,0,0,.3h0Z"/><path class="cls-9" d="M39,63.7a0.15,0.15,0,0,0,0-.3,0.15,0.15,0,0,0,0,.3h0Z"/><path class="cls-9" d="M48.92,64.15a0.15,0.15,0,0,0,0-.3,0.15,0.15,0,0,0,0,.3h0Z"/><path class="cls-9" d="M50.15,64.66a0.15,0.15,0,0,0,0-.3,0.15,0.15,0,0,0,0,.3h0Z"/><path class="cls-9" d="M54.26,58.8a0.15,0.15,0,0,0,0-.3,0.15,0.15,0,0,0,0,.3h0Z"/><path class="cls-9" d="M52.8,61.68a0.15,0.15,0,0,0,0-.3,0.15,0.15,0,0,0,0,.3h0Z"/><path class="cls-9" d="M55.84,56.55a0.15,0.15,0,0,0,0-.3,0.15,0.15,0,0,0,0,.3h0Z"/><path class="cls-9" d="M50.89,57.06a0.15,0.15,0,0,0,0-.3,0.15,0.15,0,0,0,0,.3h0Z"/><path class="cls-9" d="M56.12,53.74a0.15,0.15,0,0,0,0-.3,0.15,0.15,0,0,0,0,.3h0Z"/><path class="cls-9" d="M44.07,55.15a0.15,0.15,0,0,0,0-.3,0.15,0.15,0,0,0,0,.3h0Z"/><path class="cls-9" d="M44.3,53.18a0.15,0.15,0,0,0,0-.3,0.15,0.15,0,0,0,0,.3h0Z"/><path class="cls-9" d="M38.56,60.38a0.15,0.15,0,0,0,0-.3,0.15,0.15,0,0,0,0,.3h0Z"/><path class="cls-9" d="M50.15,49.91a0.15,0.15,0,0,0,0-.3,0.15,0.15,0,0,0,0,.3h0Z"/><path class="cls-9" d="M51.9,47.26a0.15,0.15,0,0,0,0-.3,0.15,0.15,0,0,0,0,.3h0Z"/><path class="cls-9" d="M52.46,69.39a0.15,0.15,0,0,0,0-.3,0.15,0.15,0,0,0,0,.3h0Z"/><path class="cls-9" d="M54.88,66a0.15,0.15,0,0,0,0-.3,0.15,0.15,0,0,0,0,.3h0Z"/><path class="cls-9" d="M54.54,61.73a0.15,0.15,0,0,0,0-.3,0.15,0.15,0,0,0,0,.3h0Z"/><path class="cls-9" d="M53.36,64.1a0.15,0.15,0,0,0,0-.3,0.15,0.15,0,0,0,0,.3h0Z"/><path class="cls-9" d="M49.87,67.87a0.15,0.15,0,0,0,0-.3,0.15,0.15,0,0,0,0,.3h0Z"/><path class="cls-9" d="M47.45,68.15a0.15,0.15,0,0,0,0-.3,0.15,0.15,0,0,0,0,.3h0Z"/><path class="cls-9" d="M50.44,60.61a0.15,0.15,0,0,0,0-.3,0.15,0.15,0,0,0,0,.3h0Z"/><path class="cls-9" d="M40.3,55.54a0.15,0.15,0,0,0,0-.3,0.15,0.15,0,0,0,0,.3h0Z"/></g><g class="cls-8"><path class="cls-9" d="M36.42,66.95a0.3,0.3,0,0,0,0-.6,0.3,0.3,0,0,0,0,.6h0Z"/><path class="cls-9" d="M38.45,65.65a0.3,0.3,0,0,0,0-.6,0.3,0.3,0,0,0,0,.6h0Z"/><path class="cls-9" d="M37.77,61.26a0.3,0.3,0,0,0,0-.6,0.3,0.3,0,0,0,0,.6h0Z"/><path class="cls-9" d="M42.95,60.42a0.3,0.3,0,0,0,0-.6,0.3,0.3,0,0,0,0,.6h0Z"/><path class="cls-9" d="M44.24,56.76a0.3,0.3,0,0,0,0-.6,0.3,0.3,0,0,0,0,.6h0Z"/><path class="cls-9" d="M49.7,55a0.3,0.3,0,0,0,0-.6,0.3,0.3,0,0,0,0,.6h0Z"/><path class="cls-9" d="M55.11,50.74a0.3,0.3,0,0,0,0-.6,0.3,0.3,0,0,0,0,.6h0Z"/><path class="cls-9" d="M56.35,49.1a0.3,0.3,0,0,0,0-.6,0.3,0.3,0,0,0,0,.6h0Z"/><path class="cls-9" d="M51.22,52a0.3,0.3,0,0,0,0-.6,0.3,0.3,0,0,0,0,.6h0Z"/><path class="cls-9" d="M49.31,60.76a0.3,0.3,0,0,0,0-.6,0.3,0.3,0,0,0,0,.6h0Z"/><path class="cls-9" d="M54.77,58.67a0.3,0.3,0,0,0,0-.6,0.3,0.3,0,0,0,0,.6h0Z"/><path class="cls-9" d="M54.43,62.78a0.3,0.3,0,0,0,0-.6,0.3,0.3,0,0,0,0,.6h0Z"/><path class="cls-9" d="M48.63,65.77a0.3,0.3,0,0,0,0-.6,0.3,0.3,0,0,0,0,.6h0Z"/><path class="cls-9" d="M48.47,68.07a0.3,0.3,0,0,0,0-.6,0.3,0.3,0,0,0,0,.6h0Z"/><path class="cls-9" d="M49.2,58.34a0.3,0.3,0,0,0,0-.6,0.3,0.3,0,0,0,0,.6h0Z"/><path class="cls-9" d="M52.74,66a0.3,0.3,0,0,0,0-.6,0.3,0.3,0,0,0,0,.6h0Z"/><path class="cls-9" d="M54.66,66.39a0.3,0.3,0,0,0,0-.6,0.3,0.3,0,0,0,0,.6h0Z"/><path class="cls-9" d="M53.59,67.45a0.3,0.3,0,0,0,0-.6,0.3,0.3,0,0,0,0,.6h0Z"/><path class="cls-9" d="M42.44,66.5a0.3,0.3,0,0,0,0-.6,0.3,0.3,0,0,0,0,.6h0Z"/><path class="cls-9" d="M41.2,65.82a0.3,0.3,0,0,0,0-.6,0.3,0.3,0,0,0,0,.6h0Z"/><path class="cls-9" d="M42.78,68.58a0.3,0.3,0,0,0,0-.6,0.3,0.3,0,0,0,0,.6h0Z"/><path class="cls-9" d="M41.77,63.29a0.3,0.3,0,0,0,0-.6,0.3,0.3,0,0,0,0,.6h0Z"/><path class="cls-9" d="M39,62.5a0.3,0.3,0,0,0,0-.6,0.3,0.3,0,0,0,0,.6h0Z"/><path class="cls-9" d="M48.92,63a0.3,0.3,0,0,0,0-.6,0.3,0.3,0,0,0,0,.6h0Z"/><path class="cls-9" d="M50.15,63.46a0.3,0.3,0,0,0,0-.6,0.3,0.3,0,0,0,0,.6h0Z"/><path class="cls-9" d="M54.26,57.6a0.3,0.3,0,0,0,0-.6,0.3,0.3,0,0,0,0,.6h0Z"/><path class="cls-9" d="M54.15,55.07a0.3,0.3,0,0,0,0-.6,0.3,0.3,0,0,0,0,.6h0Z"/><path class="cls-9" d="M55.84,55.35a0.3,0.3,0,0,0,0-.6,0.3,0.3,0,0,0,0,.6h0Z"/><path class="cls-9" d="M50.89,55.86a0.3,0.3,0,0,0,0-.6,0.3,0.3,0,0,0,0,.6h0Z"/><path class="cls-9" d="M56.12,52.54a0.3,0.3,0,0,0,0-.6,0.3,0.3,0,0,0,0,.6h0Z"/><path class="cls-9" d="M44.07,53.94a0.3,0.3,0,0,0,0-.6,0.3,0.3,0,0,0,0,.6h0Z"/><path class="cls-9" d="M56.46,47.92a0.3,0.3,0,0,0,0-.6,0.3,0.3,0,0,0,0,.6h0Z"/><path class="cls-9" d="M38.56,57.83a0.3,0.3,0,0,0,0-.6,0.3,0.3,0,0,0,0,.6h0Z"/><path class="cls-9" d="M51.5,50.06a0.3,0.3,0,0,0,0-.6,0.3,0.3,0,0,0,0,.6h0Z"/><path class="cls-9" d="M51.9,46.06a0.3,0.3,0,0,0,0-.6,0.3,0.3,0,0,0,0,.6h0Z"/><path class="cls-9" d="M52.46,68.19a0.3,0.3,0,0,0,0-.6,0.3,0.3,0,0,0,0,.6h0Z"/><path class="cls-9" d="M54.88,64.81a0.3,0.3,0,0,0,0-.6,0.3,0.3,0,0,0,0,.6h0Z"/><path class="cls-9" d="M54.54,60.53a0.3,0.3,0,0,0,0-.6,0.3,0.3,0,0,0,0,.6h0Z"/><path class="cls-9" d="M53.36,62.9a0.3,0.3,0,0,0,0-.6,0.3,0.3,0,0,0,0,.6h0Z"/><path class="cls-9" d="M49.87,66.67a0.3,0.3,0,0,0,0-.6,0.3,0.3,0,0,0,0,.6h0Z"/><path class="cls-9" d="M47.45,66.95a0.3,0.3,0,0,0,0-.6,0.3,0.3,0,0,0,0,.6h0Z"/><path class="cls-9" d="M50.44,59.4a0.3,0.3,0,0,0,0-.6,0.3,0.3,0,0,0,0,.6h0Z"/><path class="cls-9" d="M39,59.74a0.3,0.3,0,0,0,0-.6,0.3,0.3,0,0,0,0,.6h0Z"/></g></svg>