<svg id="Layer_1" data-name="Layer 1" xmlns="http://www.w3.org/2000/svg" viewBox="0 0 95 94.18"><defs><style>.cls-1{fill:#28403a;}.cls-2{fill:#49756a;}.cls-3{opacity:0.3;}.cls-4{fill:#5db59c;}</style></defs><title>christmas_icons</title><polygon class="cls-1" points="68.72 57 71.51 57 66.53 47 68.37 47 64.14 40 66.28 40 59.11 28.3 51.95 40 54.09 40 49.86 47 51.7 47 46.72 57 49.51 57 45.08 64 54.78 64 59.11 64 63.44 64 73.15 64 68.72 57"/><path class="cls-2" d="M68.72,57.29h2.79a0.45,0.45,0,0,0,.39-0.68l-3-5.55a15.22,15.22,0,0,1-1.57-2.94c-0.26-1.05-.7-0.19,1-0.19a0.45,0.45,0,0,0,.39-0.68l-2.83-5A12.21,12.21,0,0,1,64.6,39.9c-0.55,1,1.13.55,1.68,0.55a0.45,0.45,0,0,0,.39-0.68L59.5,28.08a0.46,0.46,0,0,0-.78,0l-7.17,11.7a0.45,0.45,0,0,0,.39.68c0.55,0,2.23.43,1.68-.55a12.21,12.21,0,0,1-1.32,2.34l-2.83,5a0.45,0.45,0,0,0,.39.68c1.4,0,1.23-.78,1.12,0-0.15,1-1.24,2.33-1.69,3.17l-3,5.55a0.45,0.45,0,0,0,.39.68c0.49,0,2.76.05,2.42-.28s-1,1.22-1.31,1.79l-3.14,5.3a0.45,0.45,0,0,0,.39.68H73.15a0.45,0.45,0,0,0,.39-0.68l-4.43-7.49a0.45,0.45,0,0,0-.78.45L71.24,62c0.19,0.32,1.52,2,1.45,2.46,0.16-1-.43-0.49-1.66-0.57-3.93-.26-8,0-11.93,0H47.59c-0.52,0-2.54-.25-2.23.28s1.13-1.34,1.39-1.79l3.14-5.3a0.45,0.45,0,0,0-.39-0.68c-0.78,0-2.73-.42-2.34.57-0.13-.33,1.37-2.57,1.52-2.86l3.4-6.4A0.45,0.45,0,0,0,51.7,47H50.33q-0.16,1,.18.2c0-.62,1.05-1.86,1.36-2.41l2.6-4.59a0.45,0.45,0,0,0-.39-0.68,5.2,5.2,0,0,1-1.81,0c0.26,0.15,0,1.06.45,0a30.75,30.75,0,0,1,2.42-4c0.55-.89,4.14-7,4-7s3.39,6.09,4,7a25.4,25.4,0,0,1,2.42,4c0.18,0.5.2,0.51,0.4,0.27,0.43-.5-1.48-0.3-1.75-0.3a0.45,0.45,0,0,0-.39.68l2.6,4.59c0.31,0.55,1.37,1.79,1.36,2.41q0.34,0.79.18-.2H66.53a0.45,0.45,0,0,0-.39.68l3.4,6.4C69.86,54.7,71,56.18,71,56.81c0.06-.66-0.94-0.42-2.26-0.42A0.45,0.45,0,0,0,68.72,57.29Z"/><g class="cls-3"><path class="cls-4" d="M57.14,43.8a0.15,0.15,0,0,0,0-.3,0.15,0.15,0,0,0,0,.3h0Z"/><path class="cls-4" d="M58.12,40.56a0.15,0.15,0,0,0,0-.3,0.15,0.15,0,0,0,0,.3h0Z"/><path class="cls-4" d="M59.27,35.24a0.15,0.15,0,0,0,0-.3,0.15,0.15,0,0,0,0,.3h0Z"/><path class="cls-4" d="M66,46.16a0.15,0.15,0,0,0,0-.3,0.15,0.15,0,0,0,0,.3h0Z"/><path class="cls-4" d="M61.68,52.07a0.15,0.15,0,0,0,0-.3,0.15,0.15,0,0,0,0,.3h0Z"/><path class="cls-4" d="M61.68,41.15a0.15,0.15,0,0,0,0-.3,0.15,0.15,0,0,0,0,.3h0Z"/><path class="cls-4" d="M62.83,37.9a0.15,0.15,0,0,0,0-.3,0.15,0.15,0,0,0,0,.3h0Z"/><path class="cls-4" d="M64.52,54.72a0.15,0.15,0,0,0,0-.3,0.15,0.15,0,0,0,0,.3h0Z"/><path class="cls-4" d="M68.35,55a0.15,0.15,0,0,0,0-.3,0.15,0.15,0,0,0,0,.3h0Z"/><path class="cls-4" d="M66.66,63.58a0.15,0.15,0,0,0,0-.3,0.15,0.15,0,0,0,0,.3h0Z"/><path class="cls-4" d="M66.48,55.32a0.15,0.15,0,0,0,0-.3,0.15,0.15,0,0,0,0,.3h0Z"/><path class="cls-4" d="M59.18,62.1a0.15,0.15,0,0,0,0-.3,0.15,0.15,0,0,0,0,.3h0Z"/><path class="cls-4" d="M58.65,54.13a0.15,0.15,0,0,0,0-.3,0.15,0.15,0,0,0,0,.3h0Z"/><path class="cls-4" d="M55.71,52.66a0.15,0.15,0,0,0,0-.3,0.15,0.15,0,0,0,0,.3h0Z"/><path class="cls-4" d="M53.4,39.08a0.15,0.15,0,0,0,0-.3,0.15,0.15,0,0,0,0,.3h0Z"/><path class="cls-4" d="M52.33,51.18a0.15,0.15,0,0,0,0-.3,0.15,0.15,0,0,0,0,.3h0Z"/><path class="cls-4" d="M60.87,49.12a0.15,0.15,0,0,0,0-.3,0.15,0.15,0,0,0,0,.3h0Z"/><path class="cls-4" d="M60.07,45.57a0.15,0.15,0,0,0,0-.3,0.15,0.15,0,0,0,0,.3h0Z"/><path class="cls-4" d="M60.52,33.18a0.15,0.15,0,0,0,0-.3,0.15,0.15,0,0,0,0,.3h0Z"/><path class="cls-4" d="M58.65,28.45a0.15,0.15,0,0,0,0-.3,0.15,0.15,0,0,0,0,.3h0Z"/><path class="cls-4" d="M63.9,46.16a0.15,0.15,0,0,0,0-.3,0.15,0.15,0,0,0,0,.3h0Z"/><path class="cls-4" d="M63.9,44.1a0.15,0.15,0,0,0,0-.3,0.15,0.15,0,0,0,0,.3h0Z"/><path class="cls-4" d="M62.74,58.27a0.15,0.15,0,0,0,0-.3,0.15,0.15,0,0,0,0,.3h0Z"/><path class="cls-4" d="M64,63.88a0.15,0.15,0,0,0,0-.3,0.15,0.15,0,0,0,0,.3h0Z"/><path class="cls-4" d="M69.41,62.7a0.15,0.15,0,0,0,0-.3,0.15,0.15,0,0,0,0,.3h0Z"/><path class="cls-4" d="M67.19,60.92a0.15,0.15,0,0,0,0-.3,0.15,0.15,0,0,0,0,.3h0Z"/><path class="cls-4" d="M68.88,59.15a0.15,0.15,0,0,0,0-.3,0.15,0.15,0,0,0,0,.3h0Z"/><path class="cls-4" d="M65.86,50.89a0.15,0.15,0,0,0,0-.3,0.15,0.15,0,0,0,0,.3h0Z"/><path class="cls-4" d="M61.23,63.88a0.15,0.15,0,0,0,0-.3,0.15,0.15,0,0,0,0,.3h0Z"/><path class="cls-4" d="M63,52.07a0.15,0.15,0,0,0,0-.3,0.15,0.15,0,0,0,0,.3h0Z"/><path class="cls-4" d="M64.88,60.92a0.15,0.15,0,0,0,0-.3,0.15,0.15,0,0,0,0,.3h0Z"/><path class="cls-4" d="M56.52,62.7a0.15,0.15,0,0,0,0-.3,0.15,0.15,0,0,0,0,.3h0Z"/><path class="cls-4" d="M54.47,57.38a0.15,0.15,0,0,0,0-.3,0.15,0.15,0,0,0,0,.3h0Z"/><path class="cls-4" d="M55.89,38.19a0.15,0.15,0,0,0,0-.3,0.15,0.15,0,0,0,0,.3h0Z"/><path class="cls-4" d="M53.76,63.88a0.15,0.15,0,0,0,0-.3,0.15,0.15,0,0,0,0,.3h0Z"/><path class="cls-4" d="M55.71,43.51a0.15,0.15,0,0,0,0-.3,0.15,0.15,0,0,0,0,.3h0Z"/><path class="cls-4" d="M61.41,59.15a0.15,0.15,0,0,0,0-.3,0.15,0.15,0,0,0,0,.3h0Z"/><path class="cls-4" d="M62.74,44.39a0.15,0.15,0,0,0,0-.3,0.15,0.15,0,0,0,0,.3h0Z"/></g><g class="cls-3"><path class="cls-4" d="M56.13,42.08a0.3,0.3,0,0,0,0-.6,0.3,0.3,0,0,0,0,.6h0Z"/><path class="cls-4" d="M57.18,38.83a0.3,0.3,0,0,0,0-.6,0.3,0.3,0,0,0,0,.6h0Z"/><path class="cls-4" d="M58.41,33.52a0.3,0.3,0,0,0,0-.6,0.3,0.3,0,0,0,0,.6h0Z"/><path class="cls-4" d="M65.6,44.44a0.3,0.3,0,0,0,0-.6,0.3,0.3,0,0,0,0,.6h0Z"/><path class="cls-4" d="M61,50.35a0.3,0.3,0,0,0,0-.6,0.3,0.3,0,0,0,0,.6h0Z"/><path class="cls-4" d="M61,39.42a0.3,0.3,0,0,0,0-.6,0.3,0.3,0,0,0,0,.6h0Z"/><path class="cls-4" d="M62.19,36.18a0.3,0.3,0,0,0,0-.6,0.3,0.3,0,0,0,0,.6h0Z"/><path class="cls-4" d="M64,53a0.3,0.3,0,0,0,0-.6,0.3,0.3,0,0,0,0,.6h0Z"/><path class="cls-4" d="M68.06,53.3a0.3,0.3,0,0,0,0-.6,0.3,0.3,0,0,0,0,.6h0Z"/><path class="cls-4" d="M66.27,61.86a0.3,0.3,0,0,0,0-.6,0.3,0.3,0,0,0,0,.6h0Z"/><path class="cls-4" d="M66.08,53.59a0.3,0.3,0,0,0,0-.6,0.3,0.3,0,0,0,0,.6h0Z"/><path class="cls-4" d="M58.31,60.38a0.3,0.3,0,0,0,0-.6,0.3,0.3,0,0,0,0,.6h0Z"/><path class="cls-4" d="M57.74,52.41a0.3,0.3,0,0,0,0-.6,0.3,0.3,0,0,0,0,.6h0Z"/><path class="cls-4" d="M54.62,50.94a0.3,0.3,0,0,0,0-.6,0.3,0.3,0,0,0,0,.6h0Z"/><path class="cls-4" d="M51,49.46a0.3,0.3,0,0,0,0-.6,0.3,0.3,0,0,0,0,.6h0Z"/><path class="cls-4" d="M60.11,47.39a0.3,0.3,0,0,0,0-.6,0.3,0.3,0,0,0,0,.6h0Z"/><path class="cls-4" d="M59.26,43.85a0.3,0.3,0,0,0,0-.6,0.3,0.3,0,0,0,0,.6h0Z"/><path class="cls-4" d="M59.73,31.45a0.3,0.3,0,0,0,0-.6,0.3,0.3,0,0,0,0,.6h0Z"/><path class="cls-4" d="M63.33,44.44a0.3,0.3,0,0,0,0-.6,0.3,0.3,0,0,0,0,.6h0Z"/><path class="cls-4" d="M63.33,42.38a0.3,0.3,0,0,0,0-.6,0.3,0.3,0,0,0,0,.6h0Z"/><path class="cls-4" d="M62.1,56.55a0.3,0.3,0,0,0,0-.6,0.3,0.3,0,0,0,0,.6h0Z"/><path class="cls-4" d="M63.42,62.15a0.3,0.3,0,0,0,0-.6,0.3,0.3,0,0,0,0,.6h0Z"/><path class="cls-4" d="M69.2,61a0.3,0.3,0,0,0,0-.6,0.3,0.3,0,0,0,0,.6h0Z"/><path class="cls-4" d="M66.83,59.2a0.3,0.3,0,0,0,0-.6,0.3,0.3,0,0,0,0,.6h0Z"/><path class="cls-4" d="M68.63,57.43a0.3,0.3,0,0,0,0-.6,0.3,0.3,0,0,0,0,.6h0Z"/><path class="cls-4" d="M65.41,49.17a0.3,0.3,0,0,0,0-.6,0.3,0.3,0,0,0,0,.6h0Z"/><path class="cls-4" d="M60.49,62.15a0.3,0.3,0,0,0,0-.6,0.3,0.3,0,0,0,0,.6h0Z"/><path class="cls-4" d="M62.38,50.35a0.3,0.3,0,0,0,0-.6,0.3,0.3,0,0,0,0,.6h0Z"/><path class="cls-4" d="M64.37,59.2a0.3,0.3,0,0,0,0-.6,0.3,0.3,0,0,0,0,.6h0Z"/><path class="cls-4" d="M55.47,61a0.3,0.3,0,0,0,0-.6,0.3,0.3,0,0,0,0,.6h0Z"/><path class="cls-4" d="M53.29,55.66a0.3,0.3,0,0,0,0-.6,0.3,0.3,0,0,0,0,.6h0Z"/><path class="cls-4" d="M54.81,36.47a0.3,0.3,0,0,0,0-.6,0.3,0.3,0,0,0,0,.6h0Z"/><path class="cls-4" d="M52.54,62.15a0.3,0.3,0,0,0,0-.6,0.3,0.3,0,0,0,0,.6h0Z"/><path class="cls-4" d="M54.62,41.79a0.3,0.3,0,0,0,0-.6,0.3,0.3,0,0,0,0,.6h0Z"/><path class="cls-4" d="M60.68,57.43a0.3,0.3,0,0,0,0-.6,0.3,0.3,0,0,0,0,.6h0Z"/><path class="cls-4" d="M62.1,42.67a0.3,0.3,0,0,0,0-.6,0.3,0.3,0,0,0,0,.6h0Z"/></g><polygon class="cls-1" points="53.66 63 57.65 63 50.53 49 53.17 49 47.12 39 50.18 39 39.92 22.27 29.67 39 32.73 39 26.68 49 29.32 49 22.2 63 26.18 63 19.85 74 33.73 74 39.92 74 46.12 74 60 74 53.66 63"/><path class="cls-2" d="M53.67,63.24h4A0.45,0.45,0,0,0,58,62.57l-4.25-8a40,40,0,0,1-2.3-4.32,4.48,4.48,0,0,1-.53-1c-0.49,1.07,1.64.6,2.21,0.6a0.45,0.45,0,0,0,.39-0.68l-4-7c-0.43-.76-1.86-2.47-1.9-3.36,0-.27-0.88.38,0.5,0.35,0.66,0,1.32,0,2,0a0.45,0.45,0,0,0,.39-0.68L40.31,21.74a0.46,0.46,0,0,0-.78,0L29.29,38.47a0.45,0.45,0,0,0,.39.68c0.66,0,1.32,0,2,0,1.4,0,.49-0.51.5-0.35,0.06,0.75-1.57,2.78-1.9,3.36l-4,7a0.45,0.45,0,0,0,.39.68c0.29,0,2.62.14,2.21-.3-0.18-.2-0.24-0.16-0.42.47-0.42,1.5-1.68,3.17-2.42,4.54l-4.25,8a0.45,0.45,0,0,0,.39.68c1.07,0,3.72.53,3.55-.59,0.1,0.66-1.54,2.61-1.9,3.2l-4.39,7.42a0.45,0.45,0,0,0,.39.68H60a0.45,0.45,0,0,0,.39-0.68L54.05,62.57a0.45,0.45,0,0,0-.78.45l4.61,7.8c0.28,0.47,1.53,3,1.84,2.53s-2.4-.3-2.91-0.3H23.45c-0.41,0-3.16.32-3.51,0,0.82,0.77,1.13-.73,1.79-1.85L26.57,63a0.45,0.45,0,0,0-.39-0.68,17.49,17.49,0,0,1-3,0c-1.38-.25-0.49.6-0.49,0.39,0-1,1.82-3.43,2.26-4.26l4.7-8.84A0.45,0.45,0,0,0,29.32,49a8.16,8.16,0,0,1-2.22,0s0.12,1.13.27,0.15,1.48-2.61,2-3.57l3.74-6.61a0.45,0.45,0,0,0-.39-0.68c-0.71,0-2.13.3-2.74,0,0.52,0.25-.06.79,0.7-0.35,1.14-1.71,2.15-3.52,3.23-5.27l4.18-6.82c0.36-.59,2.36-3.56,1.83-3.56s1.28,2.67,1.62,3.22l4.14,6.75A41,41,0,0,0,49,37.69c0.45,0.51.45,1.31,0.78,0.87s-2.25-.31-2.69-0.31a0.45,0.45,0,0,0-.39.68l3.74,6.61a20.07,20.07,0,0,1,1.91,3.38c0.36,1.16.28,0.1,0.38,0a6.51,6.51,0,0,1-2.22,0,0.45,0.45,0,0,0-.39.68l4.7,8.84c0.47,0.88,2.3,3.27,2.26,4.26,0,0.3.91-.65-0.49-0.39a17.34,17.34,0,0,1-3,0A0.45,0.45,0,0,0,53.67,63.24Z"/><g class="cls-3"><path class="cls-4" d="M37.1,44.08a0.15,0.15,0,0,0,0-.3,0.15,0.15,0,0,0,0,.3h0Z"/><path class="cls-4" d="M38.5,39.43a0.15,0.15,0,0,0,0-.3,0.15,0.15,0,0,0,0,.3h0Z"/><path class="cls-4" d="M40.15,31.83a0.15,0.15,0,0,0,0-.3,0.15,0.15,0,0,0,0,.3h0Z"/><path class="cls-4" d="M49.82,47.46a0.15,0.15,0,0,0,0-.3,0.15,0.15,0,0,0,0,.3h0Z"/><path class="cls-4" d="M43.59,55.9a0.15,0.15,0,0,0,0-.3,0.15,0.15,0,0,0,0,.3h0Z"/><path class="cls-4" d="M43.59,40.28a0.15,0.15,0,0,0,0-.3,0.15,0.15,0,0,0,0,.3h0Z"/><path class="cls-4" d="M45.24,35.63a0.15,0.15,0,0,0,0-.3,0.15,0.15,0,0,0,0,.3h0Z"/><path class="cls-4" d="M47.66,59.7a0.15,0.15,0,0,0,0-.3,0.15,0.15,0,0,0,0,.3h0Z"/><path class="cls-4" d="M53.13,60.12a0.15,0.15,0,0,0,0-.3,0.15,0.15,0,0,0,0,.3h0Z"/><path class="cls-4" d="M50.72,72.37a0.15,0.15,0,0,0,0-.3,0.15,0.15,0,0,0,0,.3h0Z"/><path class="cls-4" d="M50.46,60.55a0.15,0.15,0,0,0,0-.3,0.15,0.15,0,0,0,0,.3h0Z"/><path class="cls-4" d="M40,70.26a0.15,0.15,0,0,0,0-.3,0.15,0.15,0,0,0,0,.3h0Z"/><path class="cls-4" d="M39.26,58.86a0.15,0.15,0,0,0,0-.3,0.15,0.15,0,0,0,0,.3h0Z"/><path class="cls-4" d="M35.06,56.75a0.15,0.15,0,0,0,0-.3,0.15,0.15,0,0,0,0,.3h0Z"/><path class="cls-4" d="M31.76,37.32a0.15,0.15,0,0,0,0-.3,0.15,0.15,0,0,0,0,.3h0Z"/><path class="cls-4" d="M30.23,54.64a0.15,0.15,0,0,0,0-.3,0.15,0.15,0,0,0,0,.3h0Z"/><path class="cls-4" d="M42.44,51.68a0.15,0.15,0,0,0,0-.3,0.15,0.15,0,0,0,0,.3h0Z"/><path class="cls-4" d="M41.3,46.61a0.15,0.15,0,0,0,0-.3,0.15,0.15,0,0,0,0,.3h0Z"/><path class="cls-4" d="M41.94,28.88a0.15,0.15,0,0,0,0-.3,0.15,0.15,0,0,0,0,.3h0Z"/><path class="cls-4" d="M39.26,22.12a0.15,0.15,0,0,0,0-.3,0.15,0.15,0,0,0,0,.3h0Z"/><path class="cls-4" d="M46.77,47.46a0.15,0.15,0,0,0,0-.3,0.15,0.15,0,0,0,0,.3h0Z"/><path class="cls-4" d="M46.77,44.5a0.15,0.15,0,0,0,0-.3,0.15,0.15,0,0,0,0,.3h0Z"/><path class="cls-4" d="M45.12,64.77a0.15,0.15,0,0,0,0-.3,0.15,0.15,0,0,0,0,.3h0Z"/><path class="cls-4" d="M46.9,72.79a0.15,0.15,0,0,0,0-.3,0.15,0.15,0,0,0,0,.3h0Z"/><path class="cls-4" d="M54.66,71.1a0.15,0.15,0,0,0,0-.3,0.15,0.15,0,0,0,0,.3h0Z"/><path class="cls-4" d="M51.48,68.57a0.15,0.15,0,0,0,0-.3,0.15,0.15,0,0,0,0,.3h0Z"/><path class="cls-4" d="M53.9,66a0.15,0.15,0,0,0,0-.3,0.15,0.15,0,0,0,0,.3h0Z"/><path class="cls-4" d="M49.57,54.21a0.15,0.15,0,0,0,0-.3,0.15,0.15,0,0,0,0,.3h0Z"/><path class="cls-4" d="M43,72.79a0.15,0.15,0,0,0,0-.3,0.15,0.15,0,0,0,0,.3h0Z"/><path class="cls-4" d="M45.5,55.9a0.15,0.15,0,0,0,0-.3,0.15,0.15,0,0,0,0,.3h0Z"/><path class="cls-4" d="M48.17,68.57a0.15,0.15,0,0,0,0-.3,0.15,0.15,0,0,0,0,.3h0Z"/><path class="cls-4" d="M36.21,71.1a0.15,0.15,0,0,0,0-.3,0.15,0.15,0,0,0,0,.3h0Z"/><path class="cls-4" d="M33.28,63.5a0.15,0.15,0,0,0,0-.3,0.15,0.15,0,0,0,0,.3h0Z"/><path class="cls-4" d="M35.32,36.06a0.15,0.15,0,0,0,0-.3,0.15,0.15,0,0,0,0,.3h0Z"/><path class="cls-4" d="M32.26,72.79a0.15,0.15,0,0,0,0-.3,0.15,0.15,0,0,0,0,.3h0Z"/><path class="cls-4" d="M35.06,43.66a0.15,0.15,0,0,0,0-.3,0.15,0.15,0,0,0,0,.3h0Z"/><path class="cls-4" d="M43.21,66a0.15,0.15,0,0,0,0-.3,0.15,0.15,0,0,0,0,.3h0Z"/><path class="cls-4" d="M45.12,44.92a0.15,0.15,0,0,0,0-.3,0.15,0.15,0,0,0,0,.3h0Z"/></g><g class="cls-3"><path class="cls-4" d="M35.66,41.55a0.3,0.3,0,0,0,0-.6,0.3,0.3,0,0,0,0,.6h0Z"/><path class="cls-4" d="M37.15,36.91a0.3,0.3,0,0,0,0-.6,0.3,0.3,0,0,0,0,.6h0Z"/><path class="cls-4" d="M38.91,29.31a0.3,0.3,0,0,0,0-.6,0.3,0.3,0,0,0,0,.6h0Z"/><path class="cls-4" d="M49.21,44.93a0.3,0.3,0,0,0,0-.6,0.3,0.3,0,0,0,0,.6h0Z"/><path class="cls-4" d="M42.57,53.37a0.3,0.3,0,0,0,0-.6,0.3,0.3,0,0,0,0,.6h0Z"/><path class="cls-4" d="M42.57,37.75a0.3,0.3,0,0,0,0-.6,0.3,0.3,0,0,0,0,.6h0Z"/><path class="cls-4" d="M44.33,33.11a0.3,0.3,0,0,0,0-.6,0.3,0.3,0,0,0,0,.6h0Z"/><path class="cls-4" d="M46.9,57.18a0.3,0.3,0,0,0,0-.6,0.3,0.3,0,0,0,0,.6h0Z"/><path class="cls-4" d="M52.73,57.6a0.3,0.3,0,0,0,0-.6,0.3,0.3,0,0,0,0,.6h0Z"/><path class="cls-4" d="M50.16,69.84a0.3,0.3,0,0,0,0-.6,0.3,0.3,0,0,0,0,.6h0Z"/><path class="cls-4" d="M49.88,58a0.3,0.3,0,0,0,0-.6,0.3,0.3,0,0,0,0,.6h0Z"/><path class="cls-4" d="M38.78,67.73a0.3,0.3,0,0,0,0-.6,0.3,0.3,0,0,0,0,.6h0Z"/><path class="cls-4" d="M38,56.33a0.3,0.3,0,0,0,0-.6,0.3,0.3,0,0,0,0,.6h0Z"/><path class="cls-4" d="M33.5,54.22a0.3,0.3,0,0,0,0-.6,0.3,0.3,0,0,0,0,.6h0Z"/><path class="cls-4" d="M28.35,52.11a0.3,0.3,0,0,0,0-.6,0.3,0.3,0,0,0,0,.6h0Z"/><path class="cls-4" d="M41.35,49.15a0.3,0.3,0,0,0,0-.6,0.3,0.3,0,0,0,0,.6h0Z"/><path class="cls-4" d="M40.13,44.09a0.3,0.3,0,0,0,0-.6,0.3,0.3,0,0,0,0,.6h0Z"/><path class="cls-4" d="M40.81,26.35a0.3,0.3,0,0,0,0-.6,0.3,0.3,0,0,0,0,.6h0Z"/><path class="cls-4" d="M46,44.93a0.3,0.3,0,0,0,0-.6,0.3,0.3,0,0,0,0,.6h0Z"/><path class="cls-4" d="M46,42a0.3,0.3,0,0,0,0-.6,0.3,0.3,0,0,0,0,.6h0Z"/><path class="cls-4" d="M44.2,62.24a0.3,0.3,0,0,0,0-.6,0.3,0.3,0,0,0,0,.6h0Z"/><path class="cls-4" d="M46.09,70.26a0.3,0.3,0,0,0,0-.6,0.3,0.3,0,0,0,0,.6h0Z"/><path class="cls-4" d="M54.35,68.58a0.3,0.3,0,0,0,0-.6,0.3,0.3,0,0,0,0,.6h0Z"/><path class="cls-4" d="M51,66a0.3,0.3,0,0,0,0-.6,0.3,0.3,0,0,0,0,.6h0Z"/><path class="cls-4" d="M53.54,63.51a0.3,0.3,0,0,0,0-.6,0.3,0.3,0,0,0,0,.6h0Z"/><path class="cls-4" d="M48.94,51.69a0.3,0.3,0,0,0,0-.6,0.3,0.3,0,0,0,0,.6h0Z"/><path class="cls-4" d="M41.89,70.26a0.3,0.3,0,0,0,0-.6,0.3,0.3,0,0,0,0,.6h0Z"/><path class="cls-4" d="M44.6,53.37a0.3,0.3,0,0,0,0-.6,0.3,0.3,0,0,0,0,.6h0Z"/><path class="cls-4" d="M47.45,66a0.3,0.3,0,0,0,0-.6,0.3,0.3,0,0,0,0,.6h0Z"/><path class="cls-4" d="M34.71,68.58a0.3,0.3,0,0,0,0-.6,0.3,0.3,0,0,0,0,.6h0Z"/><path class="cls-4" d="M31.6,61a0.3,0.3,0,0,0,0-.6,0.3,0.3,0,0,0,0,.6h0Z"/><path class="cls-4" d="M33.77,33.53a0.3,0.3,0,0,0,0-.6,0.3,0.3,0,0,0,0,.6h0Z"/><path class="cls-4" d="M30.52,70.26a0.3,0.3,0,0,0,0-.6,0.3,0.3,0,0,0,0,.6h0Z"/><path class="cls-4" d="M33.5,41.13a0.3,0.3,0,0,0,0-.6,0.3,0.3,0,0,0,0,.6h0Z"/><path class="cls-4" d="M42.16,63.51a0.3,0.3,0,0,0,0-.6,0.3,0.3,0,0,0,0,.6h0Z"/><path class="cls-4" d="M44.2,42.4a0.3,0.3,0,0,0,0-.6,0.3,0.3,0,0,0,0,.6h0Z"/></g></svg>