<svg id="Layer_1" data-name="Layer 1" xmlns="http://www.w3.org/2000/svg" viewBox="0 0 95 95"><defs><style>.cls-1{fill:#49756a;}.cls-2,.cls-3{fill:#5db59c;}.cls-3{font-size:7.5px;font-family:Big John;}</style></defs><title>christmas_icons</title><path class="cls-1" d="M23.77,33.11s7.41-6.83,20.73-5.62c0,0,16.61,2.3,25.58-1l-1.85,7.26,4,4.77a46.63,46.63,0,0,1-26.53.74s-7.27-1.64-20.39,5.14Z"/><path class="cls-2" d="M24.09,33.43c6.24-5.58,15.29-5.94,23.16-5.18a81.65,81.65,0,0,0,15.05.24,46.35,46.35,0,0,0,6.27-1c1.46-.33.78-1.45,0.79,0.07a13.6,13.6,0,0,1-.75,2.94c-0.69,2.69-1.21,3,.44,5,0.72,0.87,2.39,3.65,3,2.69-0.4.63-3.31,1-3.88,1.1C60.43,41,53.51,40,45.81,38.85a20.59,20.59,0,0,0-5.85.07,38.7,38.7,0,0,0-7.77,2,34.91,34.91,0,0,0-3.83,1.54c-0.29.14-2,1.25-2.13,1.25-1.44,0,.08.73-0.62-0.23S25,39,24.84,37.71L24.2,33c-0.08-.57-0.94-0.33-0.87.24l1.53,11.31a0.45,0.45,0,0,0,.66.27c5-2.52,10.47-4.76,16.16-5.18,3.07-.23,5.46.57,8.53,1.06,7.16,1.14,15.25.87,22.13-1.72a0.46,0.46,0,0,0,.2-0.75c-1-1.2-3.69-3.8-3.79-4.68-0.24-1.94,1.27-5,1.77-6.92A0.45,0.45,0,0,0,70,26.07C55.26,31,36.15,21.44,23.45,32.8,23,33.18,23.66,33.82,24.09,33.43Z"/><text class="cls-3" transform="translate(30.02 39.82) rotate(-19.47) scale(0.97 1)">D</text><text class="cls-3" transform="translate(35.31 37.58) rotate(-14.66) scale(0.97 1)">u</text><text class="cls-3" transform="translate(40.25 36.38) rotate(1.47) scale(0.97 1)">r</text><text class="cls-3" transform="matrix(0.97, 0.1, -0.1, 1, 45.7, 36.59)">h</text><text class="cls-3" transform="translate(51.37 37.17) rotate(4.27) scale(0.97 1)">a</text><text class="cls-3" transform="matrix(0.97, -0.1, 0.1, 0.99, 58.07, 37.75)">m</text><path class="cls-2" d="M22.67,30l4.2,41.7c0.1,1,1.6,1,1.5,0L24.17,30c-0.1-1-1.6-1-1.5,0h0Z"/></svg>