<svg id="Layer_1" data-name="Layer 1" xmlns="http://www.w3.org/2000/svg" viewBox="0 0 63.82 63.82"><defs><style>.cls-1,.cls-4{fill:#fff;}.cls-2{fill:#7f372a;}.cls-3{fill:#994233;}.cls-4{stroke:#fff;stroke-linecap:round;stroke-linejoin:round;stroke-width:0.3px;}.cls-5{opacity:0.5;}.cls-6{fill:#e2614b;}.cls-7{fill:#ddc276;}</style></defs><title>christmas_icons</title><path class="cls-1" d="M8.47,56.6c8.87-3.56,15.78-4.27,25.08-1.72,8.54,2.34,15.81,2.23,23.88-2a0.75,0.75,0,0,0-.76-1.3c-5,2.62-10.67,4.21-16.3,3.38-4.33-.64-8.44-2.3-12.76-3-7-1.08-13.06.59-19.55,3.19-0.88.36-.5,1.81,0.4,1.45h0Z"/><path class="cls-2" d="M10.28,36.64l11.79-9.46,7.81-6.27a20.33,20.33,0,0,0,2.88-2.31c0.33-.39,1.58-0.86.57-0.86s0.24,0.46.58,0.86a18.45,18.45,0,0,0,2.61,2.08l8.15,6.5,11.86,9.46c0.75,0.6,1.82-.46,1.06-1.06L33.86,16.65a0.78,0.78,0,0,0-1.06,0L9.22,35.58c-0.75.6,0.31,1.66,1.06,1.06h0Z"/><polygon class="cls-2" points="16.82 30.07 16.82 21.82 23.82 21.82 23.82 24.85 16.82 30.07"/><path class="cls-2" d="M17.69,30.08V21.76l-0.45.45h6.63l-0.45-.45a11,11,0,0,1,0,3c0.18-.5-0.09-0.06-0.36.12-0.43.28-.82,0.65-1.23,1l-4.91,3.87c-0.45.36,0.19,1,.64,0.64l5.35-4.21a3.84,3.84,0,0,0,1.42-1.33,11,11,0,0,0,0-3.09,0.46,0.46,0,0,0-.45-0.45H17.24a0.46,0.46,0,0,0-.45.45v8.32A0.45,0.45,0,0,0,17.69,30.08Z"/><path class="cls-3" d="M21.71,48.38a41.08,41.08,0,0,1,11.55,1.83S39.58,52,42.19,52a28,28,0,0,0,9.62-1.3V36.46L33.42,22.2,14.82,36.74V49.69A24.81,24.81,0,0,1,21.71,48.38Z"/><path class="cls-2" d="M21.6,49.13c5.56,0,10.7,1.8,16.06,2.95a28.87,28.87,0,0,0,14.27-.63,0.76,0.76,0,0,0,.55-0.72V39.87c0-2.42.34-3.17-1.22-4.71C46.12,30.07,39.38,26,33.64,21.55a0.76,0.76,0,0,0-.91.12L15.67,35c-1.82,1.42-1.83,1.48-1.83,3.81V49.69a0.76,0.76,0,0,0,.95.72,34.9,34.9,0,0,1,6.81-1.28c1-.06,1-1.56,0-1.5S14.72,49,15.34,49.46c-0.44-.32,0-4.82,0-5.28,0-1.9.14-3.86,0-5.76a4.87,4.87,0,0,1,0-1.59c-0.24.54,0,.4,0.28,0,2.13-2.54,5.84-4.55,8.45-6.58,3-2.3,6.09-4.48,8.92-6.94,1.15-1-.13-0.48.29-0.22,1.15,0.74,2.2,1.7,3.28,2.53L47,33.77c1.16,0.89,2.37,1.74,3.48,2.69S51,36,51,37.7c0,3.58.73,8,0,11.46-0.27,1.3.23,0.84-.59,1.39-1.17.79-5.05,0.7-6.48,0.73a28.07,28.07,0,0,1-7-.92c-5.08-1.18-10-2.75-15.29-2.74A0.75,0.75,0,0,0,21.6,49.13Z"/><path class="cls-1" d="M5.37,41.29a0.45,0.45,0,0,0,0-.9,0.45,0.45,0,0,0,0,.9h0Z"/><path class="cls-1" d="M12.86,26.32a0.45,0.45,0,0,0,0-.9,0.45,0.45,0,0,0,0,.9h0Z"/><path class="cls-1" d="M3.68,21.23a0.45,0.45,0,0,0,0-.9,0.45,0.45,0,0,0,0,.9h0Z"/><path class="cls-1" d="M31.64,10.79a0.45,0.45,0,0,0,0-.9,0.45,0.45,0,0,0,0,.9h0Z"/><path class="cls-1" d="M45.05,7.4a0.45,0.45,0,0,0,0-.9,0.45,0.45,0,0,0,0,.9h0Z"/><path class="cls-1" d="M48.58,20.53a0.45,0.45,0,0,0,0-.9,0.45,0.45,0,0,0,0,.9h0Z"/><path class="cls-1" d="M60.45,22.65a0.45,0.45,0,0,0,0-.9,0.45,0.45,0,0,0,0,.9h0Z"/><path class="cls-1" d="M58.19,44.54a0.45,0.45,0,0,0,0-.9,0.45,0.45,0,0,0,0,.9h0Z"/><path class="cls-1" d="M10.31,46.76a0.3,0.3,0,0,0,0-.6,0.3,0.3,0,0,0,0,.6h0Z"/><path class="cls-1" d="M11.16,19.85a0.3,0.3,0,0,0,0-.6,0.3,0.3,0,0,0,0,.6h0Z"/><path class="cls-1" d="M3.31,26.7a0.3,0.3,0,0,0,0-.6,0.3,0.3,0,0,0,0,.6h0Z"/><path class="cls-1" d="M28.62,16.25a0.3,0.3,0,0,0,0-.6,0.3,0.3,0,0,0,0,.6h0Z"/><path class="cls-1" d="M44.69,14.19a0.3,0.3,0,0,0,0-.6,0.3,0.3,0,0,0,0,.6h0Z"/><path class="cls-1" d="M54.85,18a0.3,0.3,0,0,0,0-.6,0.3,0.3,0,0,0,0,.6h0Z"/><path class="cls-1" d="M54.77,29.44a0.3,0.3,0,0,0,0-.6,0.3,0.3,0,0,0,0,.6h0Z"/><path class="cls-1" d="M55.17,47.35a0.3,0.3,0,0,0,0-.6,0.3,0.3,0,0,0,0,.6h0Z"/><circle class="cls-4" cx="17.98" cy="14.67" r="2.85"/><circle class="cls-4" cx="21.99" cy="15.26" r="2.25"/><circle class="cls-4" cx="21.15" cy="12.62" r="1.49"/><circle class="cls-4" cx="24.05" cy="13.31" r="1.49"/><g class="cls-5"><path class="cls-6" d="M37.35,29.24a0.3,0.3,0,0,0,0-.6,0.3,0.3,0,0,0,0,.6h0Z"/><path class="cls-6" d="M39.7,32a0.3,0.3,0,0,0,0-.6,0.3,0.3,0,0,0,0,.6h0Z"/><path class="cls-6" d="M47.17,41.41a0.3,0.3,0,0,0,0-.6,0.3,0.3,0,0,0,0,.6h0Z"/><path class="cls-6" d="M49.25,41.69a0.3,0.3,0,0,0,0-.6,0.3,0.3,0,0,0,0,.6h0Z"/><path class="cls-6" d="M45.65,48.61a0.3,0.3,0,0,0,0-.6,0.3,0.3,0,0,0,0,.6h0Z"/><path class="cls-6" d="M38.18,38.65a0.3,0.3,0,0,0,0-.6,0.3,0.3,0,0,0,0,.6h0Z"/><path class="cls-6" d="M45.1,38.51a0.3,0.3,0,0,0,0-.6,0.3,0.3,0,0,0,0,.6h0Z"/><path class="cls-6" d="M40,42.1a0.3,0.3,0,0,0,0-.6,0.3,0.3,0,0,0,0,.6h0Z"/><path class="cls-6" d="M46.62,45.43a0.3,0.3,0,0,0,0-.6,0.3,0.3,0,0,0,0,.6h0Z"/><path class="cls-6" d="M46.48,35.46a0.3,0.3,0,0,0,0-.6,0.3,0.3,0,0,0,0,.6h0Z"/><path class="cls-6" d="M43,35.32a0.3,0.3,0,0,0,0-.6,0.3,0.3,0,0,0,0,.6h0Z"/><path class="cls-6" d="M44.55,33a0.3,0.3,0,0,0,0-.6,0.3,0.3,0,0,0,0,.6h0Z"/><path class="cls-6" d="M50.22,49.58a0.3,0.3,0,0,0,0-.6,0.3,0.3,0,0,0,0,.6h0Z"/><path class="cls-6" d="M50.08,37.54a0.3,0.3,0,0,0,0-.6,0.3,0.3,0,0,0,0,.6h0Z"/></g><polygon class="cls-7" points="37.79 43.15 29.46 43.15 29.46 34.82 33.37 34.82 37.79 34.82 37.79 43.15"/><path class="cls-2" d="M37.79,42.7H29.46l0.45,0.45V34.82l-0.45.45h8.33l-0.45-.45v8.33a0.45,0.45,0,0,0,.9,0V34.82a0.46,0.46,0,0,0-.45-0.45H29.46a0.46,0.46,0,0,0-.45.45v8.33a0.46,0.46,0,0,0,.45.45h8.33A0.45,0.45,0,0,0,37.79,42.7Z"/><path class="cls-2" d="M33.18,35.36v7.9a0.45,0.45,0,0,0,.9,0v-7.9a0.45,0.45,0,0,0-.9,0h0Z"/><path class="cls-2" d="M29.53,39.7h8.19a0.45,0.45,0,0,0,0-.9H29.53a0.45,0.45,0,0,0,0,.9h0Z"/><path class="cls-2" d="M37.79,42.75H29.46l0.45,0.45V34.86l-0.45.45h8.33l-0.45-.45V43.2a0.45,0.45,0,0,0,.9,0V34.86a0.46,0.46,0,0,0-.45-0.45H29.46a0.46,0.46,0,0,0-.45.45V43.2a0.46,0.46,0,0,0,.45.45h8.33A0.45,0.45,0,0,0,37.79,42.75Z"/><g class="cls-5"><path class="cls-6" d="M38.18,33.79a0.15,0.15,0,0,0,0-.3,0.15,0.15,0,0,0,0,.3h0Z"/><path class="cls-6" d="M42.47,36.84a0.15,0.15,0,0,0,0-.3,0.15,0.15,0,0,0,0,.3h0Z"/><path class="cls-6" d="M42.88,46a0.15,0.15,0,0,0,0-.3,0.15,0.15,0,0,0,0,.3h0Z"/><path class="cls-6" d="M47.59,47.49a0.15,0.15,0,0,0,0-.3,0.15,0.15,0,0,0,0,.3h0Z"/><path class="cls-6" d="M47.73,38.08a0.15,0.15,0,0,0,0-.3,0.15,0.15,0,0,0,0,.3h0Z"/><path class="cls-6" d="M35,27.15a0.15,0.15,0,0,0,0-.3,0.15,0.15,0,0,0,0,.3h0Z"/><path class="cls-6" d="M49.8,44.45a0.15,0.15,0,0,0,0-.3,0.15,0.15,0,0,0,0,.3h0Z"/><path class="cls-6" d="M44.41,41.82a0.15,0.15,0,0,0,0-.3,0.15,0.15,0,0,0,0,.3h0Z"/></g></svg>