<svg id="Layer_1" data-name="Layer 1" xmlns="http://www.w3.org/2000/svg" viewBox="0 0 62.94 62.94"><defs><style>.cls-1,.cls-12{fill:#f4d9c1;}.cls-2,.cls-4{fill:#406340;}.cls-2,.cls-6{stroke:#e5b000;}.cls-11,.cls-12,.cls-13,.cls-14,.cls-2{stroke-linecap:round;}.cls-11,.cls-12,.cls-14,.cls-2{stroke-linejoin:round;}.cls-2{stroke-width:0.5px;}.cls-14,.cls-3{fill:#442f21;}.cls-5{fill:#e5b000;}.cls-13,.cls-6{fill:none;stroke-miterlimit:10;}.cls-18,.cls-7{fill:#fff;}.cls-8{fill:#0a0c4a;}.cls-11,.cls-9{fill:#e5cbb5;}.cls-10{fill:#efbbd9;}.cls-11,.cls-12,.cls-13{stroke:#e5cbb5;}.cls-11,.cls-12,.cls-13,.cls-14{stroke-width:0.1px;}.cls-14{stroke:#442f21;}.cls-15{opacity:0.3;}.cls-16{fill:#95dd95;}.cls-17{fill:#e2614b;}.cls-18{font-size:10px;font-family:Big John;}</style></defs><title>christmas_iconss</title><polygon class="cls-1" points="23.07 16.31 24.47 30 39.77 30 41.07 16.79 23.07 16.31"/><polygon class="cls-2" points="41.64 59.15 22.84 59.15 19.9 31 44.84 31 41.64 59.15"/><path class="cls-3" d="M23,16.95a5.64,5.64,0,0,0-3.84,4.68s-0.44,1.79,1.1,1c0,0,.11,4,1.32,2.2,0,0,1.1,3.17,2,2.2l16.9,0.18s1.17,0.51,1.68-2.11c0,0,1.61,1.6,1.72-3,0,0,2.63,1.2-.55-3.49a7.61,7.61,0,0,0-2-1.65C40.08,16.26,23,16.95,23,16.95Z"/><polygon class="cls-1" points="23.07 16.31 24.47 30 39.77 30 41.07 16.79 23.07 16.31"/><polygon class="cls-4" points="23.07 18 21.53 5 42.38 5 40.96 18 23.07 18"/><circle class="cls-5" cx="21.91" cy="9.75" r="1.54"/><circle class="cls-5" cx="41.98" cy="9.75" r="1.54"/><path class="cls-6" d="M21.91,9.75A18.72,18.72,0,0,0,31.81,13S38.72,13,42,9.75"/><circle class="cls-7" cx="28.56" cy="21.76" r="1.48"/><circle class="cls-8" cx="28.56" cy="21.76" r="0.72"/><circle class="cls-7" cx="28.85" cy="21.37" r="0.43"/><path class="cls-9" d="M26.77,21.76a2.26,2.26,0,0,1,3-1.32,3.56,3.56,0,0,0-2.07-.25A1.78,1.78,0,0,0,26.77,21.76Z"/><path class="cls-9" d="M26.92,21.8a2.13,2.13,0,0,1,2.78-1.21c0.16,0.05.27-.21,0.12-0.27a3.1,3.1,0,0,0-2.21-.25,2.06,2.06,0,0,0-1,1.66c0,0.19.26,0.27,0.29,0.08a1.87,1.87,0,0,1,.8-1.46,2.82,2.82,0,0,1,1.95.24l0.12-.27a2.43,2.43,0,0,0-3.15,1.42C26.56,21.9,26.85,22,26.92,21.8Z"/><circle class="cls-7" cx="35.77" cy="21.8" r="1.48"/><circle class="cls-8" cx="35.77" cy="21.8" r="0.72"/><circle class="cls-7" cx="36.06" cy="21.41" r="0.43"/><path class="cls-9" d="M37.64,21.76a2.26,2.26,0,0,0-3-1.32,3.56,3.56,0,0,1,2.07-.25A1.78,1.78,0,0,1,37.64,21.76Z"/><path class="cls-9" d="M37.78,21.72a2.43,2.43,0,0,0-3.15-1.42l0.12,0.27a2.8,2.8,0,0,1,1.95-.24,1.87,1.87,0,0,1,.8,1.46c0,0.19.32,0.11,0.29-.08a2.05,2.05,0,0,0-1-1.66,3.12,3.12,0,0,0-2.21.25c-0.16.07,0,.33,0.12,0.27a2.14,2.14,0,0,1,2.78,1.21C37.56,22,37.85,21.9,37.78,21.72Z"/><circle class="cls-10" cx="26.77" cy="25.24" r="1.43"/><circle class="cls-10" cx="37.64" cy="25.24" r="1.43"/><polygon class="cls-11" points="33.34 25.14 31.4 25.14 31.64 22.48 33.09 22.48 33.34 25.14"/><rect class="cls-12" x="29.48" y="28.31" width="5.78" height="2.81"/><rect class="cls-7" x="30.02" y="27.22" width="4.69" height="3.29"/><line class="cls-13" x1="30.05" y1="29.17" x2="34.69" y2="29.17"/><line class="cls-13" x1="31.23" y1="30.52" x2="31.23" y2="27.12"/><line class="cls-13" x1="32.35" y1="30.52" x2="32.35" y2="27.12"/><line class="cls-13" x1="33.62" y1="30.57" x2="33.62" y2="27.17"/><path class="cls-14" d="M38.23,26.06a0.77,0.77,0,0,0-1.35.09c0.67-.36.81,0.27,0.81,0.27a0.48,0.48,0,0,1-.08.6c-0.62.51-1.74-.39-1.74-0.39a3.78,3.78,0,0,0-1.81-1c-1.36,0-1.66.43-1.71,0.51,0-.08-0.35-0.51-1.71-0.51a3.78,3.78,0,0,0-1.81,1s-1.12.9-1.74,0.39a0.48,0.48,0,0,1-.08-0.6s0.14-.62.81-0.27a0.77,0.77,0,0,0-1.35-.09A1.48,1.48,0,0,0,27,28.24s1.16,1.09,4.42-.19a2.79,2.79,0,0,0,.9-0.59,2.79,2.79,0,0,0,.9.59c3.26,1.28,4.42.19,4.42,0.19A1.48,1.48,0,0,0,38.23,26.06Z"/><circle class="cls-5" cx="25.34" cy="35.89" r="1.54"/><circle class="cls-5" cx="39.07" cy="35.89" r="1.54"/><line class="cls-6" x1="25.34" y1="35.89" x2="39.31" y2="35.89"/><circle class="cls-5" cx="25.66" cy="40.8" r="1.54"/><circle class="cls-5" cx="39.39" cy="40.8" r="1.54"/><line class="cls-6" x1="25.66" y1="40.8" x2="39.63" y2="40.8"/><circle class="cls-5" cx="25.34" cy="46.24" r="1.54"/><circle class="cls-5" cx="39.07" cy="46.24" r="1.54"/><line class="cls-6" x1="25.34" y1="46.24" x2="39.31" y2="46.24"/><circle class="cls-1" cx="16.41" cy="55.53" r="2.35"/><rect class="cls-2" x="14.65" y="31.66" width="3.54" height="21.52"/><circle class="cls-1" cx="48.32" cy="55.53" r="2.35"/><rect class="cls-2" x="46.55" y="31.66" width="3.54" height="21.52"/><g class="cls-15"><path class="cls-16" d="M33.17,7a0.3,0.3,0,0,0,0-.6,0.3,0.3,0,0,0,0,.6h0Z"/><path class="cls-16" d="M37,7.66a0.3,0.3,0,0,0,0-.6,0.3,0.3,0,0,0,0,.6h0Z"/><path class="cls-16" d="M39.67,6.43a0.3,0.3,0,0,0,0-.6,0.3,0.3,0,0,0,0,.6h0Z"/><path class="cls-16" d="M38.85,10.13a0.3,0.3,0,0,0,0-.6,0.3,0.3,0,0,0,0,.6h0Z"/><path class="cls-16" d="M40,14.83a0.3,0.3,0,0,0,0-.6,0.3,0.3,0,0,0,0,.6h0Z"/><path class="cls-16" d="M36.71,17a0.3,0.3,0,0,0,0-.6,0.3,0.3,0,0,0,0,.6h0Z"/><path class="cls-16" d="M37.2,14.74a0.3,0.3,0,0,0,0-.6,0.3,0.3,0,0,0,0,.6h0Z"/><path class="cls-16" d="M39.67,17.38a0.3,0.3,0,0,0,0-.6,0.3,0.3,0,0,0,0,.6h0Z"/><path class="cls-16" d="M41.73,6.92a0.3,0.3,0,0,0,0-.6,0.3,0.3,0,0,0,0,.6h0Z"/><path class="cls-16" d="M41.4,5.77a0.3,0.3,0,0,0,0-.6,0.3,0.3,0,0,0,0,.6h0Z"/><path class="cls-16" d="M40.66,13a0.3,0.3,0,0,0,0-.6,0.3,0.3,0,0,0,0,.6h0Z"/><path class="cls-16" d="M39.59,13.67a0.3,0.3,0,0,0,0-.6,0.3,0.3,0,0,0,0,.6h0Z"/><path class="cls-16" d="M37,5.44a0.3,0.3,0,0,0,0-.6,0.3,0.3,0,0,0,0,.6h0Z"/></g><g class="cls-15"><path class="cls-16" d="M31.85,8.17a0.15,0.15,0,0,0,0-.3,0.15,0.15,0,0,0,0,.3h0Z"/><path class="cls-16" d="M35.64,8.83a0.15,0.15,0,0,0,0-.3,0.15,0.15,0,0,0,0,.3h0Z"/><path class="cls-16" d="M38.35,7.6a0.15,0.15,0,0,0,0-.3,0.15,0.15,0,0,0,0,.3h0Z"/><path class="cls-16" d="M37.53,11.3a0.15,0.15,0,0,0,0-.3,0.15,0.15,0,0,0,0,.3h0Z"/><path class="cls-16" d="M40,16a0.15,0.15,0,0,0,0-.3,0.15,0.15,0,0,0,0,.3h0Z"/><path class="cls-16" d="M38,16.9a0.15,0.15,0,0,0,0-.3,0.15,0.15,0,0,0,0,.3h0Z"/><path class="cls-16" d="M35.88,15.91a0.15,0.15,0,0,0,0-.3,0.15,0.15,0,0,0,0,.3h0Z"/><path class="cls-16" d="M34.4,5.37a0.15,0.15,0,0,0,0-.3,0.15,0.15,0,0,0,0,.3h0Z"/><path class="cls-16" d="M40.41,8.09a0.15,0.15,0,0,0,0-.3,0.15,0.15,0,0,0,0,.3h0Z"/><path class="cls-16" d="M40.08,6.94a0.15,0.15,0,0,0,0-.3,0.15,0.15,0,0,0,0,.3h0Z"/><path class="cls-16" d="M39.34,14.18a0.15,0.15,0,0,0,0-.3,0.15,0.15,0,0,0,0,.3h0Z"/><path class="cls-16" d="M38.27,14.84a0.15,0.15,0,0,0,0-.3,0.15,0.15,0,0,0,0,.3h0Z"/><path class="cls-16" d="M35.64,6.61a0.15,0.15,0,0,0,0-.3,0.15,0.15,0,0,0,0,.3h0Z"/></g><g class="cls-15"><path class="cls-16" d="M34.7,32.88a0.3,0.3,0,0,0,0-.6,0.3,0.3,0,0,0,0,.6h0Z"/><path class="cls-16" d="M41.95,33.43a0.3,0.3,0,0,0,0-.6,0.3,0.3,0,0,0,0,.6h0Z"/><path class="cls-16" d="M40.85,39a0.3,0.3,0,0,0,0-.6,0.3,0.3,0,0,0,0,.6h0Z"/><path class="cls-16" d="M39,33.32a0.3,0.3,0,0,0,0-.6,0.3,0.3,0,0,0,0,.6h0Z"/><path class="cls-16" d="M43,36.83a0.3,0.3,0,0,0,0-.6,0.3,0.3,0,0,0,0,.6h0Z"/><path class="cls-16" d="M43.92,32.66a0.3,0.3,0,0,0,0-.6,0.3,0.3,0,0,0,0,.6h0Z"/><path class="cls-16" d="M40.3,32.22a0.3,0.3,0,0,0,0-.6,0.3,0.3,0,0,0,0,.6h0Z"/><path class="cls-16" d="M41.84,41.66a0.3,0.3,0,0,0,0-.6,0.3,0.3,0,0,0,0,.6h0Z"/><path class="cls-16" d="M36.68,44.07a0.3,0.3,0,0,0,0-.6,0.3,0.3,0,0,0,0,.6h0Z"/><path class="cls-16" d="M37.12,39.47a0.3,0.3,0,0,0,0-.6,0.3,0.3,0,0,0,0,.6h0Z"/><path class="cls-16" d="M41,44.84a0.3,0.3,0,0,0,0-.6,0.3,0.3,0,0,0,0,.6h0Z"/><path class="cls-16" d="M41.4,46.71a0.3,0.3,0,0,0,0-.6,0.3,0.3,0,0,0,0,.6h0Z"/><path class="cls-16" d="M41.73,50.22a0.3,0.3,0,0,0,0-.6,0.3,0.3,0,0,0,0,.6h0Z"/><path class="cls-16" d="M39.75,50.44a0.3,0.3,0,0,0,0-.6,0.3,0.3,0,0,0,0,.6h0Z"/><path class="cls-16" d="M36.9,51.54a0.3,0.3,0,0,0,0-.6,0.3,0.3,0,0,0,0,.6h0Z"/><path class="cls-16" d="M38.87,54.39a0.3,0.3,0,0,0,0-.6,0.3,0.3,0,0,0,0,.6h0Z"/><path class="cls-16" d="M40.19,53.4a0.3,0.3,0,0,0,0-.6,0.3,0.3,0,0,0,0,.6h0Z"/><path class="cls-16" d="M40.41,57.9a0.3,0.3,0,0,0,0-.6,0.3,0.3,0,0,0,0,.6h0Z"/><path class="cls-16" d="M36.35,57.9a0.3,0.3,0,0,0,0-.6,0.3,0.3,0,0,0,0,.6h0Z"/><path class="cls-16" d="M37.78,57a0.3,0.3,0,0,0,0-.6,0.3,0.3,0,0,0,0,.6h0Z"/><path class="cls-16" d="M35.36,55.38a0.3,0.3,0,0,0,0-.6,0.3,0.3,0,0,0,0,.6h0Z"/><path class="cls-16" d="M33.17,50.33a0.3,0.3,0,0,0,0-.6,0.3,0.3,0,0,0,0,.6h0Z"/><path class="cls-16" d="M31.74,58.34a0.3,0.3,0,0,0,0-.6,0.3,0.3,0,0,0,0,.6h0Z"/><path class="cls-16" d="M34.37,38.26a0.3,0.3,0,0,0,0-.6,0.3,0.3,0,0,0,0,.6h0Z"/></g><g class="cls-15"><path class="cls-16" d="M33.39,34a0.15,0.15,0,0,0,0-.3,0.15,0.15,0,0,0,0,.3h0Z"/><path class="cls-16" d="M41.95,32a0.15,0.15,0,0,0,0-.3,0.15,0.15,0,0,0,0,.3h0Z"/><path class="cls-16" d="M42.17,38.88a0.15,0.15,0,0,0,0-.3,0.15,0.15,0,0,0,0,.3h0Z"/><path class="cls-16" d="M37.67,31.85a0.15,0.15,0,0,0,0-.3,0.15,0.15,0,0,0,0,.3h0Z"/><path class="cls-16" d="M41.73,35.36a0.15,0.15,0,0,0,0-.3,0.15,0.15,0,0,0,0,.3h0Z"/><path class="cls-16" d="M34.7,58.85a0.15,0.15,0,0,0,0-.3,0.15,0.15,0,0,0,0,.3h0Z"/><path class="cls-16" d="M40.3,55.78a0.15,0.15,0,0,0,0-.3,0.15,0.15,0,0,0,0,.3h0Z"/><path class="cls-16" d="M39.2,38.88a0.15,0.15,0,0,0,0-.3,0.15,0.15,0,0,0,0,.3h0Z"/><path class="cls-16" d="M35.36,42.61a0.15,0.15,0,0,0,0-.3,0.15,0.15,0,0,0,0,.3h0Z"/><path class="cls-16" d="M35.8,38a0.15,0.15,0,0,0,0-.3,0.15,0.15,0,0,0,0,.3h0Z"/><path class="cls-16" d="M39.64,43.38a0.15,0.15,0,0,0,0-.3,0.15,0.15,0,0,0,0,.3h0Z"/><path class="cls-16" d="M41.4,43.92a0.15,0.15,0,0,0,0-.3,0.15,0.15,0,0,0,0,.3h0Z"/><path class="cls-16" d="M40.41,48.75a0.15,0.15,0,0,0,0-.3,0.15,0.15,0,0,0,0,.3h0Z"/><path class="cls-16" d="M38.43,49a0.15,0.15,0,0,0,0-.3,0.15,0.15,0,0,0,0,.3h0Z"/><path class="cls-16" d="M35.58,50.07a0.15,0.15,0,0,0,0-.3,0.15,0.15,0,0,0,0,.3h0Z"/><path class="cls-16" d="M37.56,52.92a0.15,0.15,0,0,0,0-.3,0.15,0.15,0,0,0,0,.3h0Z"/><path class="cls-16" d="M38.87,51.94a0.15,0.15,0,0,0,0-.3,0.15,0.15,0,0,0,0,.3h0Z"/><path class="cls-16" d="M39.09,56.44a0.15,0.15,0,0,0,0-.3,0.15,0.15,0,0,0,0,.3h0Z"/><path class="cls-16" d="M35,56.44a0.15,0.15,0,0,0,0-.3,0.15,0.15,0,0,0,0,.3h0Z"/><path class="cls-16" d="M36.46,55.56a0.15,0.15,0,0,0,0-.3,0.15,0.15,0,0,0,0,.3h0Z"/><path class="cls-16" d="M34,53.91a0.15,0.15,0,0,0,0-.3,0.15,0.15,0,0,0,0,.3h0Z"/><path class="cls-16" d="M31.85,48.86a0.15,0.15,0,0,0,0-.3,0.15,0.15,0,0,0,0,.3h0Z"/><path class="cls-16" d="M30.42,56.88a0.15,0.15,0,0,0,0-.3,0.15,0.15,0,0,0,0,.3h0Z"/><path class="cls-16" d="M33.06,36.79a0.15,0.15,0,0,0,0-.3,0.15,0.15,0,0,0,0,.3h0Z"/></g><circle class="cls-17" cx="51.16" cy="11.97" r="9.72"/><text class="cls-18" transform="translate(44.68 15.78)">00</text></svg>