<svg id="Layer_1" data-name="Layer 1" xmlns="http://www.w3.org/2000/svg" viewBox="0 0 95 66.62"><defs><style>.cls-1{fill:#7f372a;}.cls-2,.cls-3{fill:#e2614b;}.cls-3{font-size:7.5px;font-family:Big John;}</style></defs><title>christmas_icons</title><path class="cls-1" d="M19.28,10.2c11-4.83,16.12-3.75,21.79-3,8.16,1.14,12.83,4.61,22.11,4.25A37.51,37.51,0,0,0,77.08,8.15l-1.43,7.59,12.12,2.13c-13.72,9.56-23.47,10.63-30,9.72-4.46-.63-7.36-2.19-13.91-2.73-8.46-.7-16.08,1.5-20.81,3Z"/><path class="cls-2" d="M19.5,10.59C25.71,8,31.68,6.52,38.4,7.32c6.46,0.77,12.43,3.38,18.82,4.3,5.23,0.76,13.16.67,17.9-2.17,2.16-1.3,1.47-1.09,1,1.43l-0.89,4.74a0.46,0.46,0,0,0,.31.55l8.4,1.47c0.45,0.08,3.48.29,3.63,0.64-0.25-.6-8.16,4.18-8.88,4.54a40.26,40.26,0,0,1-15.36,4.52c-4.43.27-8.46-.9-12.73-1.88a44.7,44.7,0,0,0-15.44-.85,60.45,60.45,0,0,0-8.74,1.78c0.18,0-3.33.94-2.88,1.27a5.13,5.13,0,0,1-.2-0.91c-1.5-2.12-1.56-7.2-2.11-9.72l-1.51-6.95c-0.12-.57-1-0.33-0.87.24L22.68,28a0.45,0.45,0,0,0,.55.31c6.72-2.1,13.61-3.53,20.69-3,5.28,0.41,10.21,2.48,15.46,2.9C69.81,29.05,79.65,23.95,88,18.26a0.46,0.46,0,0,0-.11-0.82c-3.57-.63-7.18-1.15-10.74-1.88-1.48-.31-1.31.43-0.7-1.66,0.53-1.8.71-3.78,1.06-5.62a0.46,0.46,0,0,0-.66-0.51A35.92,35.92,0,0,1,56.7,10.65c-5.27-.88-10.22-3-15.51-3.84-8-1.26-14.7-.15-22.14,3C18.52,10,19,10.81,19.5,10.59Z"/><text class="cls-3" transform="matrix(0.94, -0.25, 0.26, 0.97, 23.73, 20.5)">G</text><text class="cls-3" transform="translate(29.58 18.96) rotate(-8.12) scale(0.97 1)">R</text><text class="cls-3" transform="translate(34.94 18.21) rotate(-1.52) scale(0.97 1)">E</text><text class="cls-3" transform="matrix(0.97, 0.08, -0.09, 1, 39.24, 18.09)">E</text><text class="cls-3" transform="translate(43.5 18.4) rotate(12.92) scale(0.97 1)">N</text><text class="cls-3" transform="translate(48.99 19.84) rotate(16.53) scale(0.97 1)">V</text><text class="cls-3" transform="matrix(0.96, 0.13, -0.14, 0.99, 55.12, 21.5)">I</text><text class="cls-3" transform="translate(58.01 21.94) rotate(0.98) scale(0.97 1)">L</text><text class="cls-3" transform="matrix(0.96, -0.12, 0.13, 0.99, 62.89, 21.98)">L</text><text class="cls-3" transform="translate(67.69 21.33) rotate(-14.76) scale(0.97 1)">E</text><path class="cls-2" d="M17.55,8.37l10.94,51c0.2,0.94,1.65.54,1.45-.4L19,8c-0.2-.94-1.65-0.54-1.45.4h0Z"/></svg>