<svg id="Layer_1" data-name="Layer 1" xmlns="http://www.w3.org/2000/svg" viewBox="0 0 62.52 62.52"><defs><style>.cls-1{fill:#28403a;}.cls-2{fill:#679967;}.cls-3{fill:#406340;}.cls-4{fill:#49756a;}.cls-5{fill:#e5b000;}.cls-6{fill:#bf9300;}.cls-7{fill:#994233;}.cls-8{fill:#7f372a;}.cls-9{opacity:0.5;}.cls-10{fill:#95dd95;}.cls-11{fill:#ffecae;}.cls-12{fill:#e2614b;}.cls-13,.cls-14,.cls-15{fill:none;stroke-linecap:round;stroke-miterlimit:10;stroke-width:0.5px;}.cls-13{stroke:#e2614b;}.cls-14{stroke:#406340;}.cls-15{stroke:#bf9300;}.cls-16{font-size:10px;fill:#fff;font-family:Big John;}</style></defs><title>christmas_icons</title><path class="cls-1" d="M16.4,41.44c4.49-2.07,8-4.93,11.73-8.08,4.9-4.14,9-5.17,15.2-2.67,0.54,0.22.77-.65,0.24-0.87-4.46-1.81-8.51-2.41-12.71.26C25.61,33.41,21.73,38,15.94,40.66c-0.53.24-.07,1,0.45,0.78h0Z"/><ellipse class="cls-2" cx="48.72" cy="20.29" rx="8.14" ry="4.2" transform="translate(10.69 56.87) rotate(-66.5)"/><path class="cls-3" d="M45.25,18.84c0.94-2,2.25-4.39,4.37-5.36,5.09-2.34,3.44,6.15,2.55,8.23s-2.55,5.09-5,5.59c-4.67.94-2.64-6.52-1.83-8.56,0.21-.54-0.66-0.77-0.87-0.24-1,2.47-2.66,8.57,1.16,9.77,3.39,1.06,6.33-3.66,7.4-6.12s2.61-8.33-.9-9.75-6.48,3.59-7.61,6C44.23,18.9,45,19.36,45.25,18.84Z"/><rect class="cls-4" x="42.83" y="26.36" width="4.53" height="4.53" transform="translate(0.86 58.56) rotate(-66.5)"/><path class="cls-1" d="M46.49,31.21l-4.15-1.81L42.5,30l1.81-4.15L43.69,26l4.15,1.81-0.16-.62-1.81,4.15c-0.23.53,0.55,1,.78,0.45l1.81-4.15a0.46,0.46,0,0,0-.16-0.62l-4.15-1.81a0.46,0.46,0,0,0-.62.16l-1.81,4.15a0.46,0.46,0,0,0,.16.62L46,32C46.56,32.22,47,31.44,46.49,31.21Z"/><ellipse class="cls-5" cx="36.64" cy="40.59" rx="4.2" ry="8.14" transform="translate(-15.03 22.68) rotate(-28.81)"/><path class="cls-6" d="M39.94,38.79c0.91,1.78,3.69,9.72-1.27,8.66-2.38-.5-4.24-3.1-5.32-5.07-0.88-1.61-3.37-7.63-.05-8.69,2.8-.9,5.53,3.2,6.64,5.09a0.45,0.45,0,0,0,.78-0.45c-1.37-2.33-4.84-7.05-8.17-5.29s-1.28,7.42,0,9.8,4.83,7,8.12,5.31c3.47-1.74,1.25-7.42,0-9.82C40.45,37.82,39.68,38.28,39.94,38.79Z"/><rect class="cls-4" x="30" y="30.36" width="4.53" height="4.53" transform="translate(-11.73 19.59) rotate(-28.81)"/><path class="cls-1" d="M29.42,32.12l4-2.18-0.62-.16,2.18,4,0.16-.62-4,2.18,0.62,0.16-2.18-4a0.45,0.45,0,0,0-.78.45l2.18,4a0.46,0.46,0,0,0,.62.16l4-2.18a0.46,0.46,0,0,0,.16-0.62l-2.18-4a0.46,0.46,0,0,0-.62-0.16l-4,2.18A0.45,0.45,0,0,0,29.42,32.12Z"/><ellipse class="cls-7" cx="12.42" cy="29.97" rx="4.2" ry="8.14" transform="translate(-13.33 10.24) rotate(-30.03)"/><path class="cls-8" d="M9.17,31.84c-1-1.89-3.9-9.54,1.07-8.7,2.36,0.4,4.35,3.07,5.43,4.95,1,1.71,3.3,7,.59,8.54s-6-3-7.1-4.78a0.45,0.45,0,0,0-.78.45c1.42,2.3,4.82,6.77,8.1,5.2,3.54-1.69,1.32-7.5,0-9.87s-4.64-6.48-7.88-5.3c-3.92,1.42-1.44,7.62-.18,10A0.45,0.45,0,0,0,9.17,31.84Z"/><rect class="cls-4" x="14.71" y="35.57" width="4.53" height="4.53" transform="matrix(0.87, -0.5, 0.5, 0.87, -16.66, 13.57)"/><path class="cls-1" d="M19.84,38.28l-3.92,2.27,0.62,0.16-2.27-3.92-0.16.62L18,35.13,17.41,35l2.27,3.92a0.45,0.45,0,0,0,.78-0.45l-2.27-3.92a0.46,0.46,0,0,0-.62-0.16l-3.92,2.27a0.46,0.46,0,0,0-.16.62l2.27,3.92a0.46,0.46,0,0,0,.62.16l3.92-2.27A0.45,0.45,0,0,0,19.84,38.28Z"/><g class="cls-9"><g class="cls-9"><path class="cls-10" d="M50.23,13.55a0.3,0.3,0,0,0,0-.6,0.3,0.3,0,0,0,0,.6h0Z"/></g><g class="cls-9"><path class="cls-10" d="M50.71,20.53a0.3,0.3,0,0,0,0-.6,0.3,0.3,0,0,0,0,.6h0Z"/></g><g class="cls-9"><path class="cls-10" d="M51.66,22.8a0.3,0.3,0,0,0,0-.6,0.3,0.3,0,0,0,0,.6h0Z"/></g><g class="cls-9"><path class="cls-10" d="M48.1,21.65a0.3,0.3,0,0,0,0-.6,0.3,0.3,0,0,0,0,.6h0Z"/></g><g class="cls-9"><path class="cls-10" d="M52.22,17.44a0.3,0.3,0,0,0,0-.6,0.3,0.3,0,0,0,0,.6h0Z"/></g><g class="cls-9"><path class="cls-10" d="M47.45,25.53a0.3,0.3,0,0,0,0-.6,0.3,0.3,0,0,0,0,.6h0Z"/></g><g class="cls-9"><path class="cls-10" d="M48,16.56a0.3,0.3,0,0,0,0-.6,0.3,0.3,0,0,0,0,.6h0Z"/></g><g class="cls-9"><path class="cls-10" d="M50.23,14.92a0.15,0.15,0,0,0,0-.3,0.15,0.15,0,0,0,0,.3h0Z"/></g><g class="cls-9"><path class="cls-10" d="M50.71,21.9a0.15,0.15,0,0,0,0-.3,0.15,0.15,0,0,0,0,.3h0Z"/></g><g class="cls-9"><path class="cls-10" d="M51.66,24.16a0.15,0.15,0,0,0,0-.3,0.15,0.15,0,0,0,0,.3h0Z"/></g><g class="cls-9"><path class="cls-10" d="M48.1,23a0.15,0.15,0,0,0,0-.3,0.15,0.15,0,0,0,0,.3h0Z"/></g><g class="cls-9"><path class="cls-10" d="M52.22,18.81a0.15,0.15,0,0,0,0-.3,0.15,0.15,0,0,0,0,.3h0Z"/></g><g class="cls-9"><path class="cls-10" d="M47.45,26.9a0.15,0.15,0,0,0,0-.3,0.15,0.15,0,0,0,0,.3h0Z"/></g><g class="cls-9"><path class="cls-10" d="M48,17.93a0.15,0.15,0,0,0,0-.3,0.15,0.15,0,0,0,0,.3h0Z"/></g></g><g class="cls-9"><g class="cls-9"><path class="cls-11" d="M35.88,41.44a0.3,0.3,0,0,0,0-.6,0.3,0.3,0,0,0,0,.6h0Z"/><path class="cls-11" d="M33.79,38.59a0.3,0.3,0,0,0,0-.6,0.3,0.3,0,0,0,0,.6h0Z"/><path class="cls-11" d="M32.84,36.89a0.3,0.3,0,0,0,0-.6,0.3,0.3,0,0,0,0,.6h0Z"/><path class="cls-11" d="M34.55,43.14a0.3,0.3,0,0,0,0-.6,0.3,0.3,0,0,0,0,.6h0Z"/><path class="cls-11" d="M38,46.18a0.3,0.3,0,0,0,0-.6,0.3,0.3,0,0,0,0,.6h0Z"/><path class="cls-11" d="M40.24,45.42a0.3,0.3,0,0,0,0-.6,0.3,0.3,0,0,0,0,.6h0Z"/></g><g class="cls-9"><path class="cls-11" d="M35.88,39.77a0.15,0.15,0,0,0,0-.3,0.15,0.15,0,0,0,0,.3h0Z"/></g><g class="cls-9"><path class="cls-11" d="M33.79,36.93a0.15,0.15,0,0,0,0-.3,0.15,0.15,0,0,0,0,.3h0Z"/></g><g class="cls-9"><path class="cls-11" d="M32.84,35.22a0.15,0.15,0,0,0,0-.3,0.15,0.15,0,0,0,0,.3h0Z"/></g><g class="cls-9"><path class="cls-11" d="M34.55,41.48a0.15,0.15,0,0,0,0-.3,0.15,0.15,0,0,0,0,.3h0Z"/></g><g class="cls-9"><path class="cls-11" d="M38,44.51a0.15,0.15,0,0,0,0-.3,0.15,0.15,0,0,0,0,.3h0Z"/></g><g class="cls-9"><path class="cls-11" d="M40.24,43.75a0.15,0.15,0,0,0,0-.3,0.15,0.15,0,0,0,0,.3h0Z"/></g></g><g class="cls-9"><path class="cls-12" d="M15.59,28.74a0.3,0.3,0,0,0,0-.6,0.3,0.3,0,0,0,0,.6h0Z"/><path class="cls-12" d="M15.78,32.15a0.3,0.3,0,0,0,0-.6,0.3,0.3,0,0,0,0,.6h0Z"/><path class="cls-12" d="M12.75,29.12a0.3,0.3,0,0,0,0-.6,0.3,0.3,0,0,0,0,.6h0Z"/><path class="cls-12" d="M8.39,24.94a0.3,0.3,0,0,0,0-.6,0.3,0.3,0,0,0,0,.6h0Z"/><path class="cls-12" d="M10.85,25.13a0.3,0.3,0,0,0,0-.6,0.3,0.3,0,0,0,0,.6h0Z"/><path class="cls-12" d="M16.92,34.23a0.3,0.3,0,0,0,0-.6,0.3,0.3,0,0,0,0,.6h0Z"/><path class="cls-12" d="M12.56,26.65a0.3,0.3,0,0,0,0-.6,0.3,0.3,0,0,0,0,.6h0Z"/><path class="cls-12" d="M14.06,28.53a0.15,0.15,0,0,0,0-.3,0.15,0.15,0,0,0,0,.3h0Z"/><path class="cls-12" d="M14.31,31.94a0.15,0.15,0,0,0,0-.3,0.15,0.15,0,0,0,0,.3h0Z"/><path class="cls-12" d="M11.22,29a0.15,0.15,0,0,0,0-.3,0.15,0.15,0,0,0,0,.3h0Z"/><path class="cls-12" d="M9.81,23.36a0.15,0.15,0,0,0,0-.3,0.15,0.15,0,0,0,0,.3h0Z"/><path class="cls-12" d="M9.25,25a0.15,0.15,0,0,0,0-.3,0.15,0.15,0,0,0,0,.3h0Z"/><path class="cls-12" d="M15.49,34a0.15,0.15,0,0,0,0-.3,0.15,0.15,0,0,0,0,.3h0Z"/><path class="cls-12" d="M11,26.5a0.15,0.15,0,0,0,0-.3,0.15,0.15,0,0,0,0,.3h0Z"/><path class="cls-12" d="M12.85,24.88a0.15,0.15,0,0,0,0-.3,0.15,0.15,0,0,0,0,.3h0Z"/></g><line class="cls-13" x1="6.58" y1="32.97" x2="3.66" y2="34.22"/><line class="cls-13" x1="3.81" y1="25.07" x2="0.58" y2="24.44"/><line class="cls-13" x1="7.88" y1="20.78" x2="6.9" y2="17.78"/><line class="cls-13" x1="18.81" y1="26.55" x2="21.11" y2="24.87"/><line class="cls-13" x1="15.11" y1="21.21" x2="16.76" y2="18.66"/><line class="cls-14" x1="43" y1="16.78" x2="40.44" y2="14.91"/><line class="cls-14" x1="48.38" y1="10.37" x2="47.28" y2="7.27"/><line class="cls-14" x1="54.15" y1="11.68" x2="56.24" y2="9.31"/><line class="cls-14" x1="54.77" y1="24.03" x2="57.38" y2="25.15"/><line class="cls-14" x1="57.47" y1="18.12" x2="60.51" y2="18.24"/><line class="cls-15" x1="43.12" y1="38.2" x2="46" y2="36.85"/><line class="cls-15" x1="46.15" y1="46" x2="49.4" y2="46.52"/><line class="cls-15" x1="42.23" y1="50.42" x2="43.3" y2="53.39"/><line class="cls-15" x1="31.11" y1="45.02" x2="28.87" y2="46.78"/><line class="cls-15" x1="34.98" y1="50.23" x2="33.42" y2="52.84"/><circle class="cls-12" cx="50.71" cy="11.14" r="9.72"/><text class="cls-16" transform="translate(44.23 14.95)">00</text></svg>