<?xml version="1.0" encoding="utf-8"?>
<!-- Generator: Adobe Illustrator 19.2.1, SVG Export Plug-In . SVG Version: 6.00 Build 0)  -->
<svg version="1.1" id="Layer_1" xmlns="http://www.w3.org/2000/svg" xmlns:xlink="http://www.w3.org/1999/xlink" x="0px" y="0px"
	 viewBox="0 0 63.2 63.9" style="enable-background:new 0 0 63.2 63.9;" xml:space="preserve">
<style type="text/css">
	.st0{fill:#E5B000;}
	.st1{fill:#BF9300;}
	.st2{opacity:0.3;fill:#BF9300;enable-background:new    ;}
	.st3{opacity:0.5;}
	.st4{fill:#DDC276;}
</style>
<title>christmas_icons</title>
<g>
	<polygon class="st0" points="37.8,40 54.2,41.2 54,41.1 54.1,41.1 44.5,34 40.5,31 46.7,13.9 32,24.7 18.4,14.5 24.1,29.8 10,39.7 
		27.7,39.1 32,56.5 	"/>
	<path class="st1" d="M37.8,40.6l16.4,1.2c0.6,0,0.7-0.8,0.3-1.1l-0.1-0.1L54,41.7h0.1c0.3,0,0.6-0.3,0.6-0.6c0-0.2-0.1-0.4-0.3-0.5
		l-7.8-5.7l-2.3-1.7l-2.1-1.6c-0.3-0.2-0.7-0.5-1-0.8c-0.5-0.6-0.1,0.3-0.1,0.3c-0.1-0.8,0.8-2.2,1.1-3l2.1-5.8l3-8.2
		c0.1-0.3-0.1-0.6-0.5-0.7c-0.1,0-0.3,0-0.4,0l-6.7,4.9L34.6,22c-0.7,0.5-2,1.9-2.8,2.1c0.2,0,0.7,0.1,0.1-0.3
		c-0.5-0.3-0.9-0.6-1.4-1l-4.7-3.5L18.7,14c-0.3-0.2-0.7,0-0.8,0.2c-0.1,0.1-0.1,0.3-0.1,0.4l2.9,7.6l2,5.2c0.2,0.6,0.4,1.2,0.7,1.7
		c0.3,0.7,0.1,0.7,0.4,0.1c-0.4,0.7-2,1.4-2.6,1.8l-4.7,3.3l-6.8,4.7c-0.3,0.2-0.4,0.5-0.2,0.8c0.1,0.2,0.3,0.3,0.5,0.3l8.5-0.3
		l6-0.2c0.5,0,3.3,0,2.9-0.3c-0.4-0.3,0.3,2.1,0.4,2.6l1.4,5.8l2.1,8.7c0.1,0.3,0.4,0.5,0.7,0.4c0.2-0.1,0.3-0.2,0.4-0.4l5.8-16.5
		c0.3-0.7-0.9-1-1.1-0.3l-5.8,16.5h1.1l-4.3-17.4c-0.1-0.3-0.3-0.4-0.6-0.4L10,39.1l0.3,1.1l14.2-10c0.2-0.1,0.3-0.4,0.3-0.7
		l-5.8-15.2L18.1,15l13.7,10.2c0.2,0.1,0.4,0.1,0.6,0L47,14.4l-0.9-0.7L40,30.8c-0.1,0.3,0,0.5,0.3,0.7c4.5,3.4,9,6.7,13.6,10.1
		l0.3-1.1H54c-0.3,0-0.6,0.3-0.6,0.6c0,0.2,0.1,0.4,0.3,0.5l0.1,0.1l0.3-1.1l-16.3-1.2C37,39.3,37,40.5,37.8,40.6z"/>
	<polygon class="st0" points="40.9,35.7 54.7,26.8 54.5,26.8 54.6,26.8 42.6,26.8 37.7,26.8 32.4,9.4 27.1,26.8 10.1,26.8 
		23.8,35.7 18.4,52.2 32.3,41.2 46.1,52.5 	"/>
	<path class="st1" d="M41,36.2l13.9-8.8c0.2-0.1,0.2-0.3,0.1-0.5c-0.1-0.1-0.2-0.2-0.3-0.2l0,0.6c0.2-0.1,0.2-0.3,0.1-0.5
		c-0.1-0.1-0.2-0.2-0.3-0.2h-9.6h-5.6c-0.5,0-1.8-0.1-1.4,0.2c-0.5-0.4-0.7-2.4-0.9-3.1l-1.8-5.9l-2.5-8.3c0-0.2-0.2-0.3-0.4-0.3
		c-0.1,0-0.2,0.1-0.3,0.3l-2.4,8l-1.8,6c-0.2,0.7-0.5,2.8-1,3.3c0.4-0.4-1.3-0.2-1.9-0.2H10.1c-0.2,0-0.4,0.2-0.4,0.3
		c0,0.1,0.1,0.2,0.2,0.3l6.9,4.4l4.7,3c0.5,0.3,1.1,0.6,1.6,1c0.5,0.4,0.5,0.4,0.4,0.1c0.1,0.7-0.8,2.3-1,3l-1.8,5.4L18,52.1
		c-0.1,0.2,0.1,0.4,0.2,0.4c0.1,0,0.3,0,0.3-0.1l6.7-5.3l4.7-3.8c0.8-0.6,1.6-1.3,2.3-2c-0.3,0,1.7,1.6,2,1.8l4.6,3.8l6.9,5.6
		c0.1,0.1,0.4,0.2,0.5,0c0.1-0.1,0.1-0.2,0.1-0.3l-5.2-16.7c-0.1-0.2-0.2-0.3-0.4-0.2c-0.2,0.1-0.3,0.2-0.2,0.4l0,0l2.6,8.3l1.8,5.7
		c0.1,0.6,0.3,1.2,0.6,1.8c0.1,0.1,0.1,0.4,0.2,0.5c0.4,0.7-0.3-1.1,0.6-0.1C42.4,48,37,44.6,32.5,40.9c-0.1-0.1-0.4-0.1-0.5,0
		l-6.6,5.3c-2.3,1.8-5.2,3.6-7.2,5.7c0.2-0.2,0.3,0.4,0.8-0.3c0.2-0.5,0.4-1.1,0.5-1.7l1.8-5.5l2.8-8.6c0-0.2,0-0.3-0.2-0.4
		l-6.9-4.4l-4.7-3c-0.5-0.4-1-0.7-1.6-1c-1.1-0.4,0.1,0.3-0.7,0.3c5.6,0.4,11.4,0,17,0c0.2,0,0.3-0.1,0.3-0.3l2.5-8.3
		c0.3-1,2.8-9,2.5-9c-0.6,0,0.4,2.3,0.5,2.8l1.7,5.8l2.7,8.7c0,0.2,0.2,0.3,0.3,0.3h7.3h5.9c0.8,0.1,1.7,0.1,2.5,0
		c0.3,0,0.5,0,0.8,0c0.8,0-0.6,0,0.2-0.6c-0.2,0.1-0.2,0.3-0.1,0.5c0.1,0.1,0.2,0.2,0.3,0.2c-0.8,0,0.7-0.7-0.6-0.3
		c-0.6,0.3-1.1,0.6-1.6,1l-4.7,3l-6.9,4.4c-0.2,0.1-0.2,0.3-0.1,0.5S40.9,36.3,41,36.2L41,36.2z"/>
	<polygon class="st0" points="37.8,40 54.2,41.2 54,41.1 54.1,41.1 44.5,34 40.5,31 46.7,13.9 32,24.7 18.4,14.5 24.1,29.8 10,39.7 
		27.7,39.1 32,56.5 	"/>
	<polygon class="st2" points="32.4,9.6 32,32.8 32,56.5 28.8,43.6 19.3,51 23,39.3 10,39.7 19.8,32.8 11.5,27.5 23.2,27.4 
		18.4,14.5 28.8,22.3 	"/>
	<g class="st3">
		<path class="st4" d="M34.1,24.8c0.3,0,0.6-0.3,0.6-0.6s-0.3-0.6-0.6-0.6s-0.6,0.3-0.6,0.6S33.8,24.8,34.1,24.8L34.1,24.8z"/>
		<path class="st4" d="M39.8,23.5c0.3,0,0.6-0.3,0.6-0.6s-0.3-0.6-0.6-0.6c-0.3,0-0.6,0.3-0.6,0.6S39.4,23.5,39.8,23.5L39.8,23.5z"
			/>
		<path class="st4" d="M42.8,20.1c0.3,0,0.6-0.3,0.6-0.6c0-0.3-0.3-0.6-0.6-0.6s-0.6,0.3-0.6,0.6C42.2,19.8,42.5,20.1,42.8,20.1
			L42.8,20.1z"/>
		<path class="st4" d="M37,29.6c0.3,0,0.6-0.3,0.6-0.6c0-0.3-0.3-0.6-0.6-0.6s-0.6,0.3-0.6,0.6C36.5,29.3,36.7,29.6,37,29.6L37,29.6
			z"/>
		<path class="st4" d="M43.9,31.9c0.3,0,0.6-0.3,0.6-0.6c0-0.3-0.3-0.6-0.6-0.6c-0.3,0-0.6,0.3-0.6,0.6
			C43.3,31.7,43.6,31.9,43.9,31.9L43.9,31.9z"/>
		<path class="st4" d="M46.3,29.5c0.3,0,0.6-0.3,0.6-0.6c0-0.3-0.3-0.6-0.6-0.6s-0.6,0.3-0.6,0.6C45.7,29.2,46,29.5,46.3,29.5
			L46.3,29.5z"/>
		<path class="st4" d="M39.3,33.8c0.3,0,0.6-0.3,0.6-0.6c0-0.3-0.3-0.6-0.6-0.6c-0.3,0-0.6,0.3-0.6,0.6
			C38.7,33.5,38.9,33.8,39.3,33.8L39.3,33.8z"/>
		<path class="st4" d="M38.7,36.8c0.3,0,0.6-0.3,0.6-0.6c0-0.3-0.3-0.6-0.6-0.6s-0.6,0.3-0.6,0.6C38.1,36.5,38.4,36.8,38.7,36.8
			L38.7,36.8z"/>
		<path class="st4" d="M39.4,41.3c0.3,0,0.6-0.3,0.6-0.6c0-0.3-0.3-0.6-0.6-0.6s-0.6,0.3-0.6,0.6C38.8,41.1,39.1,41.3,39.4,41.3
			L39.4,41.3z"/>
		<path class="st4" d="M35.6,40.4c0.3,0,0.6-0.3,0.6-0.6s-0.3-0.6-0.6-0.6S35,39.5,35,39.8S35.3,40.4,35.6,40.4L35.6,40.4z"/>
		<path class="st4" d="M42.5,39.5c0.3,0,0.6-0.3,0.6-0.6c0-0.3-0.3-0.6-0.6-0.6s-0.6,0.3-0.6,0.6C41.9,39.2,42.2,39.5,42.5,39.5
			L42.5,39.5z"/>
		<path class="st4" d="M45.4,36.4c0.3,0,0.6-0.3,0.6-0.6c0-0.3-0.3-0.6-0.6-0.6c-0.3,0-0.6,0.3-0.6,0.6
			C44.9,36.2,45.1,36.4,45.4,36.4L45.4,36.4z"/>
		<path class="st4" d="M50.9,40.7c0.3,0,0.6-0.3,0.6-0.6s-0.3-0.6-0.6-0.6s-0.6,0.3-0.6,0.6S50.5,40.7,50.9,40.7L50.9,40.7
			L50.9,40.7z"/>
		<path class="st4" d="M41.6,43.1c0.3,0,0.6-0.3,0.6-0.6s-0.3-0.6-0.6-0.6c-0.3,0-0.6,0.3-0.6,0.6S41.3,43.1,41.6,43.1L41.6,43.1z"
			/>
		<path class="st4" d="M42.3,47.6c0.3,0,0.6-0.3,0.6-0.6s-0.3-0.6-0.6-0.6c-0.3,0-0.6,0.3-0.6,0.6S42,47.6,42.3,47.6L42.3,47.6z"/>
		<path class="st4" d="M36.8,43.4c0.3,0,0.6-0.3,0.6-0.6c0-0.3-0.3-0.6-0.6-0.6s-0.6,0.3-0.6,0.6C36.2,43.1,36.4,43.4,36.8,43.4
			L36.8,43.4z"/>
		<path class="st4" d="M34,47.4c0.3,0,0.6-0.3,0.6-0.6c0-0.3-0.3-0.6-0.6-0.6c-0.3,0-0.6,0.3-0.6,0.6C33.4,47.1,33.7,47.4,34,47.4
			L34,47.4z"/>
		<path class="st4" d="M33.1,18.1c0.3,0,0.6-0.3,0.6-0.6S33.4,17,33.1,17c-0.3,0-0.6,0.3-0.6,0.6S32.8,18.1,33.1,18.1L33.1,18.1z"/>
		<path class="st4" d="M36.8,25.7c0.3,0,0.6-0.3,0.6-0.6s-0.3-0.6-0.6-0.6c-0.3,0-0.6,0.3-0.6,0.6S36.5,25.7,36.8,25.7L36.8,25.7z"
			/>
	</g>
	<g class="st3">
		<path class="st4" d="M32.5,22.2c0.2,0,0.4-0.2,0.4-0.4c0-0.2-0.2-0.4-0.4-0.4c-0.2,0-0.4,0.2-0.4,0.4C32.2,22,32.3,22.2,32.5,22.2
			L32.5,22.2z"/>
		<path class="st4" d="M38.2,22.5c0.2,0,0.4-0.2,0.4-0.4c0-0.2-0.2-0.4-0.4-0.4c-0.2,0-0.4,0.2-0.4,0.4C37.8,22.3,38,22.5,38.2,22.5
			L38.2,22.5z"/>
		<path class="st4" d="M41.2,19c0.2,0,0.4-0.2,0.4-0.4c0-0.2-0.2-0.4-0.4-0.4c-0.2,0-0.4,0.2-0.4,0.4C40.9,18.9,41,19,41.2,19
			L41.2,19z"/>
		<path class="st4" d="M35.5,28.6c0.2,0,0.4-0.2,0.4-0.4c0-0.2-0.2-0.4-0.4-0.4c-0.2,0-0.4,0.2-0.4,0.4
			C35.1,28.4,35.3,28.6,35.5,28.6L35.5,28.6z"/>
		<path class="st4" d="M40.8,29.4c0.2,0,0.4-0.2,0.4-0.4c0-0.2-0.2-0.4-0.4-0.4c-0.2,0-0.4,0.2-0.4,0.4
			C40.4,29.2,40.6,29.4,40.8,29.4L40.8,29.4z"/>
		<path class="st4" d="M44.7,28.5c0.2,0,0.4-0.2,0.4-0.4c0-0.2-0.2-0.4-0.4-0.4c-0.2,0-0.4,0.2-0.4,0.4
			C44.4,28.3,44.6,28.5,44.7,28.5L44.7,28.5z"/>
		<path class="st4" d="M40.8,33.5c0.2,0,0.4-0.2,0.4-0.4c0-0.2-0.2-0.4-0.4-0.4c-0.2,0-0.4,0.2-0.4,0.4
			C40.5,33.4,40.6,33.5,40.8,33.5L40.8,33.5z"/>
		<path class="st4" d="M36.4,32.6c0.2,0,0.4-0.2,0.4-0.4c0-0.2-0.2-0.4-0.4-0.4c-0.2,0-0.4,0.2-0.4,0.4C36,32.5,36.2,32.6,36.4,32.6
			L36.4,32.6z"/>
		<path class="st4" d="M37,39.5c0.2,0,0.4-0.2,0.4-0.4s-0.2-0.4-0.4-0.4s-0.4,0.2-0.4,0.4S36.8,39.5,37,39.5L37,39.5z"/>
		<path class="st4" d="M34.8,37c0.2,0,0.4-0.2,0.4-0.4s-0.2-0.4-0.4-0.4l0,0c-0.2,0-0.4,0.2-0.4,0.4S34.6,37,34.8,37L34.8,37z"/>
		<path class="st4" d="M43.3,36.9c0.2,0,0.4-0.2,0.4-0.4c0-0.2-0.2-0.4-0.4-0.4c-0.2,0-0.4,0.2-0.4,0.4C43,36.7,43.1,36.9,43.3,36.9
			L43.3,36.9z"/>
		<path class="st4" d="M46.2,38.6c0.2,0,0.4-0.2,0.4-0.4c0-0.2-0.2-0.4-0.4-0.4s-0.4,0.2-0.4,0.4C45.9,38.4,46,38.6,46.2,38.6
			L46.2,38.6z"/>
		<path class="st4" d="M49.3,39.7c0.2,0,0.4-0.2,0.4-0.4c0-0.2-0.2-0.4-0.4-0.4c-0.2,0-0.4,0.2-0.4,0.4
			C48.9,39.5,49.1,39.7,49.3,39.7L49.3,39.7L49.3,39.7z"/>
		<path class="st4" d="M39.3,44.4c0.2,0,0.4-0.2,0.4-0.4c0-0.2-0.2-0.4-0.4-0.4c-0.2,0-0.4,0.2-0.4,0.4
			C38.9,44.2,39.1,44.4,39.3,44.4L39.3,44.4z"/>
		<path class="st4" d="M40.7,46.6c0.2,0,0.4-0.2,0.4-0.4c0-0.2-0.2-0.4-0.4-0.4s-0.4,0.2-0.4,0.4C40.4,46.4,40.5,46.6,40.7,46.6
			L40.7,46.6z"/>
		<path class="st4" d="M33.6,43.9c0.2,0,0.4-0.2,0.4-0.4c0-0.2-0.2-0.4-0.4-0.4c-0.2,0-0.4,0.2-0.4,0.4
			C33.3,43.7,33.4,43.9,33.6,43.9L33.6,43.9z"/>
		<path class="st4" d="M33.2,49.5c0.2,0,0.4-0.2,0.4-0.4c0-0.2-0.2-0.4-0.4-0.4s-0.4,0.2-0.4,0.4C32.9,49.4,33,49.5,33.2,49.5
			L33.2,49.5z"/>
		<path class="st4" d="M33.1,16.3c0.2,0,0.4-0.2,0.4-0.4c0-0.2-0.2-0.4-0.4-0.4c-0.2,0-0.4,0.2-0.4,0.4
			C32.8,16.2,32.9,16.3,33.1,16.3L33.1,16.3z"/>
		<path class="st4" d="M39.2,26.2c0.2,0,0.4-0.2,0.4-0.4c0-0.2-0.2-0.4-0.4-0.4c-0.2,0-0.4,0.2-0.4,0.4C38.8,26.1,39,26.2,39.2,26.2
			L39.2,26.2z"/>
	</g>
</g>
</svg>
