<svg id="Layer_1" data-name="Layer 1" xmlns="http://www.w3.org/2000/svg" viewBox="0 0 56.5 56.5"><defs><style>.cls-1{fill:#fff;}.cls-2{fill:#e2614b;}.cls-3{fill:#7f372a;}</style></defs><title>christmas_icons</title><rect class="cls-1" x="1.33" y="1.38" width="54" height="54"/><path class="cls-2" d="M55.33,54.93H8.14c-1.53,0-5.26.73-6.66,0,0.18,0.09.44,0.66,0.29-.39a26.43,26.43,0,0,1,0-3.44V9.63c0-2.24-.65-5.6,0-7.76,0.29-1-.86.24-0.07,0a10.1,10.1,0,0,1,2.82,0h41c2.9,0,6.06-.37,8.94,0,0.93,0.12.6,0,.39-0.35a7.32,7.32,0,0,1,0,2.39V55.38a0.45,0.45,0,0,0,.9,0v-54A0.46,0.46,0,0,0,55.33.93h-54a0.46,0.46,0,0,0-.45.45v54a0.46,0.46,0,0,0,.45.45h54A0.45,0.45,0,0,0,55.33,54.93Z"/><rect class="cls-3" x="1.33" y="1.38" width="54" height="13.74"/><path class="cls-2" d="M55.33,14.67H11.11c-2.15,0-7.69,1.06-9.63,0,0,0,.53.61,0.29-0.31a17.22,17.22,0,0,1,0-3.7c0-2.56-.65-6,0-8.51C1.95,1.49.9,1.77,2.64,1.83s3.45,0,5.17,0H51.6c0.8,0,2.85-.39,3.57,0-0.43-.23-0.27-0.19-0.29.86,0,1.53,0,3.06,0,4.59v7.84a0.45,0.45,0,0,0,.9,0V1.38A0.46,0.46,0,0,0,55.33.93h-54a0.46,0.46,0,0,0-.45.45V15.12a0.46,0.46,0,0,0,.45.45h54A0.45,0.45,0,0,0,55.33,14.67Z"/><path class="cls-2" d="M8,15.12V55.38a0.45,0.45,0,0,0,.9,0V15.12a0.45,0.45,0,0,0-.9,0H8Z"/><path class="cls-2" d="M16.08,15.12V55.38a0.45,0.45,0,0,0,.9,0V15.12a0.45,0.45,0,0,0-.9,0h0Z"/><path class="cls-2" d="M24.18,15.12V55.38a0.45,0.45,0,0,0,.9,0V15.12a0.45,0.45,0,0,0-.9,0h0Z"/><path class="cls-2" d="M32.28,15.12V55.38a0.45,0.45,0,0,0,.9,0V15.12a0.45,0.45,0,0,0-.9,0h0Z"/><path class="cls-2" d="M40.38,15.12V55.38a0.45,0.45,0,0,0,.9,0V15.12a0.45,0.45,0,0,0-.9,0h0Z"/><path class="cls-2" d="M48.48,15.12V55.38a0.45,0.45,0,0,0,.9,0V15.12a0.45,0.45,0,0,0-.9,0h0Z"/><path class="cls-2" d="M1.33,22.67h54a0.45,0.45,0,0,0,0-.9h-54a0.45,0.45,0,0,0,0,.9h0Z"/><path class="cls-2" d="M1.33,31.44h54a0.45,0.45,0,0,0,0-.9h-54a0.45,0.45,0,0,0,0,.9h0Z"/><path class="cls-2" d="M1.33,40.2h54a0.45,0.45,0,0,0,0-.9h-54a0.45,0.45,0,0,0,0,.9h0Z"/><path class="cls-2" d="M1.33,49h54a0.45,0.45,0,0,0,0-.9h-54a0.45,0.45,0,0,0,0,.9h0Z"/><circle class="cls-2" cx="4.74" cy="4.47" r="1.57"/><circle class="cls-2" cx="51.75" cy="4.47" r="1.57"/></svg>