<svg id="Layer_1" data-name="Layer 1" xmlns="http://www.w3.org/2000/svg" viewBox="0 0 95 95"><defs><style>.cls-1,.cls-4{fill:#fff;}.cls-2{fill:#7f372a;}.cls-3{fill:#994233;}.cls-4{stroke:#fff;stroke-linecap:round;stroke-linejoin:round;stroke-width:0.3px;}.cls-5{opacity:0.5;}.cls-6{fill:#e2614b;}.cls-7{fill:#ddc276;}</style></defs><title>christmas_icons</title><path class="cls-1" d="M23.8,73.45c8.87-3.56,15.78-4.27,25.08-1.72,8.54,2.34,15.81,2.23,23.88-2a0.75,0.75,0,0,0-.76-1.3c-5,2.62-10.67,4.21-16.3,3.38-4.33-.64-8.44-2.3-12.76-3C36,67.73,29.89,69.4,23.4,72c-0.88.36-.5,1.81,0.4,1.45h0Z"/><path class="cls-2" d="M25.61,53.49L37.41,44l7.81-6.27a20.33,20.33,0,0,0,2.88-2.31c0.33-.39,1.58-0.86.57-0.86s0.24,0.46.58,0.86a18.45,18.45,0,0,0,2.61,2.08L60,44l11.86,9.46c0.75,0.6,1.82-.46,1.06-1.06L49.2,33.5a0.78,0.78,0,0,0-1.06,0L24.55,52.43c-0.75.6,0.31,1.66,1.06,1.06h0Z"/><polygon class="cls-2" points="32.15 46.92 32.15 38.72 39.15 38.72 39.15 41.7 32.15 46.92"/><path class="cls-2" d="M33.32,46.93V38.61l-0.75.75H39.2l-0.75-.75c0,1,0,2,0,3,0-.6.36-0.5-0.27-0.1-0.43.28-.83,0.65-1.23,1L32,46.39c-0.76.6,0.31,1.65,1.06,1.06l5.35-4.21A3.41,3.41,0,0,0,40,41.7a13.66,13.66,0,0,0,0-3.09,0.76,0.76,0,0,0-.75-0.75H32.57a0.76,0.76,0,0,0-.75.75v8.32A0.75,0.75,0,0,0,33.32,46.93Z"/><path class="cls-3" d="M37,65.23A41.08,41.08,0,0,1,48.6,67.06s6.32,1.75,8.93,1.82a28,28,0,0,0,9.62-1.3V53.31L48.76,39,30.15,53.59V66.54A24.81,24.81,0,0,1,37,65.23Z"/><path class="cls-2" d="M36.93,66c5.56,0,10.7,1.8,16.06,2.95a28.87,28.87,0,0,0,14.27-.63,0.76,0.76,0,0,0,.55-0.72V56.72c0-2.42.34-3.17-1.22-4.71C61.45,46.92,54.71,42.83,49,38.4a0.76,0.76,0,0,0-.91.12L31,51.81c-1.82,1.42-1.83,1.48-1.83,3.81V66.54a0.76,0.76,0,0,0,.95.72A34.9,34.9,0,0,1,36.93,66c1-.06,1-1.56,0-1.5s-6.88,1.38-6.26,1.83c-0.44-.32,0-4.82,0-5.28,0-1.9.14-3.86,0-5.76a4.87,4.87,0,0,1,0-1.59c-0.24.54,0,.4,0.28,0,2.13-2.54,5.84-4.55,8.45-6.58,3-2.3,6.09-4.48,8.92-6.94,1.15-1-.13-0.48.29-0.22,1.15,0.74,2.2,1.7,3.28,2.53l10.48,8.09c1.16,0.89,2.37,1.74,3.48,2.69s0.47-.46.47,1.25c0,3.58.73,8,0,11.46-0.27,1.3.23,0.84-.59,1.39-1.17.79-5.05,0.7-6.48,0.73a28.07,28.07,0,0,1-7-.92c-5.08-1.18-10-2.75-15.29-2.74A0.75,0.75,0,0,0,36.93,66Z"/><path class="cls-1" d="M20.71,58.14a0.45,0.45,0,0,0,0-.9,0.45,0.45,0,0,0,0,.9h0Z"/><path class="cls-1" d="M28.19,43.17a0.45,0.45,0,0,0,0-.9,0.45,0.45,0,0,0,0,.9h0Z"/><path class="cls-1" d="M19,38.08a0.45,0.45,0,0,0,0-.9,0.45,0.45,0,0,0,0,.9h0Z"/><path class="cls-1" d="M47,27.64a0.45,0.45,0,0,0,0-.9,0.45,0.45,0,0,0,0,.9h0Z"/><path class="cls-1" d="M60.39,24.25a0.45,0.45,0,0,0,0-.9,0.45,0.45,0,0,0,0,.9h0Z"/><path class="cls-1" d="M63.92,37.38a0.45,0.45,0,0,0,0-.9,0.45,0.45,0,0,0,0,.9h0Z"/><path class="cls-1" d="M75.78,39.5a0.45,0.45,0,0,0,0-.9,0.45,0.45,0,0,0,0,.9h0Z"/><path class="cls-1" d="M73.52,61.39a0.45,0.45,0,0,0,0-.9,0.45,0.45,0,0,0,0,.9h0Z"/><path class="cls-1" d="M25.64,63.61a0.3,0.3,0,0,0,0-.6,0.3,0.3,0,0,0,0,.6h0Z"/><path class="cls-1" d="M26.5,36.7a0.3,0.3,0,0,0,0-.6,0.3,0.3,0,0,0,0,.6h0Z"/><path class="cls-1" d="M18.64,43.55a0.3,0.3,0,0,0,0-.6,0.3,0.3,0,0,0,0,.6h0Z"/><path class="cls-1" d="M44,33.1a0.3,0.3,0,0,0,0-.6,0.3,0.3,0,0,0,0,.6h0Z"/><path class="cls-1" d="M60,31a0.3,0.3,0,0,0,0-.6,0.3,0.3,0,0,0,0,.6h0Z"/><path class="cls-1" d="M70.18,34.89a0.3,0.3,0,0,0,0-.6,0.3,0.3,0,0,0,0,.6h0Z"/><path class="cls-1" d="M70.11,46.29a0.3,0.3,0,0,0,0-.6,0.3,0.3,0,0,0,0,.6h0Z"/><path class="cls-1" d="M70.5,64.2a0.3,0.3,0,0,0,0-.6,0.3,0.3,0,0,0,0,.6h0Z"/><circle class="cls-4" cx="33.31" cy="31.52" r="2.85"/><circle class="cls-4" cx="37.33" cy="32.11" r="2.25"/><circle class="cls-4" cx="36.48" cy="29.47" r="1.49"/><circle class="cls-4" cx="39.39" cy="30.16" r="1.49"/><g class="cls-5"><path class="cls-6" d="M52.68,46.09a0.3,0.3,0,0,0,0-.6,0.3,0.3,0,0,0,0,.6h0Z"/><path class="cls-6" d="M55,48.85a0.3,0.3,0,0,0,0-.6,0.3,0.3,0,0,0,0,.6h0Z"/><path class="cls-6" d="M62.51,58.26a0.3,0.3,0,0,0,0-.6,0.3,0.3,0,0,0,0,.6h0Z"/><path class="cls-6" d="M64.58,58.54a0.3,0.3,0,0,0,0-.6,0.3,0.3,0,0,0,0,.6h0Z"/><path class="cls-6" d="M61,65.46a0.3,0.3,0,0,0,0-.6,0.3,0.3,0,0,0,0,.6h0Z"/><path class="cls-6" d="M53.51,55.5a0.3,0.3,0,0,0,0-.6,0.3,0.3,0,0,0,0,.6h0Z"/><path class="cls-6" d="M60.43,55.36a0.3,0.3,0,0,0,0-.6,0.3,0.3,0,0,0,0,.6h0Z"/><path class="cls-6" d="M55.31,59a0.3,0.3,0,0,0,0-.6,0.3,0.3,0,0,0,0,.6h0Z"/><path class="cls-6" d="M62,62.28a0.3,0.3,0,0,0,0-.6,0.3,0.3,0,0,0,0,.6h0Z"/><path class="cls-6" d="M61.82,52.31a0.3,0.3,0,0,0,0-.6,0.3,0.3,0,0,0,0,.6h0Z"/><path class="cls-6" d="M58.36,52.17a0.3,0.3,0,0,0,0-.6,0.3,0.3,0,0,0,0,.6h0Z"/><path class="cls-6" d="M59.88,49.82a0.3,0.3,0,0,0,0-.6,0.3,0.3,0,0,0,0,.6h0Z"/><path class="cls-6" d="M65.55,66.43a0.3,0.3,0,0,0,0-.6,0.3,0.3,0,0,0,0,.6h0Z"/><path class="cls-6" d="M65.41,54.39a0.3,0.3,0,0,0,0-.6,0.3,0.3,0,0,0,0,.6h0Z"/></g><polygon class="cls-7" points="53.13 60 44.79 60 44.79 51.67 48.7 51.67 53.13 51.67 53.13 60"/><path class="cls-2" d="M53.13,59.7H46c-0.36,0-.75,0-1.11,0-0.18,0,.21.46,0.23,0.19s0-.37,0-0.54a33.11,33.11,0,0,0,0-4.17c0-1.13,0-2.27,0-3.4,0-.17-0.37.15-0.17,0.19a4.06,4.06,0,0,0,.74,0h5.08a7.24,7.24,0,0,0,2,0c0.46-.17.13,0.18,0.06-0.28a1.22,1.22,0,0,1,0,.38c-0.33,1.29,0,3.1,0,4.43V60a0.3,0.3,0,0,0,.6,0V51.67a0.3,0.3,0,0,0-.3-0.3H44.79a0.3,0.3,0,0,0-.3.3V60a0.3,0.3,0,0,0,.3.3h8.33A0.3,0.3,0,0,0,53.13,59.7Z"/><path class="cls-2" d="M48.81,52.21v7.9a0.15,0.15,0,0,0,.3,0v-7.9a0.15,0.15,0,0,0-.3,0h0Z"/><path class="cls-2" d="M44.87,56.25h8.19a0.15,0.15,0,0,0,0-.3H44.87a0.15,0.15,0,0,0,0,.3h0Z"/><path class="cls-2" d="M53.13,59.75H46c-0.36,0-.75,0-1.11,0-0.18,0,.21.46,0.23,0.19s0-.37,0-0.54a33.11,33.11,0,0,0,0-4.17c0-1.13,0-2.27,0-3.4,0-.17-0.37.15-0.17,0.19a4.06,4.06,0,0,0,.74,0h5.08a7.24,7.24,0,0,0,2,0c0.46-.17.13,0.18,0.06-0.28a1.22,1.22,0,0,1,0,.38c-0.33,1.29,0,3.1,0,4.43V60a0.3,0.3,0,0,0,.6,0V51.71a0.3,0.3,0,0,0-.3-0.3H44.79a0.3,0.3,0,0,0-.3.3V60a0.3,0.3,0,0,0,.3.3h8.33A0.3,0.3,0,0,0,53.13,59.75Z"/><g class="cls-5"><path class="cls-6" d="M53.51,50.64a0.15,0.15,0,0,0,0-.3,0.15,0.15,0,0,0,0,.3h0Z"/><path class="cls-6" d="M57.8,53.68a0.15,0.15,0,0,0,0-.3,0.15,0.15,0,0,0,0,.3h0Z"/><path class="cls-6" d="M58.22,62.82a0.15,0.15,0,0,0,0-.3,0.15,0.15,0,0,0,0,.3h0Z"/><path class="cls-6" d="M62.92,64.34a0.15,0.15,0,0,0,0-.3,0.15,0.15,0,0,0,0,.3h0Z"/><path class="cls-6" d="M63.06,54.93a0.15,0.15,0,0,0,0-.3,0.15,0.15,0,0,0,0,.3h0Z"/><path class="cls-6" d="M50.33,44a0.15,0.15,0,0,0,0-.3,0.15,0.15,0,0,0,0,.3h0Z"/><path class="cls-6" d="M65.14,61.3a0.15,0.15,0,0,0,0-.3,0.15,0.15,0,0,0,0,.3h0Z"/><path class="cls-6" d="M59.74,58.67a0.15,0.15,0,0,0,0-.3,0.15,0.15,0,0,0,0,.3h0Z"/></g></svg>