<svg id="Layer_1" data-name="Layer 1" xmlns="http://www.w3.org/2000/svg" viewBox="0 0 63.06 62.52"><defs><style>.cls-1{fill:#28403a;}.cls-2{fill:#49756a;}.cls-3{opacity:0.3;}.cls-4{fill:#5db59c;}.cls-5{fill:#e2614b;}.cls-6{font-size:10px;fill:#fff;font-family:Big John;}</style></defs><title>christmas_icons</title><polygon class="cls-1" points="54.02 39.52 56.81 39.52 51.83 30.52 53.67 30.52 49.44 22.52 51.58 22.52 44.41 10.82 37.25 22.52 39.39 22.52 35.16 30.52 37 30.52 32.02 39.52 34.81 39.52 30.38 47.52 40.09 47.52 44.41 47.52 48.74 47.52 58.45 47.52 54.02 39.52"/><path class="cls-2" d="M54,40.29h2.79a0.45,0.45,0,0,0,.39-0.68l-3-5.55a15.22,15.22,0,0,1-1.57-2.94c-0.26-1.05-.7-0.19,1-0.19a0.45,0.45,0,0,0,.39-0.68l-2.83-5A12.21,12.21,0,0,1,49.9,22.9c-0.55,1,1.13.55,1.68,0.55A0.45,0.45,0,0,0,52,22.77L44.8,11.08a0.46,0.46,0,0,0-.78,0l-7.17,11.7a0.45,0.45,0,0,0,.39.68c0.55,0,2.23.43,1.68-.55a12.21,12.21,0,0,1-1.32,2.34l-2.83,5a0.45,0.45,0,0,0,.39.68c1.4,0,1.23-.78,1.12,0-0.15,1-1.24,2.33-1.69,3.17l-3,5.55a0.45,0.45,0,0,0,.39.68c0.49,0,2.76.05,2.42-.28s-1,1.22-1.31,1.79L30,47.1a0.45,0.45,0,0,0,.39.68H58.45a0.45,0.45,0,0,0,.39-0.68l-4.43-7.49a0.45,0.45,0,0,0-.78.45L56.54,45c0.19,0.32,1.52,2,1.45,2.46,0.16-1-.43-0.49-1.66-0.57-3.93-.26-8,0-11.93,0H32.9c-0.52,0-2.54-.25-2.23.28s1.13-1.34,1.39-1.79l3.14-5.3a0.45,0.45,0,0,0-.39-0.68c-0.78,0-2.73-.42-2.34.57-0.13-.33,1.37-2.57,1.52-2.86l3.4-6.4A0.45,0.45,0,0,0,37,30H35.64q-0.16,1,.18.2c0-.62,1.05-1.86,1.36-2.41l2.6-4.59a0.45,0.45,0,0,0-.39-0.68,5.2,5.2,0,0,1-1.81,0c0.26,0.15,0,1.06.45,0a30.75,30.75,0,0,1,2.42-4c0.55-.89,4.14-7,4-7s3.39,6.09,4,7a25.4,25.4,0,0,1,2.42,4c0.18,0.5.2,0.51,0.4,0.27,0.43-.5-1.48-0.3-1.75-0.3a0.45,0.45,0,0,0-.39.68l2.6,4.59C52,28.37,53,29.61,53,30.23q0.34,0.79.18-.2H51.83a0.45,0.45,0,0,0-.39.68l3.4,6.4c0.31,0.59,1.5,2.07,1.44,2.71,0.06-.66-0.94-0.42-2.26-0.42A0.45,0.45,0,0,0,54,40.29Z"/><g class="cls-3"><path class="cls-4" d="M42.44,26.8a0.15,0.15,0,0,0,0-.3,0.15,0.15,0,0,0,0,.3h0Z"/><path class="cls-4" d="M43.42,23.56a0.15,0.15,0,0,0,0-.3,0.15,0.15,0,0,0,0,.3h0Z"/><path class="cls-4" d="M44.57,18.24a0.15,0.15,0,0,0,0-.3,0.15,0.15,0,0,0,0,.3h0Z"/><path class="cls-4" d="M51.34,29.16a0.15,0.15,0,0,0,0-.3,0.15,0.15,0,0,0,0,.3h0Z"/><path class="cls-4" d="M47,35.07a0.15,0.15,0,0,0,0-.3,0.15,0.15,0,0,0,0,.3h0Z"/><path class="cls-4" d="M47,24.15a0.15,0.15,0,0,0,0-.3,0.15,0.15,0,0,0,0,.3h0Z"/><path class="cls-4" d="M48.13,20.9a0.15,0.15,0,0,0,0-.3,0.15,0.15,0,0,0,0,.3h0Z"/><path class="cls-4" d="M49.82,37.72a0.15,0.15,0,0,0,0-.3,0.15,0.15,0,0,0,0,.3h0Z"/><path class="cls-4" d="M53.65,38a0.15,0.15,0,0,0,0-.3,0.15,0.15,0,0,0,0,.3h0Z"/><path class="cls-4" d="M52,46.58a0.15,0.15,0,0,0,0-.3,0.15,0.15,0,0,0,0,.3h0Z"/><path class="cls-4" d="M51.78,38.32a0.15,0.15,0,0,0,0-.3,0.15,0.15,0,0,0,0,.3h0Z"/><path class="cls-4" d="M44.49,45.1a0.15,0.15,0,0,0,0-.3,0.15,0.15,0,0,0,0,.3h0Z"/><path class="cls-4" d="M44,37.13a0.15,0.15,0,0,0,0-.3,0.15,0.15,0,0,0,0,.3h0Z"/><path class="cls-4" d="M41,35.66a0.15,0.15,0,0,0,0-.3,0.15,0.15,0,0,0,0,.3h0Z"/><path class="cls-4" d="M38.7,22.08a0.15,0.15,0,0,0,0-.3,0.15,0.15,0,0,0,0,.3h0Z"/><path class="cls-4" d="M37.64,34.18a0.15,0.15,0,0,0,0-.3,0.15,0.15,0,0,0,0,.3h0Z"/><path class="cls-4" d="M46.18,32.12a0.15,0.15,0,0,0,0-.3,0.15,0.15,0,0,0,0,.3h0Z"/><path class="cls-4" d="M45.38,28.57a0.15,0.15,0,0,0,0-.3,0.15,0.15,0,0,0,0,.3h0Z"/><path class="cls-4" d="M45.82,16.18a0.15,0.15,0,0,0,0-.3,0.15,0.15,0,0,0,0,.3h0Z"/><path class="cls-4" d="M44,11.45a0.15,0.15,0,0,0,0-.3,0.15,0.15,0,0,0,0,.3h0Z"/><path class="cls-4" d="M49.2,29.16a0.15,0.15,0,0,0,0-.3,0.15,0.15,0,0,0,0,.3h0Z"/><path class="cls-4" d="M49.2,27.1a0.15,0.15,0,0,0,0-.3,0.15,0.15,0,0,0,0,.3h0Z"/><path class="cls-4" d="M48,41.27a0.15,0.15,0,0,0,0-.3,0.15,0.15,0,0,0,0,.3h0Z"/><path class="cls-4" d="M49.29,46.88a0.15,0.15,0,0,0,0-.3,0.15,0.15,0,0,0,0,.3h0Z"/><path class="cls-4" d="M54.72,45.7a0.15,0.15,0,0,0,0-.3,0.15,0.15,0,0,0,0,.3h0Z"/><path class="cls-4" d="M52.49,43.92a0.15,0.15,0,0,0,0-.3,0.15,0.15,0,0,0,0,.3h0Z"/><path class="cls-4" d="M54.18,42.15a0.15,0.15,0,0,0,0-.3,0.15,0.15,0,0,0,0,.3h0Z"/><path class="cls-4" d="M51.16,33.89a0.15,0.15,0,0,0,0-.3,0.15,0.15,0,0,0,0,.3h0Z"/><path class="cls-4" d="M46.53,46.88a0.15,0.15,0,0,0,0-.3,0.15,0.15,0,0,0,0,.3h0Z"/><path class="cls-4" d="M48.31,35.07a0.15,0.15,0,0,0,0-.3,0.15,0.15,0,0,0,0,.3h0Z"/><path class="cls-4" d="M50.18,43.92a0.15,0.15,0,0,0,0-.3,0.15,0.15,0,0,0,0,.3h0Z"/><path class="cls-4" d="M41.82,45.7a0.15,0.15,0,0,0,0-.3,0.15,0.15,0,0,0,0,.3h0Z"/><path class="cls-4" d="M39.77,40.38a0.15,0.15,0,0,0,0-.3,0.15,0.15,0,0,0,0,.3h0Z"/><path class="cls-4" d="M41.19,21.19a0.15,0.15,0,0,0,0-.3,0.15,0.15,0,0,0,0,.3h0Z"/><path class="cls-4" d="M39.06,46.88a0.15,0.15,0,0,0,0-.3,0.15,0.15,0,0,0,0,.3h0Z"/><path class="cls-4" d="M41,26.51a0.15,0.15,0,0,0,0-.3,0.15,0.15,0,0,0,0,.3h0Z"/><path class="cls-4" d="M46.71,42.15a0.15,0.15,0,0,0,0-.3,0.15,0.15,0,0,0,0,.3h0Z"/><path class="cls-4" d="M48,27.39a0.15,0.15,0,0,0,0-.3,0.15,0.15,0,0,0,0,.3h0Z"/></g><g class="cls-3"><path class="cls-4" d="M41.44,25.08a0.3,0.3,0,0,0,0-.6,0.3,0.3,0,0,0,0,.6h0Z"/><path class="cls-4" d="M42.48,21.83a0.3,0.3,0,0,0,0-.6,0.3,0.3,0,0,0,0,.6h0Z"/><path class="cls-4" d="M43.71,16.52a0.3,0.3,0,0,0,0-.6,0.3,0.3,0,0,0,0,.6h0Z"/><path class="cls-4" d="M50.9,27.44a0.3,0.3,0,0,0,0-.6,0.3,0.3,0,0,0,0,.6h0Z"/><path class="cls-4" d="M46.26,33.35a0.3,0.3,0,0,0,0-.6,0.3,0.3,0,0,0,0,.6h0Z"/><path class="cls-4" d="M46.26,22.42a0.3,0.3,0,0,0,0-.6,0.3,0.3,0,0,0,0,.6h0Z"/><path class="cls-4" d="M47.5,19.18a0.3,0.3,0,0,0,0-.6,0.3,0.3,0,0,0,0,.6h0Z"/><path class="cls-4" d="M49.29,36a0.3,0.3,0,0,0,0-.6,0.3,0.3,0,0,0,0,.6h0Z"/><path class="cls-4" d="M53.37,36.3a0.3,0.3,0,0,0,0-.6,0.3,0.3,0,0,0,0,.6h0Z"/><path class="cls-4" d="M51.57,44.86a0.3,0.3,0,0,0,0-.6,0.3,0.3,0,0,0,0,.6h0Z"/><path class="cls-4" d="M51.38,36.59a0.3,0.3,0,0,0,0-.6,0.3,0.3,0,0,0,0,.6h0Z"/><path class="cls-4" d="M43.61,43.38a0.3,0.3,0,0,0,0-.6,0.3,0.3,0,0,0,0,.6h0Z"/><path class="cls-4" d="M43,35.41a0.3,0.3,0,0,0,0-.6,0.3,0.3,0,0,0,0,.6h0Z"/><path class="cls-4" d="M39.92,33.94a0.3,0.3,0,0,0,0-.6,0.3,0.3,0,0,0,0,.6h0Z"/><path class="cls-4" d="M36.32,32.46a0.3,0.3,0,0,0,0-.6,0.3,0.3,0,0,0,0,.6h0Z"/><path class="cls-4" d="M45.41,30.39a0.3,0.3,0,0,0,0-.6,0.3,0.3,0,0,0,0,.6h0Z"/><path class="cls-4" d="M44.56,26.85a0.3,0.3,0,0,0,0-.6,0.3,0.3,0,0,0,0,.6h0Z"/><path class="cls-4" d="M45,14.45a0.3,0.3,0,0,0,0-.6,0.3,0.3,0,0,0,0,.6h0Z"/><path class="cls-4" d="M48.63,27.44a0.3,0.3,0,0,0,0-.6,0.3,0.3,0,0,0,0,.6h0Z"/><path class="cls-4" d="M48.63,25.38a0.3,0.3,0,0,0,0-.6,0.3,0.3,0,0,0,0,.6h0Z"/><path class="cls-4" d="M47.4,39.55a0.3,0.3,0,0,0,0-.6,0.3,0.3,0,0,0,0,.6h0Z"/><path class="cls-4" d="M48.73,45.15a0.3,0.3,0,0,0,0-.6,0.3,0.3,0,0,0,0,.6h0Z"/><path class="cls-4" d="M54.5,44a0.3,0.3,0,0,0,0-.6,0.3,0.3,0,0,0,0,.6h0Z"/><path class="cls-4" d="M52.13,42.2a0.3,0.3,0,0,0,0-.6,0.3,0.3,0,0,0,0,.6h0Z"/><path class="cls-4" d="M53.93,40.43a0.3,0.3,0,0,0,0-.6,0.3,0.3,0,0,0,0,.6h0Z"/><path class="cls-4" d="M50.71,32.17a0.3,0.3,0,0,0,0-.6,0.3,0.3,0,0,0,0,.6h0Z"/><path class="cls-4" d="M45.79,45.15a0.3,0.3,0,0,0,0-.6,0.3,0.3,0,0,0,0,.6h0Z"/><path class="cls-4" d="M47.68,33.35a0.3,0.3,0,0,0,0-.6,0.3,0.3,0,0,0,0,.6h0Z"/><path class="cls-4" d="M49.67,42.2a0.3,0.3,0,0,0,0-.6,0.3,0.3,0,0,0,0,.6h0Z"/><path class="cls-4" d="M40.77,44a0.3,0.3,0,0,0,0-.6,0.3,0.3,0,0,0,0,.6h0Z"/><path class="cls-4" d="M38.59,38.66a0.3,0.3,0,0,0,0-.6,0.3,0.3,0,0,0,0,.6h0Z"/><path class="cls-4" d="M40.11,19.47a0.3,0.3,0,0,0,0-.6,0.3,0.3,0,0,0,0,.6h0Z"/><path class="cls-4" d="M37.84,45.15a0.3,0.3,0,0,0,0-.6,0.3,0.3,0,0,0,0,.6h0Z"/><path class="cls-4" d="M39.92,24.79a0.3,0.3,0,0,0,0-.6,0.3,0.3,0,0,0,0,.6h0Z"/><path class="cls-4" d="M46,40.43a0.3,0.3,0,0,0,0-.6,0.3,0.3,0,0,0,0,.6h0Z"/><path class="cls-4" d="M47.4,25.67a0.3,0.3,0,0,0,0-.6,0.3,0.3,0,0,0,0,.6h0Z"/></g><polygon class="cls-1" points="38.97 45.52 42.95 45.52 35.83 32.52 38.47 32.52 32.42 21.52 35.48 21.52 25.23 4.79 14.97 21.52 18.04 21.52 11.98 32.52 14.62 32.52 7.5 45.52 11.49 45.52 5.15 56.52 19.03 56.52 25.23 56.52 31.42 56.52 45.3 56.52 38.97 45.52"/><path class="cls-2" d="M39,46.24h4a0.45,0.45,0,0,0,.39-0.68l-4.25-8a40,40,0,0,1-2.3-4.32,4.48,4.48,0,0,1-.53-1c-0.49,1.07,1.64.6,2.21,0.6a0.45,0.45,0,0,0,.39-0.68l-4-7C34.46,24.41,33,22.7,33,21.81c0-.27-0.88.38,0.5,0.35,0.66,0,1.32,0,2,0a0.45,0.45,0,0,0,.39-0.68L25.62,4.74a0.46,0.46,0,0,0-.78,0L14.59,21.47a0.45,0.45,0,0,0,.39.68c0.66,0,1.32,0,2,0,1.4,0,.49-0.51.5-0.35,0.06,0.75-1.57,2.78-1.9,3.36l-4,7a0.45,0.45,0,0,0,.39.68c0.29,0,2.62.14,2.21-.3C14,32.36,14,32.39,13.78,33c-0.42,1.5-1.68,3.17-2.42,4.54l-4.25,8a0.45,0.45,0,0,0,.39.68c1.07,0,3.72.53,3.55-.59,0.1,0.66-1.54,2.61-1.9,3.2L4.76,56.27a0.45,0.45,0,0,0,.39.68H45.3a0.45,0.45,0,0,0,.39-0.68L39.36,45.57a0.45,0.45,0,0,0-.78.45l4.61,7.8c0.28,0.47,1.53,3,1.84,2.53s-2.4-.3-2.91-0.3H8.75c-0.41,0-3.16.32-3.51,0C6.07,56.82,6.37,55.32,7,54.2L11.88,46a0.45,0.45,0,0,0-.39-0.68,17.49,17.49,0,0,1-3,0C7.16,45.09,8,45.95,8,45.73c0-1,1.82-3.43,2.26-4.26L15,32.64A0.45,0.45,0,0,0,14.62,32a8.16,8.16,0,0,1-2.22,0s0.12,1.13.27,0.15,1.48-2.61,2-3.57l3.74-6.61A0.45,0.45,0,0,0,18,21.25c-0.71,0-2.13.3-2.74,0,0.52,0.25-.06.79,0.7-0.35,1.14-1.71,2.15-3.52,3.23-5.27L23.4,8.81c0.36-.59,2.36-3.56,1.83-3.56s1.28,2.67,1.62,3.22L31,15.23a41,41,0,0,0,3.35,5.46c0.45,0.51.45,1.31,0.78,0.87s-2.25-.31-2.69-0.31a0.45,0.45,0,0,0-.39.68l3.74,6.61a20.07,20.07,0,0,1,1.91,3.38C38,33.08,38,32,38.06,32a6.51,6.51,0,0,1-2.22,0,0.45,0.45,0,0,0-.39.68l4.7,8.84c0.47,0.88,2.3,3.27,2.26,4.26,0,0.3.91-.65-0.49-0.39a17.34,17.34,0,0,1-3,0A0.45,0.45,0,0,0,39,46.24Z"/><g class="cls-3"><path class="cls-4" d="M22.4,27.08a0.15,0.15,0,0,0,0-.3,0.15,0.15,0,0,0,0,.3h0Z"/><path class="cls-4" d="M23.8,22.43a0.15,0.15,0,0,0,0-.3,0.15,0.15,0,0,0,0,.3h0Z"/><path class="cls-4" d="M25.46,14.83a0.15,0.15,0,0,0,0-.3,0.15,0.15,0,0,0,0,.3h0Z"/><path class="cls-4" d="M35.13,30.46a0.15,0.15,0,0,0,0-.3,0.15,0.15,0,0,0,0,.3h0Z"/><path class="cls-4" d="M28.89,38.9a0.15,0.15,0,0,0,0-.3,0.15,0.15,0,0,0,0,.3h0Z"/><path class="cls-4" d="M28.89,23.28a0.15,0.15,0,0,0,0-.3,0.15,0.15,0,0,0,0,.3h0Z"/><path class="cls-4" d="M30.55,18.63a0.15,0.15,0,0,0,0-.3,0.15,0.15,0,0,0,0,.3h0Z"/><path class="cls-4" d="M33,42.7a0.15,0.15,0,0,0,0-.3,0.15,0.15,0,0,0,0,.3h0Z"/><path class="cls-4" d="M38.43,43.12a0.15,0.15,0,0,0,0-.3,0.15,0.15,0,0,0,0,.3h0Z"/><path class="cls-4" d="M36,55.37a0.15,0.15,0,0,0,0-.3,0.15,0.15,0,0,0,0,.3h0Z"/><path class="cls-4" d="M35.76,43.55a0.15,0.15,0,0,0,0-.3,0.15,0.15,0,0,0,0,.3h0Z"/><path class="cls-4" d="M25.33,53.26a0.15,0.15,0,0,0,0-.3,0.15,0.15,0,0,0,0,.3h0Z"/><path class="cls-4" d="M24.57,41.86a0.15,0.15,0,0,0,0-.3,0.15,0.15,0,0,0,0,.3h0Z"/><path class="cls-4" d="M20.37,39.75a0.15,0.15,0,0,0,0-.3,0.15,0.15,0,0,0,0,.3h0Z"/><path class="cls-4" d="M17.06,20.32a0.15,0.15,0,0,0,0-.3,0.15,0.15,0,0,0,0,.3h0Z"/><path class="cls-4" d="M15.53,37.64a0.15,0.15,0,0,0,0-.3,0.15,0.15,0,0,0,0,.3h0Z"/><path class="cls-4" d="M27.75,34.68a0.15,0.15,0,0,0,0-.3,0.15,0.15,0,0,0,0,.3h0Z"/><path class="cls-4" d="M26.6,29.61a0.15,0.15,0,0,0,0-.3,0.15,0.15,0,0,0,0,.3h0Z"/><path class="cls-4" d="M27.24,11.88a0.15,0.15,0,0,0,0-.3,0.15,0.15,0,0,0,0,.3h0Z"/><path class="cls-4" d="M24.57,5.12a0.15,0.15,0,0,0,0-.3,0.15,0.15,0,0,0,0,.3h0Z"/><path class="cls-4" d="M32.07,30.46a0.15,0.15,0,0,0,0-.3,0.15,0.15,0,0,0,0,.3h0Z"/><path class="cls-4" d="M32.07,27.5a0.15,0.15,0,0,0,0-.3,0.15,0.15,0,0,0,0,.3h0Z"/><path class="cls-4" d="M30.42,47.77a0.15,0.15,0,0,0,0-.3,0.15,0.15,0,0,0,0,.3h0Z"/><path class="cls-4" d="M32.2,55.79a0.15,0.15,0,0,0,0-.3,0.15,0.15,0,0,0,0,.3h0Z"/><path class="cls-4" d="M40,54.1a0.15,0.15,0,0,0,0-.3,0.15,0.15,0,0,0,0,.3h0Z"/><path class="cls-4" d="M36.78,51.57a0.15,0.15,0,0,0,0-.3,0.15,0.15,0,0,0,0,.3h0Z"/><path class="cls-4" d="M39.2,49a0.15,0.15,0,0,0,0-.3,0.15,0.15,0,0,0,0,.3h0Z"/><path class="cls-4" d="M34.87,37.21a0.15,0.15,0,0,0,0-.3,0.15,0.15,0,0,0,0,.3h0Z"/><path class="cls-4" d="M28.26,55.79a0.15,0.15,0,0,0,0-.3,0.15,0.15,0,0,0,0,.3h0Z"/><path class="cls-4" d="M30.8,38.9a0.15,0.15,0,0,0,0-.3,0.15,0.15,0,0,0,0,.3h0Z"/><path class="cls-4" d="M33.47,51.57a0.15,0.15,0,0,0,0-.3,0.15,0.15,0,0,0,0,.3h0Z"/><path class="cls-4" d="M21.51,54.1a0.15,0.15,0,0,0,0-.3,0.15,0.15,0,0,0,0,.3h0Z"/><path class="cls-4" d="M18.58,46.5a0.15,0.15,0,0,0,0-.3,0.15,0.15,0,0,0,0,.3h0Z"/><path class="cls-4" d="M20.62,19.06a0.15,0.15,0,0,0,0-.3,0.15,0.15,0,0,0,0,.3h0Z"/><path class="cls-4" d="M17.57,55.79a0.15,0.15,0,0,0,0-.3,0.15,0.15,0,0,0,0,.3h0Z"/><path class="cls-4" d="M20.37,26.66a0.15,0.15,0,0,0,0-.3,0.15,0.15,0,0,0,0,.3h0Z"/><path class="cls-4" d="M28.51,49a0.15,0.15,0,0,0,0-.3,0.15,0.15,0,0,0,0,.3h0Z"/><path class="cls-4" d="M30.42,27.92a0.15,0.15,0,0,0,0-.3,0.15,0.15,0,0,0,0,.3h0Z"/></g><g class="cls-3"><path class="cls-4" d="M21,24.55a0.3,0.3,0,0,0,0-.6,0.3,0.3,0,0,0,0,.6h0Z"/><path class="cls-4" d="M22.45,19.91a0.3,0.3,0,0,0,0-.6,0.3,0.3,0,0,0,0,.6h0Z"/><path class="cls-4" d="M24.22,12.31a0.3,0.3,0,0,0,0-.6,0.3,0.3,0,0,0,0,.6h0Z"/><path class="cls-4" d="M34.51,27.93a0.3,0.3,0,0,0,0-.6,0.3,0.3,0,0,0,0,.6h0Z"/><path class="cls-4" d="M27.87,36.37a0.3,0.3,0,0,0,0-.6,0.3,0.3,0,0,0,0,.6h0Z"/><path class="cls-4" d="M27.87,20.75a0.3,0.3,0,0,0,0-.6,0.3,0.3,0,0,0,0,.6h0Z"/><path class="cls-4" d="M29.63,16.11a0.3,0.3,0,0,0,0-.6,0.3,0.3,0,0,0,0,.6h0Z"/><path class="cls-4" d="M32.21,40.18a0.3,0.3,0,0,0,0-.6,0.3,0.3,0,0,0,0,.6h0Z"/><path class="cls-4" d="M38,40.6a0.3,0.3,0,0,0,0-.6,0.3,0.3,0,0,0,0,.6h0Z"/><path class="cls-4" d="M35.46,52.84a0.3,0.3,0,0,0,0-.6,0.3,0.3,0,0,0,0,.6h0Z"/><path class="cls-4" d="M35.19,41a0.3,0.3,0,0,0,0-.6,0.3,0.3,0,0,0,0,.6h0Z"/><path class="cls-4" d="M24.08,50.73a0.3,0.3,0,0,0,0-.6,0.3,0.3,0,0,0,0,.6h0Z"/><path class="cls-4" d="M23.27,39.33a0.3,0.3,0,0,0,0-.6,0.3,0.3,0,0,0,0,.6h0Z"/><path class="cls-4" d="M18.8,37.22a0.3,0.3,0,0,0,0-.6,0.3,0.3,0,0,0,0,.6h0Z"/><path class="cls-4" d="M13.65,35.11a0.3,0.3,0,0,0,0-.6,0.3,0.3,0,0,0,0,.6h0Z"/><path class="cls-4" d="M26.65,32.15a0.3,0.3,0,0,0,0-.6,0.3,0.3,0,0,0,0,.6h0Z"/><path class="cls-4" d="M25.43,27.09a0.3,0.3,0,0,0,0-.6,0.3,0.3,0,0,0,0,.6h0Z"/><path class="cls-4" d="M26.11,9.35a0.3,0.3,0,0,0,0-.6,0.3,0.3,0,0,0,0,.6h0Z"/><path class="cls-4" d="M31.26,27.93a0.3,0.3,0,0,0,0-.6,0.3,0.3,0,0,0,0,.6h0Z"/><path class="cls-4" d="M31.26,25a0.3,0.3,0,0,0,0-.6,0.3,0.3,0,0,0,0,.6h0Z"/><path class="cls-4" d="M29.5,45.24a0.3,0.3,0,0,0,0-.6,0.3,0.3,0,0,0,0,.6h0Z"/><path class="cls-4" d="M31.39,53.26a0.3,0.3,0,0,0,0-.6,0.3,0.3,0,0,0,0,.6h0Z"/><path class="cls-4" d="M39.66,51.58a0.3,0.3,0,0,0,0-.6,0.3,0.3,0,0,0,0,.6h0Z"/><path class="cls-4" d="M36.27,49a0.3,0.3,0,0,0,0-.6,0.3,0.3,0,0,0,0,.6h0Z"/><path class="cls-4" d="M38.84,46.51a0.3,0.3,0,0,0,0-.6,0.3,0.3,0,0,0,0,.6h0Z"/><path class="cls-4" d="M34.24,34.69a0.3,0.3,0,0,0,0-.6,0.3,0.3,0,0,0,0,.6h0Z"/><path class="cls-4" d="M27.19,53.26a0.3,0.3,0,0,0,0-.6,0.3,0.3,0,0,0,0,.6h0Z"/><path class="cls-4" d="M29.9,36.37a0.3,0.3,0,0,0,0-.6,0.3,0.3,0,0,0,0,.6h0Z"/><path class="cls-4" d="M32.75,49a0.3,0.3,0,0,0,0-.6,0.3,0.3,0,0,0,0,.6h0Z"/><path class="cls-4" d="M20,51.58a0.3,0.3,0,0,0,0-.6,0.3,0.3,0,0,0,0,.6h0Z"/><path class="cls-4" d="M16.9,44a0.3,0.3,0,0,0,0-.6,0.3,0.3,0,0,0,0,.6h0Z"/><path class="cls-4" d="M19.07,16.53a0.3,0.3,0,0,0,0-.6,0.3,0.3,0,0,0,0,.6h0Z"/><path class="cls-4" d="M15.82,53.26a0.3,0.3,0,0,0,0-.6,0.3,0.3,0,0,0,0,.6h0Z"/><path class="cls-4" d="M18.8,24.13a0.3,0.3,0,0,0,0-.6,0.3,0.3,0,0,0,0,.6h0Z"/><path class="cls-4" d="M27.47,46.51a0.3,0.3,0,0,0,0-.6,0.3,0.3,0,0,0,0,.6h0Z"/><path class="cls-4" d="M29.5,25.4a0.3,0.3,0,0,0,0-.6,0.3,0.3,0,0,0,0,.6h0Z"/></g><circle class="cls-5" cx="51.4" cy="11.67" r="9.72"/><text class="cls-6" transform="translate(44.92 15.48)">00</text></svg>