<svg id="Layer_1" data-name="Layer 1" xmlns="http://www.w3.org/2000/svg" viewBox="0 0 95 66.62"><defs><style>.cls-1{fill:#49756a;}.cls-2,.cls-3{fill:#5db59c;}.cls-3{font-size:7.5px;font-family:Big John;}</style></defs><title>christmas_icons</title><path class="cls-1" d="M15.45,23S21.86,33.33,40,37.65A124.93,124.93,0,0,0,60.19,39s13-.08,21.75,6l-0.76-7.39,6.41-4.38s-5.87-5.15-18.93-7.1c0,0-18.25-.28-23.32-2.15,0,0-16.67-3.63-26.68-14.52Z"/><path class="cls-2" d="M15.06,23.24c5.09,8,16.17,13.2,25.08,14.89,14.09,2.67,28.86-1,41.57,7.31A0.45,0.45,0,0,0,82.39,45c-0.16-1.57-1.33-6.07-.8-7.16,0.6-1.24,4.79-3.23,6.23-4.22A0.45,0.45,0,0,0,87.91,33c-8.37-7.13-19.85-7-30.13-7.68C43.55,24.37,29.12,19.74,19,9.19a0.45,0.45,0,0,0-.75.2L15,22.89a0.45,0.45,0,0,0,.87.24l2.38-10c0.13-.54.25-2.36,0.66-2.75,0.93-.91-1.61-0.66.45,0.52,2.37,1.36,4.51,4,6.87,5.49a63,63,0,0,0,21.45,8.71c8.51,1.74,17.37.45,25.8,2.48,4.12,1,10.24,2.4,13.29,5.64,0.56,0.59.4,0.3,0.46-.23,0,0.34-2,1.38-2.29,1.56l-4,2.73a0.45,0.45,0,0,0-.22.39c0.14,1.32,1.38,5.81.7,6.84-0.32.49-.35-0.44-1.12-1a16,16,0,0,0-3.25-1.6,38.86,38.86,0,0,0-5.42-1.81C65,38.38,58.56,38.8,51.79,38.41c-12.66-.73-28.56-4-35.95-15.63A0.45,0.45,0,0,0,15.06,23.24Z"/><path class="cls-2" d="M17.24,9.31L7.94,60.24c-0.17.94,1.27,1.35,1.45,0.4l9.3-50.93c0.17-.94-1.27-1.35-1.45-0.4h0Z"/><text class="cls-3" transform="matrix(0.67, 0.71, -0.73, 0.68, 19.37, 21.81)">J</text><text class="cls-3" transform="translate(22.71 25.42) rotate(36.82) scale(0.97 1)">A</text><text class="cls-3" transform="matrix(0.88, 0.42, -0.43, 0.9, 27.88, 29.23)">C</text><text class="cls-3" transform="translate(33.54 31.91) rotate(14.47) scale(0.97 1)">K</text><text class="cls-3" transform="translate(40.01 33.46) rotate(7.28) scale(0.97 1)">S</text><text class="cls-3" transform="translate(44.3 34) rotate(4.67) scale(0.97 1)">O</text><text class="cls-3" transform="translate(50.62 34.51) rotate(3.99) scale(0.97 1)">N</text><text class="cls-3" transform="matrix(0.97, 0.07, -0.07, 1, 56.32, 34.89)">V</text><text class="cls-3" transform="matrix(0.97, 0.09, -0.1, 1, 62.18, 35.32)">I</text><text class="cls-3" transform="translate(64.64 35.51) rotate(8.99) scale(0.97 1)">L</text><text class="cls-3" transform="translate(68.89 36.19) rotate(15.65) scale(0.97 1)">L</text><text class="cls-3" transform="translate(73.03 37.33) rotate(21.55) scale(0.97 1)">E</text></svg>