<svg id="Layer_1" data-name="Layer 1" xmlns="http://www.w3.org/2000/svg" xmlns:xlink="http://www.w3.org/1999/xlink" viewBox="0 0 63 62.46"><defs><style>.cls-1,.cls-2{fill:none;}.cls-2{stroke:#e2614b;stroke-linecap:round;stroke-miterlimit:10;}.cls-3{clip-path:url(#clip-path);}.cls-4{fill:#7f372a;}.cls-5{fill:#49756a;}.cls-6{fill:#fff;}.cls-7{fill:#28403a;}.cls-8{opacity:0.5;}.cls-9{fill:#e2614b;}</style><clipPath id="clip-path"><path class="cls-1" d="M36.27,9c-9-1.33-12,7.06-12,7.06L18.65,54.19l22,3.25L46.28,19.3A11.47,11.47,0,0,0,36.27,9"/></clipPath></defs><title>christmas_icons</title><path class="cls-2" d="M17.25,56.17L23.4,14.54s3.26-9.16,13.09-7.71L28.94,57.9"/><path class="cls-2" d="M41.26,59.72l6.15-41.63S46.78,8.35,36.49,6.83"/><line class="cls-2" x1="22.21" y1="14.36" x2="48.91" y2="18.31"/><g class="cls-3"><rect class="cls-4" x="23.73" y="7.62" width="3.1" height="47.3" transform="translate(4.84 -3.36) rotate(8.4)"/><rect class="cls-4" x="28.48" y="5.42" width="3.1" height="50.19" transform="translate(4.78 -4.06) rotate(8.4)"/><rect class="cls-4" x="34.85" y="6.36" width="3.1" height="50.19" transform="translate(4.99 -4.98) rotate(8.4)"/><rect class="cls-4" x="39.33" y="7.91" width="3.1" height="49.3" transform="translate(5.2 -5.62) rotate(8.4)"/></g><path class="cls-5" d="M21.93,18.2a4.47,4.47,0,0,1-1.37,2,0.3,0.3,0,0,0,.3.52,4.85,4.85,0,0,0,1.64-2.41c0.15-.36-0.43-0.51-0.58-0.16h0Z"/><path class="cls-5" d="M23.8,24.77a9.44,9.44,0,0,0-.29,2.89c0,0.38.63,0.39,0.6,0a8.87,8.87,0,0,1,.27-2.73,0.3,0.3,0,0,0-.58-0.16h0Z"/><path class="cls-5" d="M25.91,26.54c0.36,1.6-.85,1.79-1.83,1a7.64,7.64,0,0,1-1.77-3.14L20.2,19.2c-0.14-.35-0.73-0.2-0.58.16l1.58,3.85a17.27,17.27,0,0,0,1.9,4.11c1.29,1.65,4,1.88,3.4-.94a0.3,0.3,0,0,0-.58.16h0Z"/><path class="cls-6" d="M29.19,14.07a6.15,6.15,0,0,0-4-1.69,10.66,10.66,0,0,1-1.31,2.36s-2.39,1.79-2.18,2.7a21.74,21.74,0,0,0,.65,2.62,14.46,14.46,0,0,1,.26,2.08,3.85,3.85,0,0,0,1.47,2.72A13.8,13.8,0,0,0,27.28,27s1.26,0.28,1.09-2.19l-0.7-4.3a7.64,7.64,0,0,1,.2-2.75Z"/><path class="cls-5" d="M29.4,13.85a6.78,6.78,0,0,0-4.19-1.78,0.29,0.29,0,0,0-.26.15c-0.75,1.71-1.78,2.4-2.87,3.78s-0.35,2.44,0,4.13,0.12,2.88,1.15,4.22a9,9,0,0,0,3.56,2.77c2.07,0.59,1.94-1.83,1.73-3.29-0.28-2-.87-4-0.35-6,0.32-1.25.88-2.48,1.31-3.7C29.6,13.78,29,13.63,28.9,14c-0.76,2.14-1.74,4.2-1.53,6.52,0.08,0.92.3,1.85,0.45,2.76a7.48,7.48,0,0,1,.25,1.53c-0.21,3-1.3,1.73-2.54.8a5.87,5.87,0,0,1-2.64-4.16c-0.23-1.42-1.17-3.33-.65-4.67,0.4-1,1.84-1.68,2.46-2.64,0.76-1.19.23-1.8,2.09-1.18A5.78,5.78,0,0,1,29,14.28,0.3,0.3,0,0,0,29.4,13.85Z"/><path class="cls-7" d="M29.24,14.85c-0.07-.49-1.05-0.61-1.38-0.66s-0.27.26-.08,0.29,1.12,0.12,1.17.45,0.32,0.11.29-.08h0Z"/><path class="cls-7" d="M28.74,15.52A2.72,2.72,0,0,0,27.49,15a0.15,0.15,0,0,0-.08.29,2.42,2.42,0,0,1,1.12.48,0.15,0.15,0,0,0,.21-0.21h0Z"/><path class="cls-7" d="M28.25,16.41a5.37,5.37,0,0,0-1.18-.57c-0.18-.07-0.26.22-0.08,0.29a5.05,5.05,0,0,1,1.11.54c0.16,0.11.31-.15,0.15-0.26h0Z"/><path class="cls-7" d="M28.1,17.44a1.86,1.86,0,0,0-1.44-.5,0.15,0.15,0,0,0,.08.29,1.66,1.66,0,0,1,1.21.47c0.15,0.12.3-.14,0.15-0.26h0Z"/><path class="cls-7" d="M27.82,18.17a2.05,2.05,0,0,0-1.51-.34c-0.18.07-.1,0.36,0.08,0.29a1.81,1.81,0,0,1,1.28.31,0.15,0.15,0,0,0,.15-0.26h0Z"/><path class="cls-7" d="M27.69,19.06a2.1,2.1,0,0,0-1.51-.34c-0.19,0-.11.33,0.08,0.29a1.81,1.81,0,0,1,1.28.31,0.15,0.15,0,0,0,.15-0.26h0Z"/><path class="cls-7" d="M27.58,19.88a2.26,2.26,0,0,0-1.58-.2c-0.18.08,0,.34,0.15,0.26a2.12,2.12,0,0,1,1.35.23c0.18,0.07.26-.22,0.08-0.29h0Z"/><path class="cls-7" d="M27.76,20.94a2.46,2.46,0,0,0-1.5-.21c-0.18.07-.1,0.36,0.08,0.29a2.25,2.25,0,0,1,1.34.21c0.18,0.06.26-.23,0.08-0.29h0Z"/><path class="cls-7" d="M29.15,14.75c0.92-.33.56-2.81-0.46-2.81s-0.63,2.84.42,2.82a0.15,0.15,0,0,0,0-.3,1.26,1.26,0,0,1-.66-1c-0.06-.26-0.14-1.48.46-1.09a1.47,1.47,0,0,1,.43,1.06,1.2,1.2,0,0,1-.27,1C28.89,14.53,29,14.82,29.15,14.75Z"/><path class="cls-7" d="M25.53,17.8a0.53,0.53,0,0,0-.46-0.24,0.15,0.15,0,0,0-.13.07,0.61,0.61,0,0,0,.4,1,1.14,1.14,0,0,0,1.07-1c0.29-.81.11-1.66,0.68-2.38A1.55,1.55,0,0,1,28,14.64a1.84,1.84,0,0,1,.84,0l0.56,0.86a2.11,2.11,0,0,1-.79,1.16c-0.45.58-.52,3,0.75,2.35,0.84-.42,0-1.54-0.45-0.62-0.08.18,0.18,0.33,0.26,0.15q-0.53.11-.54-0.31a2.52,2.52,0,0,1-.06-0.45,1.82,1.82,0,0,1,.55-1.19,2.87,2.87,0,0,0,.52-0.82,1,1,0,0,0-.81-1.45,1.93,1.93,0,0,0-2,.81,3.11,3.11,0,0,0-.43,1.05c-0.06.25-.29,2.55-1,1.82a0.15,0.15,0,0,0,.21-0.21h0Z"/><path class="cls-7" d="M31.25,14c0.31-.56,0-1.21-0.67-1.06a2.2,2.2,0,0,0-1.47,1.26c-0.09.2-.28,0.77,0.15,0.68a1.77,1.77,0,0,0,.37-0.23,2.84,2.84,0,0,1,.85-0.3,1.14,1.14,0,0,0,.75-0.31c0.12-.15-0.09-0.36-0.21-0.21a2.24,2.24,0,0,1-1,.34,2.92,2.92,0,0,0-.57.27,0.82,0.82,0,0,0-.19.12s0,0.11.06,0a5.76,5.76,0,0,1,.48-0.82,1.83,1.83,0,0,1,.51-0.39,0.86,0.86,0,0,1,.32-0.12q0.18-.08.27,0.2,0.34,0.15.13,0.41A0.15,0.15,0,0,0,31.25,14Z"/><path class="cls-5" d="M35.09,22A4.84,4.84,0,0,0,36,24.79a0.3,0.3,0,0,0,.42-0.42A4.25,4.25,0,0,1,35.69,22c0-.38-0.64-0.38-0.6,0h0Z"/><path class="cls-5" d="M31.4,27.76a8.86,8.86,0,0,1-.53,2.69c-0.14.36,0.44,0.52,0.58,0.16A9.4,9.4,0,0,0,32,27.76c0-.39-0.58-0.38-0.6,0h0Z"/><path class="cls-5" d="M29,28.54c-0.44.77-.65,2,0.34,2.49s2.45-.39,3.18-1.06a55.3,55.3,0,0,0,5-6.12c0.24-.3-0.18-0.72-0.42-0.42l-3.43,4.23a13.9,13.9,0,0,1-1.79,2.06c-0.92.76-3.71,1.47-2.4-.87a0.3,0.3,0,0,0-.52-0.3h0Z"/><path class="cls-6" d="M29.94,16a6.15,6.15,0,0,1,4.3-.47,10.66,10.66,0,0,0,.57,2.64s1.77,2.4,1.3,3.21a21.74,21.74,0,0,1-1.38,2.32,14.46,14.46,0,0,0-.85,1.92,3.85,3.85,0,0,1-2.19,2.18A13.8,13.8,0,0,1,28,28.9s-1.28-.09-0.41-2.42l1.91-3.91a7.64,7.64,0,0,0,.6-2.69Z"/><path class="cls-5" d="M30.09,16.23a5.27,5.27,0,0,1,3.17-.62c1,0.24.66,0.3,0.9,1.39a12.21,12.21,0,0,0,1.22,2.6c0.93,2.07-.71,3.42-1.52,5.23a5.68,5.68,0,0,1-3.7,3.23c-0.81.29-1.75,0.78-2.32,0.16s0.15-1.75.47-2.47c0.46-1,1.05-2,1.48-3,0.91-2.19.56-4.45,0.45-6.76a0.3,0.3,0,0,0-.6,0,26.36,26.36,0,0,1,.09,4.65,15.32,15.32,0,0,1-1.84,4.63c-0.66,1.34-1.71,3.94.61,3.92a8.9,8.9,0,0,0,4.11-1.59c1.42-1,1.59-2.32,2.38-3.76s1.77-2.19,1.28-3.74c-0.55-1.71-1.51-2.67-1.73-4.58a0.31,0.31,0,0,0-.22-0.29,6.79,6.79,0,0,0-4.53.5A0.3,0.3,0,0,0,30.09,16.23Z"/><path class="cls-7" d="M29.92,16.86a1.64,1.64,0,0,1,1.21-.1c0.19,0,.27-0.26.08-0.29-0.35,0-1.33-.23-1.55.23-0.08.17,0.18,0.33,0.26,0.15h0Z"/><path class="cls-7" d="M30.1,17.75a2.44,2.44,0,0,1,1.21-.13,0.15,0.15,0,0,0,0-.3,2.71,2.71,0,0,0-1.36.17,0.15,0.15,0,0,0,.15.26h0Z"/><path class="cls-7" d="M30.24,18.77a5,5,0,0,1,1.22-.19c0.19,0,.19-0.31,0-0.3a5.38,5.38,0,0,0-1.3.2,0.15,0.15,0,0,0,.08.29h0Z"/><path class="cls-7" d="M30.09,19.81a1.64,1.64,0,0,1,1.29-.1,0.15,0.15,0,0,0,.15-0.26,1.87,1.87,0,0,0-1.52.07c-0.18.07-.1,0.36,0.08,0.29h0Z"/><path class="cls-7" d="M30.14,20.58a1.8,1.8,0,0,1,1.32.08c0.15,0.12.3-.14,0.15-0.26a2.05,2.05,0,0,0-1.55-.11c-0.19,0-.11.33,0.08,0.29h0Z"/><path class="cls-7" d="M30,21.48a1.8,1.8,0,0,1,1.32.08,0.15,0.15,0,0,0,.15-0.26,2.1,2.1,0,0,0-1.55-.11,0.15,0.15,0,0,0,.08.29h0Z"/><path class="cls-7" d="M29.8,22.3a2.09,2.09,0,0,1,1.36.17c0.15,0.12.36-.09,0.21-0.21A2.26,2.26,0,0,0,29.8,22c-0.19,0-.19.31,0,0.3h0Z"/><path class="cls-7" d="M29.31,23.26a2.29,2.29,0,0,1,1.31.17c0.15,0.12.36-.09,0.21-0.21A2.44,2.44,0,0,0,29.31,23a0.15,0.15,0,0,0,0,.3h0Z"/><path class="cls-7" d="M29.94,16.38a1.12,1.12,0,0,1,0-1,1.53,1.53,0,0,1,.7-1c0.7-.23.34,0.84,0.18,1.13a1.27,1.27,0,0,1-.93.78c-0.18-.06-0.26.23-0.08,0.29C30.87,17,32,14.25,31,14.06s-2,2-1.2,2.58C29.94,16.75,30.09,16.49,29.94,16.38Z"/><path class="cls-7" d="M32.51,20.86C31.59,21.37,32,19.34,32,19a3.45,3.45,0,0,0,0-1,2,2,0,0,0-1.64-1.65,1,1,0,0,0-1.31.83,2,2,0,0,0,.15,1,1.93,1.93,0,0,1,.37,1,1.73,1.73,0,0,1-.19.72,0.48,0.48,0,0,1-.7.26c0,0.19.32,0.19,0.3,0-0.13-1.05-1.29-.2-0.61.43,0.47,0.43.93,0.07,1.18-.38a2,2,0,0,0,.16-1.76,2.28,2.28,0,0,1-.38-1.25c0.2-1.23,1.81-.53,2.19.2,0.49,0.93,0,1.83,0,2.78a1.16,1.16,0,0,0,.62,1.13,0.62,0.62,0,0,0,.76-0.8,0.15,0.15,0,0,0-.1-0.1,0.51,0.51,0,0,0-.51.1,0.15,0.15,0,0,0,.15.26h0Z"/><path class="cls-7" d="M28.26,15.28V15l0.51-.2A0.84,0.84,0,0,1,29,15a1.79,1.79,0,0,1,.41.54,2.21,2.21,0,0,1,.2.57,3.57,3.57,0,0,0,0,.44s0.15,0.06.1,0a0.79,0.79,0,0,0-.12-0.15,3,3,0,0,0-.45-0.42,2.59,2.59,0,0,1-1-.67c-0.08-.18-0.33,0-0.26.15a1.15,1.15,0,0,0,.63.51,2.87,2.87,0,0,1,.67.48,2.73,2.73,0,0,0,.33.38C30,17,30,16.38,30,16.16a2.2,2.2,0,0,0-1-1.64c-0.63-.34-1.08.2-0.95,0.83C28,15.54,28.3,15.46,28.26,15.28Z"/><path class="cls-7" d="M31.44,6.35a12.8,12.8,0,0,1-1.19,5.87,18.45,18.45,0,0,0-1.35,2.35,0.15,0.15,0,0,0,.22.17,5.17,5.17,0,0,0,1.1-1.46,15.54,15.54,0,0,0,1.83-3.66,3.4,3.4,0,0,0-.33-3.35c-0.11-.15-0.37,0-0.26.15a3.13,3.13,0,0,1,.3,3.12,14.21,14.21,0,0,1-1.35,2.87c-0.23.38-.46,0.76-0.71,1.13,0,0-.84,1.1-0.45,1a4.37,4.37,0,0,0,.82-1.32A13.74,13.74,0,0,0,31,11.35a13.21,13.21,0,0,0,.79-5A0.15,0.15,0,0,0,31.44,6.35Z"/><path class="cls-7" d="M31.43,6.11a0.88,0.88,0,0,0-.65,1.06c0.21,0.48,1.35,1.16,1.83.67a1.16,1.16,0,0,0,.1-1.06,0.9,0.9,0,0,0-1.25-.68c-0.18.06-.1,0.35,0.08,0.29a0.61,0.61,0,0,1,.88.47,1.22,1.22,0,0,1,0,.59c-0.16.59-1.29,0-1.41-.39a0.64,0.64,0,0,1,.52-0.69C31.75,6.29,31.6,6,31.43,6.11Z"/><g class="cls-8"><path class="cls-9" d="M20.84,51.86a0.15,0.15,0,0,0,0-.3,0.15,0.15,0,0,0,0,.3h0Z"/><path class="cls-9" d="M22.87,53.27a0.15,0.15,0,0,0,0-.3,0.15,0.15,0,0,0,0,.3h0Z"/><path class="cls-9" d="M22.19,48.88a0.15,0.15,0,0,0,0-.3,0.15,0.15,0,0,0,0,.3h0Z"/><path class="cls-9" d="M27.37,48a0.15,0.15,0,0,0,0-.3,0.15,0.15,0,0,0,0,.3h0Z"/><path class="cls-9" d="M28.66,44.38a0.15,0.15,0,0,0,0-.3,0.15,0.15,0,0,0,0,.3h0Z"/><path class="cls-9" d="M34.13,42.58a0.15,0.15,0,0,0,0-.3,0.15,0.15,0,0,0,0,.3h0Z"/><path class="cls-9" d="M39.53,38.35a0.15,0.15,0,0,0,0-.3,0.15,0.15,0,0,0,0,.3h0Z"/><path class="cls-9" d="M40.77,36.72a0.15,0.15,0,0,0,0-.3,0.15,0.15,0,0,0,0,.3h0Z"/><path class="cls-9" d="M34.29,39.59a0.15,0.15,0,0,0,0-.3,0.15,0.15,0,0,0,0,.3h0Z"/><path class="cls-9" d="M33.73,48.37a0.15,0.15,0,0,0,0-.3,0.15,0.15,0,0,0,0,.3h0Z"/><path class="cls-9" d="M39.19,46.29a0.15,0.15,0,0,0,0-.3,0.15,0.15,0,0,0,0,.3h0Z"/><path class="cls-9" d="M38.85,50.4a0.15,0.15,0,0,0,0-.3,0.15,0.15,0,0,0,0,.3h0Z"/><path class="cls-9" d="M33.06,53.38a0.15,0.15,0,0,0,0-.3,0.15,0.15,0,0,0,0,.3h0Z"/><path class="cls-9" d="M32.89,55.69a0.15,0.15,0,0,0,0-.3,0.15,0.15,0,0,0,0,.3h0Z"/><path class="cls-9" d="M37.67,56.76a0.15,0.15,0,0,0,0-.3,0.15,0.15,0,0,0,0,.3h0Z"/><path class="cls-9" d="M37.16,53.61a0.15,0.15,0,0,0,0-.3,0.15,0.15,0,0,0,0,.3h0Z"/><path class="cls-9" d="M39.08,54a0.15,0.15,0,0,0,0-.3,0.15,0.15,0,0,0,0,.3h0Z"/><path class="cls-9" d="M38,55.07a0.15,0.15,0,0,0,0-.3,0.15,0.15,0,0,0,0,.3h0Z"/><path class="cls-9" d="M26.86,54.11a0.15,0.15,0,0,0,0-.3,0.15,0.15,0,0,0,0,.3h0Z"/><path class="cls-9" d="M25.63,53.44a0.15,0.15,0,0,0,0-.3,0.15,0.15,0,0,0,0,.3h0Z"/><path class="cls-9" d="M27.2,52.14a0.15,0.15,0,0,0,0-.3,0.15,0.15,0,0,0,0,.3h0Z"/><path class="cls-9" d="M27.54,50.91a0.15,0.15,0,0,0,0-.3,0.15,0.15,0,0,0,0,.3h0Z"/><path class="cls-9" d="M23.37,50.12a0.15,0.15,0,0,0,0-.3,0.15,0.15,0,0,0,0,.3h0Z"/><path class="cls-9" d="M33.34,50.57a0.15,0.15,0,0,0,0-.3,0.15,0.15,0,0,0,0,.3h0Z"/><path class="cls-9" d="M34.58,51.08a0.15,0.15,0,0,0,0-.3,0.15,0.15,0,0,0,0,.3h0Z"/><path class="cls-9" d="M38.68,45.22a0.15,0.15,0,0,0,0-.3,0.15,0.15,0,0,0,0,.3h0Z"/><path class="cls-9" d="M37.22,48.09a0.15,0.15,0,0,0,0-.3,0.15,0.15,0,0,0,0,.3h0Z"/><path class="cls-9" d="M40.26,43a0.15,0.15,0,0,0,0-.3,0.15,0.15,0,0,0,0,.3h0Z"/><path class="cls-9" d="M35.31,43.48a0.15,0.15,0,0,0,0-.3,0.15,0.15,0,0,0,0,.3h0Z"/><path class="cls-9" d="M40.54,40.15a0.15,0.15,0,0,0,0-.3,0.15,0.15,0,0,0,0,.3h0Z"/><path class="cls-9" d="M28.5,41.56a0.15,0.15,0,0,0,0-.3,0.15,0.15,0,0,0,0,.3h0Z"/><path class="cls-9" d="M28.72,39.59a0.15,0.15,0,0,0,0-.3,0.15,0.15,0,0,0,0,.3h0Z"/><path class="cls-9" d="M23,46.8a0.15,0.15,0,0,0,0-.3,0.15,0.15,0,0,0,0,.3h0Z"/><path class="cls-9" d="M34.58,36.33a0.15,0.15,0,0,0,0-.3,0.15,0.15,0,0,0,0,.3h0Z"/><path class="cls-9" d="M36.32,33.68a0.15,0.15,0,0,0,0-.3,0.15,0.15,0,0,0,0,.3h0Z"/><path class="cls-9" d="M36.88,55.8a0.15,0.15,0,0,0,0-.3,0.15,0.15,0,0,0,0,.3h0Z"/><path class="cls-9" d="M39.3,52.43a0.15,0.15,0,0,0,0-.3,0.15,0.15,0,0,0,0,.3h0Z"/><path class="cls-9" d="M39,48.15a0.15,0.15,0,0,0,0-.3,0.15,0.15,0,0,0,0,.3h0Z"/><path class="cls-9" d="M37.78,50.51a0.15,0.15,0,0,0,0-.3,0.15,0.15,0,0,0,0,.3h0Z"/><path class="cls-9" d="M34.29,54.28a0.15,0.15,0,0,0,0-.3,0.15,0.15,0,0,0,0,.3h0Z"/><path class="cls-9" d="M31.87,54.57a0.15,0.15,0,0,0,0-.3,0.15,0.15,0,0,0,0,.3h0Z"/><path class="cls-9" d="M34.86,47a0.15,0.15,0,0,0,0-.3,0.15,0.15,0,0,0,0,.3h0Z"/><path class="cls-9" d="M24.72,42a0.15,0.15,0,0,0,0-.3,0.15,0.15,0,0,0,0,.3h0Z"/></g><g class="cls-8"><path class="cls-9" d="M20.84,53.36a0.3,0.3,0,0,0,0-.6,0.3,0.3,0,0,0,0,.6h0Z"/><path class="cls-9" d="M22.87,52.07a0.3,0.3,0,0,0,0-.6,0.3,0.3,0,0,0,0,.6h0Z"/><path class="cls-9" d="M22.19,47.68a0.3,0.3,0,0,0,0-.6,0.3,0.3,0,0,0,0,.6h0Z"/><path class="cls-9" d="M27.37,46.83a0.3,0.3,0,0,0,0-.6,0.3,0.3,0,0,0,0,.6h0Z"/><path class="cls-9" d="M28.66,43.18a0.3,0.3,0,0,0,0-.6,0.3,0.3,0,0,0,0,.6h0Z"/><path class="cls-9" d="M34.13,41.37a0.3,0.3,0,0,0,0-.6,0.3,0.3,0,0,0,0,.6h0Z"/><path class="cls-9" d="M39.53,37.15a0.3,0.3,0,0,0,0-.6,0.3,0.3,0,0,0,0,.6h0Z"/><path class="cls-9" d="M40.77,35.52a0.3,0.3,0,0,0,0-.6,0.3,0.3,0,0,0,0,.6h0Z"/><path class="cls-9" d="M35.64,38.39a0.3,0.3,0,0,0,0-.6,0.3,0.3,0,0,0,0,.6h0Z"/><path class="cls-9" d="M33.73,47.17a0.3,0.3,0,0,0,0-.6,0.3,0.3,0,0,0,0,.6h0Z"/><path class="cls-9" d="M39.19,45.09a0.3,0.3,0,0,0,0-.6,0.3,0.3,0,0,0,0,.6h0Z"/><path class="cls-9" d="M38.85,49.2a0.3,0.3,0,0,0,0-.6,0.3,0.3,0,0,0,0,.6h0Z"/><path class="cls-9" d="M33.06,52.18a0.3,0.3,0,0,0,0-.6,0.3,0.3,0,0,0,0,.6h0Z"/><path class="cls-9" d="M32.89,54.49a0.3,0.3,0,0,0,0-.6,0.3,0.3,0,0,0,0,.6h0Z"/><path class="cls-9" d="M33.62,44.75a0.3,0.3,0,0,0,0-.6,0.3,0.3,0,0,0,0,.6h0Z"/><path class="cls-9" d="M37.16,52.41a0.3,0.3,0,0,0,0-.6,0.3,0.3,0,0,0,0,.6h0Z"/><path class="cls-9" d="M39.08,52.8a0.3,0.3,0,0,0,0-.6,0.3,0.3,0,0,0,0,.6h0Z"/><path class="cls-9" d="M38,53.87a0.3,0.3,0,0,0,0-.6,0.3,0.3,0,0,0,0,.6h0Z"/><path class="cls-9" d="M26.86,52.91a0.3,0.3,0,0,0,0-.6,0.3,0.3,0,0,0,0,.6h0Z"/><path class="cls-9" d="M25.63,52.24a0.3,0.3,0,0,0,0-.6,0.3,0.3,0,0,0,0,.6h0Z"/><path class="cls-9" d="M27.2,55a0.3,0.3,0,0,0,0-.6,0.3,0.3,0,0,0,0,.6h0Z"/><path class="cls-9" d="M26.19,49.71a0.3,0.3,0,0,0,0-.6,0.3,0.3,0,0,0,0,.6h0Z"/><path class="cls-9" d="M23.37,48.92a0.3,0.3,0,0,0,0-.6,0.3,0.3,0,0,0,0,.6h0Z"/><path class="cls-9" d="M33.34,49.37a0.3,0.3,0,0,0,0-.6,0.3,0.3,0,0,0,0,.6h0Z"/><path class="cls-9" d="M34.58,49.87a0.3,0.3,0,0,0,0-.6,0.3,0.3,0,0,0,0,.6h0Z"/><path class="cls-9" d="M38.68,44a0.3,0.3,0,0,0,0-.6,0.3,0.3,0,0,0,0,.6h0Z"/><path class="cls-9" d="M38.57,41.49a0.3,0.3,0,0,0,0-.6,0.3,0.3,0,0,0,0,.6h0Z"/><path class="cls-9" d="M40.26,41.77a0.3,0.3,0,0,0,0-.6,0.3,0.3,0,0,0,0,.6h0Z"/><path class="cls-9" d="M35.31,42.27a0.3,0.3,0,0,0,0-.6,0.3,0.3,0,0,0,0,.6h0Z"/><path class="cls-9" d="M40.54,39a0.3,0.3,0,0,0,0-.6,0.3,0.3,0,0,0,0,.6h0Z"/><path class="cls-9" d="M28.5,40.36a0.3,0.3,0,0,0,0-.6,0.3,0.3,0,0,0,0,.6h0Z"/><path class="cls-9" d="M40.88,34.34a0.3,0.3,0,0,0,0-.6,0.3,0.3,0,0,0,0,.6h0Z"/><path class="cls-9" d="M23,44.25a0.3,0.3,0,0,0,0-.6,0.3,0.3,0,0,0,0,.6h0Z"/><path class="cls-9" d="M35.93,36.48a0.3,0.3,0,0,0,0-.6,0.3,0.3,0,0,0,0,.6h0Z"/><path class="cls-9" d="M36.32,32.48a0.3,0.3,0,0,0,0-.6,0.3,0.3,0,0,0,0,.6h0Z"/><path class="cls-9" d="M36.88,54.6a0.3,0.3,0,0,0,0-.6,0.3,0.3,0,0,0,0,.6h0Z"/><path class="cls-9" d="M39.3,51.23a0.3,0.3,0,0,0,0-.6,0.3,0.3,0,0,0,0,.6h0Z"/><path class="cls-9" d="M39,46.95a0.3,0.3,0,0,0,0-.6,0.3,0.3,0,0,0,0,.6h0Z"/><path class="cls-9" d="M37.78,49.31a0.3,0.3,0,0,0,0-.6,0.3,0.3,0,0,0,0,.6h0Z"/><path class="cls-9" d="M34.29,53.08a0.3,0.3,0,0,0,0-.6,0.3,0.3,0,0,0,0,.6h0Z"/><path class="cls-9" d="M31.87,53.36a0.3,0.3,0,0,0,0-.6,0.3,0.3,0,0,0,0,.6h0Z"/><path class="cls-9" d="M34.86,45.82a0.3,0.3,0,0,0,0-.6,0.3,0.3,0,0,0,0,.6h0Z"/><path class="cls-9" d="M23.37,46.16a0.3,0.3,0,0,0,0-.6,0.3,0.3,0,0,0,0,.6h0Z"/></g></svg>