<svg id="Layer_1" data-name="Layer 1" xmlns="http://www.w3.org/2000/svg" viewBox="0 0 95 66.62"><defs><style>.cls-1{fill:#7f372a;}.cls-2,.cls-3{fill:#e2614b;}.cls-3{font-size:7.5px;font-family:Big John;}</style></defs><title>christmas_icons</title><path class="cls-1" d="M23.31,27.41l2.32-11.8s11.84,5.72,22.5,1.32c0,0,10.74-5,28-2.41l-4.36,3.86,5.79,5.76s-8-1.71-14.21.82a74.19,74.19,0,0,1-21.57,4.28S34.55,29.88,23.31,27.41Z"/><path class="cls-2" d="M23.74,27.53l1.07-5.44c0.19-1,1-6.21,1-6.16-0.24.13,4.31,1.77,5.17,2a30.5,30.5,0,0,0,12.36.8c4.45-.71,8.55-2.84,13-3.63a74.38,74.38,0,0,1,15.17-.65c2.66,0.07,5.23-1.07,2.47,1.36l-2.54,2.25a0.45,0.45,0,0,0,0,.64l3.88,3.86a10.31,10.31,0,0,1,1.81,1.8q0.89-.79,0-0.75-0.73-.12-1.46-0.21C71.21,22.2,66.15,23.56,62,25a72,72,0,0,1-38.53,2c-0.57-.12-0.81.75-0.24,0.87a72.51,72.51,0,0,0,27.35.92c9.11-1.54,17.43-6.09,26.88-4.2a0.45,0.45,0,0,0,.44-0.75c-1.37-1.37-4.58-3.44-5.22-5.18-0.21-.59-0.37-0.42-0.43-0.07a4.26,4.26,0,0,1,1.32-1.17c1-.74,1.94-1.72,2.89-2.55a0.45,0.45,0,0,0-.2-0.75c-8.89-1.2-18.09-1.09-26.66,1.81-7.92,2.68-16,3-23.7-.67a0.46,0.46,0,0,0-.66.27l-2.32,11.8C22.77,27.85,23.63,28.1,23.74,27.53Z"/><text class="cls-3" transform="matrix(0.94, 0.24, -0.24, 0.97, 24.55, 24.28)"> </text><text class="cls-3" transform="matrix(0.96, 0.16, -0.16, 0.99, 27.98, 25.15)">E</text><text class="cls-3" transform="matrix(0.97, 0.06, -0.06, 1, 32.68, 25.93)">D</text><text class="cls-3" transform="matrix(0.97, -0.04, 0.04, 1, 38.74, 26.22)">E</text><text class="cls-3" transform="translate(43.36 26.03) rotate(-6.06) scale(0.97 1)">N</text><text class="cls-3" transform="translate(49.3 25.39) rotate(-11.07) scale(0.97 1)">T</text><text class="cls-3" transform="translate(54.66 24.45) rotate(-20.75) scale(0.97 1)">O</text><text class="cls-3" transform="translate(60.3 22.23) rotate(-5.62) scale(0.97 1)">N</text><path class="cls-2" d="M24.32,14.67L16.68,55.88c-0.18.94,1.27,1.35,1.45,0.4l7.65-41.21c0.18-.94-1.27-1.35-1.45-0.4h0Z"/></svg>