<svg id="Layer_1" data-name="Layer 1" xmlns="http://www.w3.org/2000/svg" viewBox="0 0 95 95"><defs><style>.cls-1,.cls-12{fill:#f4d9c1;}.cls-2,.cls-4{fill:#406340;}.cls-2,.cls-6{stroke:#e5b000;}.cls-11,.cls-12,.cls-13,.cls-14,.cls-2{stroke-linecap:round;}.cls-11,.cls-12,.cls-14,.cls-2{stroke-linejoin:round;}.cls-2{stroke-width:0.5px;}.cls-14,.cls-3{fill:#442f21;}.cls-5{fill:#e5b000;}.cls-13,.cls-6{fill:none;stroke-miterlimit:10;}.cls-7{fill:#fff;}.cls-8{fill:#0a0c4a;}.cls-11,.cls-9{fill:#e5cbb5;}.cls-10{fill:#efbbd9;}.cls-11,.cls-12,.cls-13{stroke:#e5cbb5;}.cls-11,.cls-12,.cls-13,.cls-14{stroke-width:0.1px;}.cls-14{stroke:#442f21;}.cls-15{opacity:0.3;}.cls-16{fill:#95dd95;}</style></defs><title>christmas_icons</title><polygon class="cls-1" points="38.07 32.2 39.47 45.72 54.77 45.72 56.07 32.6 38.07 32.2"/><polygon class="cls-2" points="56.64 75.21 37.84 75.21 34.9 47.06 59.84 47.06 56.64 75.21"/><path class="cls-3" d="M38,33a5.64,5.64,0,0,0-3.84,4.68s-0.44,1.79,1.1,1c0,0,.11,4,1.32,2.2,0,0,1.1,3.17,2,2.2l16.9,0.18s1.17,0.51,1.68-2.11c0,0,1.61,1.6,1.72-3,0,0,2.63,1.2-.55-3.49a7.61,7.61,0,0,0-2-1.65C55.08,32.32,38,33,38,33Z"/><polygon class="cls-1" points="38.07 32.2 39.47 45.72 54.77 45.72 56.07 32.6 38.07 32.2"/><polygon class="cls-4" points="38.07 33.72 36.53 20.72 57.38 20.72 55.96 33.72 38.07 33.72"/><circle class="cls-5" cx="36.91" cy="25.8" r="1.54"/><circle class="cls-5" cx="56.98" cy="25.8" r="1.54"/><path class="cls-6" d="M36.91,25.8A18.72,18.72,0,0,0,46.81,29s6.91,0,10.17-3.21"/><circle class="cls-7" cx="43.56" cy="37.82" r="1.48"/><circle class="cls-8" cx="43.56" cy="37.82" r="0.72"/><circle class="cls-7" cx="43.85" cy="37.43" r="0.43"/><path class="cls-9" d="M41.77,37.82a2.26,2.26,0,0,1,3-1.32,3.56,3.56,0,0,0-2.07-.25A1.78,1.78,0,0,0,41.77,37.82Z"/><path class="cls-9" d="M41.92,37.86a2.13,2.13,0,0,1,2.78-1.21c0.16,0.05.27-.21,0.12-0.27a3.1,3.1,0,0,0-2.21-.25,2.06,2.06,0,0,0-1,1.66c0,0.19.26,0.27,0.29,0.08a1.87,1.87,0,0,1,.8-1.46,2.82,2.82,0,0,1,1.95.24l0.12-.27a2.43,2.43,0,0,0-3.15,1.42C41.56,38,41.85,38,41.92,37.86Z"/><circle class="cls-7" cx="50.77" cy="37.86" r="1.48"/><circle class="cls-8" cx="50.77" cy="37.86" r="0.72"/><circle class="cls-7" cx="51.06" cy="37.46" r="0.43"/><path class="cls-9" d="M52.64,37.82a2.26,2.26,0,0,0-3-1.32,3.56,3.56,0,0,1,2.07-.25A1.78,1.78,0,0,1,52.64,37.82Z"/><path class="cls-9" d="M52.78,37.78a2.43,2.43,0,0,0-3.15-1.42l0.12,0.27a2.8,2.8,0,0,1,1.95-.24,1.87,1.87,0,0,1,.8,1.46c0,0.19.32,0.11,0.29-.08a2.05,2.05,0,0,0-1-1.66,3.12,3.12,0,0,0-2.21.25c-0.16.07,0,.33,0.12,0.27a2.14,2.14,0,0,1,2.78,1.21C52.56,38,52.85,38,52.78,37.78Z"/><circle class="cls-10" cx="41.77" cy="41.3" r="1.43"/><circle class="cls-10" cx="52.64" cy="41.3" r="1.43"/><polygon class="cls-11" points="48.34 41.2 46.4 41.2 46.64 38.54 48.09 38.54 48.34 41.2"/><rect class="cls-12" x="44.48" y="44.37" width="5.78" height="2.81"/><rect class="cls-7" x="45.02" y="43.28" width="4.69" height="3.29"/><line class="cls-13" x1="45.05" y1="45.23" x2="49.69" y2="45.23"/><line class="cls-13" x1="46.23" y1="46.58" x2="46.23" y2="43.18"/><line class="cls-13" x1="47.35" y1="46.58" x2="47.35" y2="43.18"/><line class="cls-13" x1="48.62" y1="46.63" x2="48.62" y2="43.23"/><path class="cls-14" d="M53.23,42.12a0.77,0.77,0,0,0-1.35.09c0.67-.36.81,0.27,0.81,0.27a0.48,0.48,0,0,1-.08.6c-0.62.51-1.74-.39-1.74-0.39a3.78,3.78,0,0,0-1.81-1c-1.36,0-1.66.43-1.71,0.51,0-.08-0.35-0.51-1.71-0.51a3.78,3.78,0,0,0-1.81,1s-1.12.9-1.74,0.39a0.48,0.48,0,0,1-.08-0.6s0.14-.62.81-0.27a0.77,0.77,0,0,0-1.35-.09A1.48,1.48,0,0,0,42,44.29s1.16,1.09,4.42-.19a2.79,2.79,0,0,0,.9-0.59,2.79,2.79,0,0,0,.9.59c3.26,1.28,4.42.19,4.42,0.19A1.48,1.48,0,0,0,53.23,42.12Z"/><circle class="cls-5" cx="40.34" cy="51.94" r="1.54"/><circle class="cls-5" cx="54.07" cy="51.94" r="1.54"/><line class="cls-6" x1="40.34" y1="51.94" x2="54.31" y2="51.94"/><circle class="cls-5" cx="40.66" cy="56.85" r="1.54"/><circle class="cls-5" cx="54.39" cy="56.85" r="1.54"/><line class="cls-6" x1="40.66" y1="56.85" x2="54.63" y2="56.85"/><circle class="cls-5" cx="40.34" cy="62.3" r="1.54"/><circle class="cls-5" cx="54.07" cy="62.3" r="1.54"/><line class="cls-6" x1="40.34" y1="62.3" x2="54.31" y2="62.3"/><circle class="cls-1" cx="31.41" cy="71.59" r="2.35"/><rect class="cls-2" x="29.65" y="47.72" width="3.54" height="21.52"/><circle class="cls-1" cx="63.32" cy="71.59" r="2.35"/><rect class="cls-2" x="61.55" y="47.72" width="3.54" height="21.52"/><g class="cls-15"><path class="cls-16" d="M48.17,23.06a0.3,0.3,0,0,0,0-.6,0.3,0.3,0,0,0,0,.6h0Z"/><path class="cls-16" d="M52,23.72a0.3,0.3,0,0,0,0-.6,0.3,0.3,0,0,0,0,.6h0Z"/><path class="cls-16" d="M54.67,22.49a0.3,0.3,0,0,0,0-.6,0.3,0.3,0,0,0,0,.6h0Z"/><path class="cls-16" d="M53.85,26.19a0.3,0.3,0,0,0,0-.6,0.3,0.3,0,0,0,0,.6h0Z"/><path class="cls-16" d="M55,30.88a0.3,0.3,0,0,0,0-.6,0.3,0.3,0,0,0,0,.6h0Z"/><path class="cls-16" d="M51.71,33.11a0.3,0.3,0,0,0,0-.6,0.3,0.3,0,0,0,0,.6h0Z"/><path class="cls-16" d="M52.2,30.8a0.3,0.3,0,0,0,0-.6,0.3,0.3,0,0,0,0,.6h0Z"/><path class="cls-16" d="M54.67,33.43a0.3,0.3,0,0,0,0-.6,0.3,0.3,0,0,0,0,.6h0Z"/><path class="cls-16" d="M56.73,23a0.3,0.3,0,0,0,0-.6,0.3,0.3,0,0,0,0,.6h0Z"/><path class="cls-16" d="M56.4,21.83a0.3,0.3,0,0,0,0-.6,0.3,0.3,0,0,0,0,.6h0Z"/><path class="cls-16" d="M55.66,29.07a0.3,0.3,0,0,0,0-.6,0.3,0.3,0,0,0,0,.6h0Z"/><path class="cls-16" d="M54.59,29.73a0.3,0.3,0,0,0,0-.6,0.3,0.3,0,0,0,0,.6h0Z"/><path class="cls-16" d="M52,21.5a0.3,0.3,0,0,0,0-.6,0.3,0.3,0,0,0,0,.6h0Z"/></g><g class="cls-15"><path class="cls-16" d="M46.85,24.23a0.15,0.15,0,0,0,0-.3,0.15,0.15,0,0,0,0,.3h0Z"/><path class="cls-16" d="M50.64,24.89a0.15,0.15,0,0,0,0-.3,0.15,0.15,0,0,0,0,.3h0Z"/><path class="cls-16" d="M53.35,23.65a0.15,0.15,0,0,0,0-.3,0.15,0.15,0,0,0,0,.3h0Z"/><path class="cls-16" d="M52.53,27.36a0.15,0.15,0,0,0,0-.3,0.15,0.15,0,0,0,0,.3h0Z"/><path class="cls-16" d="M55,32a0.15,0.15,0,0,0,0-.3,0.15,0.15,0,0,0,0,.3h0Z"/><path class="cls-16" d="M53,33a0.15,0.15,0,0,0,0-.3,0.15,0.15,0,0,0,0,.3h0Z"/><path class="cls-16" d="M50.88,32a0.15,0.15,0,0,0,0-.3,0.15,0.15,0,0,0,0,.3h0Z"/><path class="cls-16" d="M49.4,21.43a0.15,0.15,0,0,0,0-.3,0.15,0.15,0,0,0,0,.3h0Z"/><path class="cls-16" d="M55.41,24.15a0.15,0.15,0,0,0,0-.3,0.15,0.15,0,0,0,0,.3h0Z"/><path class="cls-16" d="M55.08,23a0.15,0.15,0,0,0,0-.3,0.15,0.15,0,0,0,0,.3h0Z"/><path class="cls-16" d="M54.34,30.24a0.15,0.15,0,0,0,0-.3,0.15,0.15,0,0,0,0,.3h0Z"/><path class="cls-16" d="M53.27,30.9a0.15,0.15,0,0,0,0-.3,0.15,0.15,0,0,0,0,.3h0Z"/><path class="cls-16" d="M50.64,22.67a0.15,0.15,0,0,0,0-.3,0.15,0.15,0,0,0,0,.3h0Z"/></g><g class="cls-15"><path class="cls-16" d="M49.7,48.94a0.3,0.3,0,0,0,0-.6,0.3,0.3,0,0,0,0,.6h0Z"/><path class="cls-16" d="M56.95,49.49a0.3,0.3,0,0,0,0-.6,0.3,0.3,0,0,0,0,.6h0Z"/><path class="cls-16" d="M55.85,55.08a0.3,0.3,0,0,0,0-.6,0.3,0.3,0,0,0,0,.6h0Z"/><path class="cls-16" d="M54,49.38a0.3,0.3,0,0,0,0-.6,0.3,0.3,0,0,0,0,.6h0Z"/><path class="cls-16" d="M58,52.89a0.3,0.3,0,0,0,0-.6,0.3,0.3,0,0,0,0,.6h0Z"/><path class="cls-16" d="M58.92,48.72a0.3,0.3,0,0,0,0-.6,0.3,0.3,0,0,0,0,.6h0Z"/><path class="cls-16" d="M55.3,48.28a0.3,0.3,0,0,0,0-.6,0.3,0.3,0,0,0,0,.6h0Z"/><path class="cls-16" d="M56.84,57.72a0.3,0.3,0,0,0,0-.6,0.3,0.3,0,0,0,0,.6h0Z"/><path class="cls-16" d="M51.68,60.13a0.3,0.3,0,0,0,0-.6,0.3,0.3,0,0,0,0,.6h0Z"/><path class="cls-16" d="M52.12,55.52a0.3,0.3,0,0,0,0-.6,0.3,0.3,0,0,0,0,.6h0Z"/><path class="cls-16" d="M56,60.9a0.3,0.3,0,0,0,0-.6,0.3,0.3,0,0,0,0,.6h0Z"/><path class="cls-16" d="M56.4,62.77a0.3,0.3,0,0,0,0-.6,0.3,0.3,0,0,0,0,.6h0Z"/><path class="cls-16" d="M56.73,66.28a0.3,0.3,0,0,0,0-.6,0.3,0.3,0,0,0,0,.6h0Z"/><path class="cls-16" d="M54.75,66.5a0.3,0.3,0,0,0,0-.6,0.3,0.3,0,0,0,0,.6h0Z"/><path class="cls-16" d="M51.9,67.59a0.3,0.3,0,0,0,0-.6,0.3,0.3,0,0,0,0,.6h0Z"/><path class="cls-16" d="M53.87,70.45a0.3,0.3,0,0,0,0-.6,0.3,0.3,0,0,0,0,.6h0Z"/><path class="cls-16" d="M55.19,69.46a0.3,0.3,0,0,0,0-.6,0.3,0.3,0,0,0,0,.6h0Z"/><path class="cls-16" d="M55.41,74a0.3,0.3,0,0,0,0-.6,0.3,0.3,0,0,0,0,.6h0Z"/><path class="cls-16" d="M51.35,74a0.3,0.3,0,0,0,0-.6,0.3,0.3,0,0,0,0,.6h0Z"/><path class="cls-16" d="M52.78,73.08a0.3,0.3,0,0,0,0-.6,0.3,0.3,0,0,0,0,.6h0Z"/><path class="cls-16" d="M50.36,71.44a0.3,0.3,0,0,0,0-.6,0.3,0.3,0,0,0,0,.6h0Z"/><path class="cls-16" d="M48.17,66.39a0.3,0.3,0,0,0,0-.6,0.3,0.3,0,0,0,0,.6h0Z"/><path class="cls-16" d="M46.74,74.4a0.3,0.3,0,0,0,0-.6,0.3,0.3,0,0,0,0,.6h0Z"/><path class="cls-16" d="M49.37,54.31a0.3,0.3,0,0,0,0-.6,0.3,0.3,0,0,0,0,.6h0Z"/></g><g class="cls-15"><path class="cls-16" d="M48.39,50.1a0.15,0.15,0,0,0,0-.3,0.15,0.15,0,0,0,0,.3h0Z"/><path class="cls-16" d="M56.95,48a0.15,0.15,0,0,0,0-.3,0.15,0.15,0,0,0,0,.3h0Z"/><path class="cls-16" d="M57.17,54.93a0.15,0.15,0,0,0,0-.3,0.15,0.15,0,0,0,0,.3h0Z"/><path class="cls-16" d="M52.67,47.91a0.15,0.15,0,0,0,0-.3,0.15,0.15,0,0,0,0,.3h0Z"/><path class="cls-16" d="M56.73,51.42a0.15,0.15,0,0,0,0-.3,0.15,0.15,0,0,0,0,.3h0Z"/><path class="cls-16" d="M49.7,74.91a0.15,0.15,0,0,0,0-.3,0.15,0.15,0,0,0,0,.3h0Z"/><path class="cls-16" d="M55.3,71.83a0.15,0.15,0,0,0,0-.3,0.15,0.15,0,0,0,0,.3h0Z"/><path class="cls-16" d="M54.2,54.93a0.15,0.15,0,0,0,0-.3,0.15,0.15,0,0,0,0,.3h0Z"/><path class="cls-16" d="M50.36,58.66a0.15,0.15,0,0,0,0-.3,0.15,0.15,0,0,0,0,.3h0Z"/><path class="cls-16" d="M50.8,54.06a0.15,0.15,0,0,0,0-.3,0.15,0.15,0,0,0,0,.3h0Z"/><path class="cls-16" d="M54.64,59.43a0.15,0.15,0,0,0,0-.3,0.15,0.15,0,0,0,0,.3h0Z"/><path class="cls-16" d="M56.4,60a0.15,0.15,0,0,0,0-.3,0.15,0.15,0,0,0,0,.3h0Z"/><path class="cls-16" d="M55.41,64.81a0.15,0.15,0,0,0,0-.3,0.15,0.15,0,0,0,0,.3h0Z"/><path class="cls-16" d="M53.43,65a0.15,0.15,0,0,0,0-.3,0.15,0.15,0,0,0,0,.3h0Z"/><path class="cls-16" d="M50.58,66.13a0.15,0.15,0,0,0,0-.3,0.15,0.15,0,0,0,0,.3h0Z"/><path class="cls-16" d="M52.56,69a0.15,0.15,0,0,0,0-.3,0.15,0.15,0,0,0,0,.3h0Z"/><path class="cls-16" d="M53.87,68a0.15,0.15,0,0,0,0-.3,0.15,0.15,0,0,0,0,.3h0Z"/><path class="cls-16" d="M54.09,72.49a0.15,0.15,0,0,0,0-.3,0.15,0.15,0,0,0,0,.3h0Z"/><path class="cls-16" d="M50,72.49a0.15,0.15,0,0,0,0-.3,0.15,0.15,0,0,0,0,.3h0Z"/><path class="cls-16" d="M51.46,71.62a0.15,0.15,0,0,0,0-.3,0.15,0.15,0,0,0,0,.3h0Z"/><path class="cls-16" d="M49,70a0.15,0.15,0,0,0,0-.3,0.15,0.15,0,0,0,0,.3h0Z"/><path class="cls-16" d="M46.85,64.92a0.15,0.15,0,0,0,0-.3,0.15,0.15,0,0,0,0,.3h0Z"/><path class="cls-16" d="M45.42,72.93a0.15,0.15,0,0,0,0-.3,0.15,0.15,0,0,0,0,.3h0Z"/><path class="cls-16" d="M48.06,52.85a0.15,0.15,0,0,0,0-.3,0.15,0.15,0,0,0,0,.3h0Z"/></g></svg>