<svg id="Layer_1" data-name="Layer 1" xmlns="http://www.w3.org/2000/svg" viewBox="0 0 95 95"><defs><style>.cls-1{fill:#49756a;}.cls-2,.cls-3{fill:#5db59c;}.cls-3{font-size:7.5px;font-family:Big John;}</style></defs><title>christmas_icons</title><path class="cls-1" d="M18.86,43s5.82,9.23,22.24,13.14a114.61,114.61,0,0,0,18.26,1.27s11.73,0,19.68,5.46l-0.71-6.59,5.79-3.89S78.8,47.81,67,46c0,0-16.51-.3-21.09-2,0,0-15.08-3.29-24.17-13Z"/><path class="cls-2" d="M18.47,43.27c4.65,7.16,14.59,11.79,22.63,13.36,12.79,2.5,26.12-.78,37.71,6.66a0.45,0.45,0,0,0,.68-0.39c-0.15-1.37-1.14-5.57-.8-6.3,0.64-1.37,4.35-2.92,5.65-3.8a0.45,0.45,0,0,0,.09-0.71C77,45.82,66.77,45.77,57.59,45.18c-13-.84-26.18-4.91-35.55-14.49a0.45,0.45,0,0,0-.75.2l-2.87,12a0.45,0.45,0,0,0,.87.24L21.48,34a7.18,7.18,0,0,1,.49-2c0.7-1-1-.63.47,0.45,2,1.46,3.69,3.22,5.77,4.59A58,58,0,0,0,47.89,45c7.86,1.68,16.07.46,23.86,2.41,3.49,0.87,8.89,2.12,11.5,4.89,0.53,0.57.44,0.34,0.51-.19a6.14,6.14,0,0,1-1.6,1.08c-1.4.8-2.71,1.82-4,2.72a0.45,0.45,0,0,0-.22.39c0.08,0.75,1.14,6.06.69,6.41,0.93-.73-8.39-4.2-9.13-4.39-6-1.48-11.75-1.13-17.82-1.5-11.37-.7-25.65-3.66-32.37-14A0.45,0.45,0,0,0,18.47,43.27Z"/><path class="cls-2" d="M19.45,28.44L11.93,69.67c-0.34,1.89,2.55,2.7,2.89.8l7.53-41.23c0.34-1.89-2.55-2.7-2.89-.8h0Z"/><text class="cls-3" transform="translate(21.87 42.94) rotate(37) scale(0.97 1)">F</text><text class="cls-3" transform="translate(25.55 45.74) rotate(29.64) scale(0.97 1)">a</text><text class="cls-3" transform="matrix(0.89, 0.39, -0.4, 0.92, 30.88, 48.75)">y</text><text class="cls-3" transform="translate(36.27 51.03) rotate(18.15) scale(0.97 1)">e</text><text class="cls-3" transform="matrix(0.95, 0.23, -0.23, 0.97, 40.73, 52.49)">t</text><text class="cls-3" transform="translate(46.01 53.75) rotate(8.93) scale(0.97 1)">t</text><text class="cls-3" transform="translate(51.36 54.58) rotate(4.73) scale(0.97 1)">v</text><text class="cls-3" transform="matrix(0.97, -0.01, 0.01, 1, 57.57, 54.72)">i</text><text class="cls-3" transform="translate(60.08 54.68) rotate(1.1) scale(0.97 1)">l</text><text class="cls-3" transform="matrix(0.97, 0.07, -0.07, 1, 64.46, 54.76)">l</text><text class="cls-3" transform="matrix(0.96, 0.16, -0.16, 0.99, 68.79, 55.03)">e</text></svg>