<svg id="Layer_1" data-name="Layer 1" xmlns="http://www.w3.org/2000/svg" viewBox="0 0 62.52 63.17"><defs><style>.cls-1{fill:#28403a;}.cls-10,.cls-2,.cls-3,.cls-4,.cls-9{fill:none;stroke-linecap:round;stroke-linejoin:round;}.cls-2{stroke:#49756a;}.cls-3,.cls-9{stroke:#e2614b;}.cls-3,.cls-4{stroke-width:0.5px;}.cls-10,.cls-4{stroke:#994233;}.cls-5,.cls-8{fill:#49756a;}.cls-5{opacity:0.5;}.cls-6{fill:#994233;}.cls-7{fill:#e2614b;}.cls-10,.cls-9{stroke-width:0.3px;}.cls-11{font-size:10px;fill:#fff;font-family:Big John;}</style></defs><title>christmas_icons</title><polygon class="cls-1" points="8.8 53.56 19.53 25.05 36.66 42.57 8.8 53.56"/><polygon class="cls-1" points="8.8 53.56 19.53 25.05 36.66 42.57 8.8 53.56"/><path class="cls-1" d="M9.24,53.68l8.35-22.2c0.58-1.54,1.62-3.36,1.88-5a4.09,4.09,0,0,1,.37-1c0.45-.64-0.88-0.2-0.48,0,2.89,1.44,5.84,6,8.08,8.26,2.63,2.69,6.62,5.57,8.6,8.79,0.09,0.15,1-.47-0.44,0-1.59.48-3.14,1.24-4.68,1.84L8.68,53.13c-0.53.21-.3,1.08,0.24,0.87L36.78,43a0.46,0.46,0,0,0,.2-0.75L19.85,24.73a0.46,0.46,0,0,0-.75.2L8.37,53.44C8.16,54,9,54.22,9.24,53.68Z"/><ellipse class="cls-1" cx="28.67" cy="33.37" rx="4.16" ry="12.34" transform="translate(-15.2 30.05) rotate(-45)"/><path class="cls-2" d="M19.95,24.65c1.63-1.63,6.85,1,11.67,5.78"/><path class="cls-2" d="M31.62,30.43c4.82,4.82,7.41,10,5.78,11.67"/><path class="cls-3" d="M25.45,35.8A14,14,0,0,0,32.31,27a12.29,12.29,0,0,0-2-9.81"/><path class="cls-4" d="M26.72,36.69c1-1,5.87-6,13.24-5.89a16.66,16.66,0,0,1,7.26,1.86"/><path class="cls-5" d="M8.8,53.56l15-19.34a21.09,21.09,0,0,0,2.93,3.06Z"/><path class="cls-5" d="M8.8,53.56L21,30.43a18.76,18.76,0,0,0,1.4,2.1Z"/><path class="cls-2" d="M37.4,42.1c-1.63,1.63-6.85-1-11.67-5.78s-7.41-10-5.78-11.67"/><path class="cls-6" d="M11.55,23.42a0.6,0.6,0,0,0,0-1.2,0.6,0.6,0,0,0,0,1.2h0Z"/><path class="cls-6" d="M22.27,9.56a0.6,0.6,0,0,0,0-1.2,0.6,0.6,0,0,0,0,1.2h0Z"/><path class="cls-6" d="M37.58,12.57a0.6,0.6,0,0,0,0-1.2,0.6,0.6,0,0,0,0,1.2h0Z"/><path class="cls-6" d="M57.2,23.68a0.6,0.6,0,0,0,0-1.2,0.6,0.6,0,0,0,0,1.2h0Z"/><path class="cls-6" d="M45.3,38.46a0.6,0.6,0,0,0,0-1.2,0.6,0.6,0,0,0,0,1.2h0Z"/><path class="cls-6" d="M55.37,46.18a0.6,0.6,0,0,0,0-1.2,0.6,0.6,0,0,0,0,1.2h0Z"/><path class="cls-6" d="M35.22,55.08a0.6,0.6,0,0,0,0-1.2,0.6,0.6,0,0,0,0,1.2h0Z"/><path class="cls-7" d="M10.24,13.89a0.75,0.75,0,0,0,0-1.5,0.75,0.75,0,0,0,0,1.5h0Z"/><path class="cls-7" d="M2.52,34.43a0.75,0.75,0,0,0,0-1.5,0.75,0.75,0,0,0,0,1.5h0Z"/><path class="cls-7" d="M45,22.79a0.75,0.75,0,0,0,0-1.5,0.75,0.75,0,0,0,0,1.5h0Z"/><path class="cls-7" d="M45.69,6.7a0.75,0.75,0,0,0,0-1.5,0.75,0.75,0,0,0,0,1.5h0Z"/><path class="cls-7" d="M60.21,38.75a0.75,0.75,0,0,0,0-1.5,0.75,0.75,0,0,0,0,1.5h0Z"/><path class="cls-7" d="M42.55,57.45a0.75,0.75,0,0,0,0-1.5,0.75,0.75,0,0,0,0,1.5h0Z"/><rect class="cls-8" x="22.27" y="13.93" width="3.17" height="0.92"/><rect class="cls-8" x="52.2" y="30.8" width="3.17" height="0.92"/><rect class="cls-8" x="6.17" y="26.03" width="3.17" height="0.92" transform="translate(34.24 18.73) rotate(90)"/><rect class="cls-8" x="45.64" y="13.93" width="3.17" height="0.92" transform="matrix(0.33, 0.94, -0.94, 0.33, 45.07, -34.93)"/><rect class="cls-8" x="45.64" y="46.77" width="3.17" height="0.92" transform="translate(47.23 -19.56) rotate(45)"/><path class="cls-9" d="M34.35,25a9.56,9.56,0,0,0-1.64-7.88"/><path class="cls-10" d="M41.53,32.37a9.08,9.08,0,0,1,5.07,1.86"/><circle class="cls-7" cx="51.04" cy="11.14" r="9.72"/><text class="cls-11" transform="translate(44.56 14.95)">00</text></svg>