<svg id="Layer_1" data-name="Layer 1" xmlns="http://www.w3.org/2000/svg" viewBox="0 0 95 95"><defs><style>.cls-1{fill:#7f372a;}.cls-2,.cls-3{fill:#e2614b;}.cls-3{font-size:7.5px;font-family:Big John;}</style></defs><title>christmas_icons</title><path class="cls-1" d="M16.5,41.32s5.92-9.71,23.42-14.9A133.33,133.33,0,0,1,59.5,23.75s12.6-.87,21-7l-0.52,6.67,6.36,3.46s-5.55,5-18.18,7.74c0,0-17.72,1.57-22.59,3.62,0,0-16.09,4.46-25.5,14.94Z"/><path class="cls-2" d="M16.89,41.54c6.94-11.08,22-15,34.05-16.55,6.47-.85,12.72-0.93,19-2.81,0.83-.25,11-4.62,10-5.27,0.48,0.31-.45,5.7-0.51,6.52a0.44,0.44,0,0,0,.22.39l4.45,2.42a8.33,8.33,0,0,1,1.76,1c-0.07-.12.08-0.94-0.29-0.34C83.72,30,76,32,73,32.91c-8.14,2.47-16.86,2-25.09,4.13A67.58,67.58,0,0,0,28,45.85c-2,1.35-4.73,3-6.3,4.93-1.76,2.14-1.16,2.7-2-.14l-2.8-9.45a0.45,0.45,0,0,0-.87.24L19.58,53.3a0.45,0.45,0,0,0,.75.2C29.85,43.35,43.48,38.2,57,36.34c10.16-1.4,21.47-2,29.61-9.13a0.45,0.45,0,0,0-.09-0.71c-1.49-.81-5.47-2.2-6.17-3.3-0.52-.83.45-5,0.55-6.44a0.45,0.45,0,0,0-.68-0.39c-12.09,8.35-26.56,6.14-40.14,9.56-8.54,2.15-19.1,7.37-24,15.16A0.45,0.45,0,0,0,16.89,41.54Z"/><text class="cls-3" transform="translate(24.78 44.15) rotate(-32.98) scale(0.97 1)">W</text><text class="cls-3" transform="translate(32.39 39.39) rotate(-27.2) scale(0.97 1)">i</text><text class="cls-3" transform="matrix(0.9, -0.38, 0.39, 0.92, 34.55, 38.23)">l</text><text class="cls-3" transform="translate(38.56 36.58) rotate(-17.72) scale(0.97 1)">m</text><text class="cls-3" transform="translate(45.01 34.66) rotate(-11.32) scale(0.97 1)">i</text><text class="cls-3" transform="translate(47.39 34.11) rotate(-6.31) scale(0.97 1)">n</text><text class="cls-3" transform="translate(52.55 33.52) rotate(0.24) scale(0.97 1)">g</text><text class="cls-3" transform="translate(59.15 33.44) rotate(-9.08) scale(0.97 1)">t</text><text class="cls-3" transform="translate(64.4 32.64) rotate(-16.5) scale(0.97 1)">o</text><text class="cls-3" transform="matrix(0.87, -0.43, 0.45, 0.89, 70.99, 30.63)">n</text><path class="cls-2" d="M14.71,40.56L26.62,80.74c0.55,1.85,3.44,1.06,2.89-.8L17.6,39.76c-0.55-1.85-3.44-1.06-2.89.8h0Z"/></svg>