<svg id="Layer_1" data-name="Layer 1" xmlns="http://www.w3.org/2000/svg" viewBox="0 0 95 95"><defs><style>.cls-1{fill:#28403a;}.cls-2{fill:#679967;}.cls-3{fill:#406340;}.cls-4{fill:#49756a;}.cls-5{fill:#e5b000;}.cls-6{fill:#bf9300;}.cls-7{fill:#994233;}.cls-8{fill:#7f372a;}.cls-9{opacity:0.5;}.cls-10{fill:#95dd95;}.cls-11{fill:#ffecae;}.cls-12{fill:#e2614b;}.cls-13,.cls-14,.cls-15{fill:none;stroke-linecap:round;stroke-miterlimit:10;stroke-width:0.5px;}.cls-13{stroke:#e2614b;}.cls-14{stroke:#406340;}.cls-15{stroke:#bf9300;}</style></defs><title>christmas_icons</title><path class="cls-1" d="M32.64,57c4.49-2.07,8-4.93,11.73-8.08,4.9-4.14,9-5.17,15.2-2.67,0.54,0.22.77-.65,0.24-0.87-4.46-1.81-8.51-2.41-12.71.26C41.85,49,38,53.55,32.18,56.21c-0.53.24-.07,1,0.45,0.78h0Z"/><ellipse class="cls-2" cx="64.96" cy="35.84" rx="8.14" ry="4.2" transform="translate(6.19 81.12) rotate(-66.5)"/><path class="cls-3" d="M61.49,34.39c0.94-2,2.25-4.39,4.37-5.36,5.09-2.34,3.44,6.15,2.55,8.23s-2.55,5.09-5,5.59c-4.67.94-2.64-6.52-1.83-8.56,0.21-.54-0.66-0.77-0.87-0.24-1,2.47-2.66,8.57,1.16,9.77,3.39,1.06,6.33-3.66,7.4-6.12s2.61-8.33-.9-9.75-6.48,3.59-7.61,6C60.47,34.45,61.24,34.91,61.49,34.39Z"/><rect class="cls-4" x="59.07" y="41.91" width="4.53" height="4.53" transform="translate(-3.63 82.81) rotate(-66.5)"/><path class="cls-1" d="M62.73,46.77L58.58,45l0.16,0.62,1.81-4.15-0.62.16,4.15,1.81-0.16-.62-1.81,4.15c-0.23.53,0.55,1,.78,0.45l1.81-4.15a0.46,0.46,0,0,0-.16-0.62l-4.15-1.81a0.46,0.46,0,0,0-.62.16L58,45.12a0.46,0.46,0,0,0,.16.62l4.15,1.81C62.8,47.77,63.26,47,62.73,46.77Z"/><ellipse class="cls-5" cx="52.89" cy="56.15" rx="4.2" ry="8.14" transform="translate(-20.51 32.43) rotate(-28.81)"/><path class="cls-6" d="M56.18,54.35c0.91,1.78,3.69,9.72-1.27,8.66-2.38-.5-4.24-3.1-5.32-5.07-0.88-1.61-3.37-7.63-.05-8.69,2.8-.9,5.53,3.2,6.64,5.09A0.45,0.45,0,0,0,57,53.89c-1.37-2.33-4.84-7.05-8.17-5.29s-1.28,7.42,0,9.8,4.83,7,8.12,5.31c3.47-1.74,1.25-7.42,0-9.82C56.7,53.38,55.92,53.83,56.18,54.35Z"/><rect class="cls-4" x="46.24" y="45.91" width="4.53" height="4.53" transform="translate(-17.21 29.34) rotate(-28.81)"/><path class="cls-1" d="M45.66,47.67l4-2.18L49,45.33l2.18,4,0.16-.62-4,2.18L48,51l-2.18-4a0.45,0.45,0,0,0-.78.45l2.18,4a0.46,0.46,0,0,0,.62.16l4-2.18A0.46,0.46,0,0,0,52,48.84l-2.18-4a0.46,0.46,0,0,0-.62-0.16l-4,2.18A0.45,0.45,0,0,0,45.66,47.67Z"/><ellipse class="cls-7" cx="28.66" cy="45.52" rx="4.2" ry="8.14" transform="translate(-18.93 20.46) rotate(-30.03)"/><path class="cls-8" d="M25.41,47.4c-1-1.89-3.9-9.54,1.07-8.7,2.36,0.4,4.35,3.07,5.43,4.95,1,1.71,3.3,7,.59,8.54s-6-3-7.1-4.78a0.45,0.45,0,0,0-.78.45c1.42,2.3,4.82,6.77,8.1,5.2,3.54-1.69,1.32-7.5,0-9.87s-4.64-6.48-7.88-5.3c-3.92,1.42-1.44,7.62-.18,10A0.45,0.45,0,0,0,25.41,47.4Z"/><rect class="cls-4" x="30.95" y="51.13" width="4.53" height="4.53" transform="translate(-22.26 23.79) rotate(-30.03)"/><path class="cls-1" d="M36.08,53.83l-3.92,2.27,0.62,0.16-2.27-3.92L30.35,53l3.92-2.27-0.62-.16,2.27,3.92A0.45,0.45,0,0,0,36.7,54l-2.27-3.92a0.46,0.46,0,0,0-.62-0.16l-3.92,2.27a0.46,0.46,0,0,0-.16.62L32,56.71a0.46,0.46,0,0,0,.62.16l3.92-2.27A0.45,0.45,0,0,0,36.08,53.83Z"/><g class="cls-9"><g class="cls-9"><path class="cls-10" d="M66.47,29.1a0.3,0.3,0,0,0,0-.6,0.3,0.3,0,0,0,0,.6h0Z"/></g><g class="cls-9"><path class="cls-10" d="M67,36.08a0.3,0.3,0,0,0,0-.6,0.3,0.3,0,0,0,0,.6h0Z"/></g><g class="cls-9"><path class="cls-10" d="M67.9,38.35a0.3,0.3,0,0,0,0-.6,0.3,0.3,0,0,0,0,.6h0Z"/></g><g class="cls-9"><path class="cls-10" d="M64.34,37.2a0.3,0.3,0,0,0,0-.6,0.3,0.3,0,0,0,0,.6h0Z"/></g><g class="cls-9"><path class="cls-10" d="M68.46,33a0.3,0.3,0,0,0,0-.6,0.3,0.3,0,0,0,0,.6h0Z"/></g><g class="cls-9"><path class="cls-10" d="M63.69,41.08a0.3,0.3,0,0,0,0-.6,0.3,0.3,0,0,0,0,.6h0Z"/></g><g class="cls-9"><path class="cls-10" d="M64.2,32.11a0.3,0.3,0,0,0,0-.6,0.3,0.3,0,0,0,0,.6h0Z"/></g><g class="cls-9"><path class="cls-10" d="M66.47,30.47a0.15,0.15,0,0,0,0-.3,0.15,0.15,0,0,0,0,.3h0Z"/></g><g class="cls-9"><path class="cls-10" d="M67,37.45a0.15,0.15,0,0,0,0-.3,0.15,0.15,0,0,0,0,.3h0Z"/></g><g class="cls-9"><path class="cls-10" d="M67.9,39.72a0.15,0.15,0,0,0,0-.3,0.15,0.15,0,0,0,0,.3h0Z"/></g><g class="cls-9"><path class="cls-10" d="M64.34,38.57a0.15,0.15,0,0,0,0-.3,0.15,0.15,0,0,0,0,.3h0Z"/></g><g class="cls-9"><path class="cls-10" d="M68.46,34.36a0.15,0.15,0,0,0,0-.3,0.15,0.15,0,0,0,0,.3h0Z"/></g><g class="cls-9"><path class="cls-10" d="M63.69,42.45a0.15,0.15,0,0,0,0-.3,0.15,0.15,0,0,0,0,.3h0Z"/></g><g class="cls-9"><path class="cls-10" d="M64.2,33.48a0.15,0.15,0,0,0,0-.3,0.15,0.15,0,0,0,0,.3h0Z"/></g></g><g class="cls-9"><g class="cls-9"><path class="cls-11" d="M52.12,57a0.3,0.3,0,0,0,0-.6,0.3,0.3,0,0,0,0,.6h0Z"/><path class="cls-11" d="M50,54.15a0.3,0.3,0,0,0,0-.6,0.3,0.3,0,0,0,0,.6h0Z"/><path class="cls-11" d="M49.09,52.44a0.3,0.3,0,0,0,0-.6,0.3,0.3,0,0,0,0,.6h0Z"/><path class="cls-11" d="M50.79,58.7a0.3,0.3,0,0,0,0-.6,0.3,0.3,0,0,0,0,.6h0Z"/><path class="cls-11" d="M54.2,61.73a0.3,0.3,0,0,0,0-.6,0.3,0.3,0,0,0,0,.6h0Z"/><path class="cls-11" d="M56.48,61a0.3,0.3,0,0,0,0-.6,0.3,0.3,0,0,0,0,.6h0Z"/></g><g class="cls-9"><path class="cls-11" d="M52.12,55.32a0.15,0.15,0,0,0,0-.3,0.15,0.15,0,0,0,0,.3h0Z"/></g><g class="cls-9"><path class="cls-11" d="M50,52.48a0.15,0.15,0,0,0,0-.3,0.15,0.15,0,0,0,0,.3h0Z"/></g><g class="cls-9"><path class="cls-11" d="M49.09,50.77a0.15,0.15,0,0,0,0-.3,0.15,0.15,0,0,0,0,.3h0Z"/></g><g class="cls-9"><path class="cls-11" d="M50.79,57a0.15,0.15,0,0,0,0-.3,0.15,0.15,0,0,0,0,.3h0Z"/></g><g class="cls-9"><path class="cls-11" d="M54.2,60.06a0.15,0.15,0,0,0,0-.3,0.15,0.15,0,0,0,0,.3h0Z"/></g><g class="cls-9"><path class="cls-11" d="M56.48,59.3a0.15,0.15,0,0,0,0-.3,0.15,0.15,0,0,0,0,.3h0Z"/></g></g><g class="cls-9"><path class="cls-12" d="M31.83,44.29a0.3,0.3,0,0,0,0-.6,0.3,0.3,0,0,0,0,.6h0Z"/><path class="cls-12" d="M32,47.7a0.3,0.3,0,0,0,0-.6,0.3,0.3,0,0,0,0,.6h0Z"/><path class="cls-12" d="M29,44.67a0.3,0.3,0,0,0,0-.6,0.3,0.3,0,0,0,0,.6h0Z"/><path class="cls-12" d="M24.63,40.5a0.3,0.3,0,0,0,0-.6,0.3,0.3,0,0,0,0,.6h0Z"/><path class="cls-12" d="M27.09,40.69a0.3,0.3,0,0,0,0-.6,0.3,0.3,0,0,0,0,.6h0Z"/><path class="cls-12" d="M33.16,49.79a0.3,0.3,0,0,0,0-.6,0.3,0.3,0,0,0,0,.6h0Z"/><path class="cls-12" d="M28.8,42.2a0.3,0.3,0,0,0,0-.6,0.3,0.3,0,0,0,0,.6h0Z"/><path class="cls-12" d="M30.3,44.08a0.15,0.15,0,0,0,0-.3,0.15,0.15,0,0,0,0,.3h0Z"/><path class="cls-12" d="M30.56,47.49a0.15,0.15,0,0,0,0-.3,0.15,0.15,0,0,0,0,.3h0Z"/><path class="cls-12" d="M27.46,44.52a0.15,0.15,0,0,0,0-.3,0.15,0.15,0,0,0,0,.3h0Z"/><path class="cls-12" d="M26.06,38.91a0.15,0.15,0,0,0,0-.3,0.15,0.15,0,0,0,0,.3h0Z"/><path class="cls-12" d="M25.49,40.57a0.15,0.15,0,0,0,0-.3,0.15,0.15,0,0,0,0,.3h0Z"/><path class="cls-12" d="M31.73,49.55a0.15,0.15,0,0,0,0-.3,0.15,0.15,0,0,0,0,.3h0Z"/><path class="cls-12" d="M27.23,42.05a0.15,0.15,0,0,0,0-.3,0.15,0.15,0,0,0,0,.3h0Z"/><path class="cls-12" d="M29.09,40.43a0.15,0.15,0,0,0,0-.3,0.15,0.15,0,0,0,0,.3h0Z"/></g><line class="cls-13" x1="22.82" y1="48.52" x2="19.9" y2="49.77"/><line class="cls-13" x1="20.05" y1="40.62" x2="16.82" y2="39.99"/><line class="cls-13" x1="24.12" y1="36.33" x2="23.14" y2="33.33"/><line class="cls-13" x1="35.05" y1="42.1" x2="37.35" y2="40.42"/><line class="cls-13" x1="31.35" y1="36.77" x2="33" y2="34.21"/><line class="cls-14" x1="59.25" y1="32.33" x2="56.68" y2="30.46"/><line class="cls-14" x1="64.63" y1="25.92" x2="63.52" y2="22.82"/><line class="cls-14" x1="70.4" y1="27.23" x2="72.48" y2="24.86"/><line class="cls-14" x1="71.01" y1="39.58" x2="73.62" y2="40.7"/><line class="cls-14" x1="73.71" y1="33.68" x2="76.75" y2="33.79"/><line class="cls-15" x1="59.36" y1="53.75" x2="62.24" y2="52.4"/><line class="cls-15" x1="62.39" y1="61.55" x2="65.64" y2="62.07"/><line class="cls-15" x1="58.47" y1="65.98" x2="59.55" y2="68.94"/><line class="cls-15" x1="47.35" y1="60.57" x2="45.11" y2="62.33"/><line class="cls-15" x1="51.23" y1="65.78" x2="49.66" y2="68.39"/></svg>