<svg id="Layer_1" data-name="Layer 1" xmlns="http://www.w3.org/2000/svg" viewBox="0 0 95 66.62"><defs><style>.cls-1{fill:#49756a;}.cls-2,.cls-3{fill:#5db59c;}.cls-3{font-size:7.5px;font-family:Big John;}</style></defs><title>christmas_icons</title><path class="cls-1" d="M6.36,21.58s10.92,6.45,32.72,4a190.63,190.63,0,0,0,23-5.59s14.42-4.38,26.45-2.2L85,11.93,90.5,6.15s-8.43-2.33-23.69.38c0,0-20.44,5.84-26.77,6,0,0-19.9,2.52-35-3.21Z"/><path class="cls-2" d="M6.13,22c9.31,5.38,23.1,5.53,33.29,4,16.53-2.44,31.89-10.42,49-7.74a0.46,0.46,0,0,0,.51-0.66c-0.78-1.29-3.47-5.3-3.41-5.58,0.42-1.68,4.09-4.26,5.31-5.54a0.45,0.45,0,0,0-.2-0.75c-12.44-3.29-25.18,1-37.19,3.87C37.76,13.36,20.5,14.36,5.11,8.85a0.45,0.45,0,0,0-.57.43l1.37,12.3c0.06,0.57,1,.58.9,0C6.44,18.27,5.17,14,5.59,10.69c0.24-1.85-.94-0.68.71-0.46,1.4,0.19,3,.93,4.42,1.27a70.07,70.07,0,0,0,10.57,1.65,92.27,92.27,0,0,0,24.68-1c9.9-1.87,19.38-5.51,29.47-6.27a63.67,63.67,0,0,1,9.9,0c1.18,0.1,3.68-.1,4.65.65,0.66,0.51.19-1,0-.42a8.05,8.05,0,0,1-1.6,1.67l-3.71,3.87a0.46,0.46,0,0,0-.07.55l1.78,2.95A13,13,0,0,1,87.48,17c0.64,1.66.84,0.09-.42,0.17-4.79.28-9.47-.42-14.32,0.23-8.26,1.1-16,4-24.13,5.84-13,3-29.83,5-42-2A0.45,0.45,0,0,0,6.13,22Z"/><path class="cls-2" d="M3.61,7.6l7.6,56.31c0.13,1,1.57.55,1.45-.4L5.05,7.2c-0.13-1-1.57-.55-1.45.4h0Z"/><text class="cls-3" transform="translate(8.58 19.19) rotate(20.05) scale(0.97 1)">w</text><text class="cls-3" transform="matrix(0.95, 0.21, -0.22, 0.98, 17.58, 22.23)">i</text><text class="cls-3" transform="translate(20.34 22.92) rotate(7.15) scale(0.97 1)">n</text><text class="cls-3" transform="matrix(0.97, 0, 0, 1, 26.37, 23.62)">s</text><text class="cls-3" transform="translate(31.12 23.6) rotate(-8.1) scale(0.97 1)">t</text><text class="cls-3" transform="matrix(0.95, -0.21, 0.21, 0.98, 36.16, 22.87)">o</text><text class="cls-3" transform="translate(42.37 21.49) rotate(-13.28) scale(0.97 1)">n</text><text class="cls-3" transform="translate(47.92 20.18) rotate(-13.24) scale(0.97 1)">-</text><text class="cls-3" transform="matrix(0.95, -0.22, 0.23, 0.97, 51.2, 19.41)">s</text><text class="cls-3" transform="translate(55.34 18.46) rotate(-15.76) scale(0.97 1)">a</text><text class="cls-3" transform="translate(61.2 16.77) rotate(-14.67) scale(0.97 1)">l</text><text class="cls-3" transform="translate(65.4 15.65) rotate(-10.44) scale(0.97 1)">e</text><text class="cls-3" transform="translate(69.63 14.81) rotate(-4.11) scale(0.97 1)">m</text></svg>