<svg id="Layer_1" data-name="Layer 1" xmlns="http://www.w3.org/2000/svg" viewBox="0 0 95 65.51"><defs><style>.cls-1{fill:#7f372a;}.cls-2,.cls-3{fill:#e2614b;}.cls-3{font-size:7.5px;font-family:Big John;}</style></defs><title>christmas_icons</title><path class="cls-1" d="M18.56,25.25s8.15-.07,16.25-8c0,0,4.92-5.29,15.39-6.1,0,0,12.16-1.25,18.71-9.16L70.15,10l7.58,0.48s-2.32,5.87-14.05,11.1c0,0-3,1.71-10.77,2.91a24.39,24.39,0,0,0-10.68,5.32s-9.41,7.67-19,8.4Z"/><path class="cls-2" d="M18.56,25.7c5-.13,10-2.73,13.79-5.7,1.71-1.34,3.16-3,5-4.19,3.93-2.67,8.32-3.53,12.93-4.22A35.71,35.71,0,0,0,63.45,7.13,16.64,16.64,0,0,0,67.32,4.3c1.21-1.36.89-2.57,1.38-.74a62.08,62.08,0,0,1,1,6.6,0.45,0.45,0,0,0,.43.33c1.37,0.09,6.54-.44,7.43.47-0.81-.83-0.19-0.12-1.06.74-1.11,1.1-2,2.39-3.15,3.43a38.15,38.15,0,0,1-11.51,6.78c-3.69,1.4-7.65,1.58-11.36,2.79-8.11,2.65-13.79,9.56-22.16,12.08-0.74.22-4,1.59-4.68,1.26a6,6,0,0,1-.42-1.15c-0.79-1.05-1.12-3.1-1.57-4.34L19,25.13c-0.2-.54-1.07-0.31-0.87.24l4.71,13a0.46,0.46,0,0,0,.43.33C29.75,38,35.71,35.11,41,31.35a38.63,38.63,0,0,1,15.54-7c7.54-1.6,18.37-6,21.6-13.59a0.46,0.46,0,0,0-.39-0.68l-3.79-.24c-0.73,0-3.71-.41-3.38,0-1.13-1.24-.95-6.15-1.22-7.92a0.45,0.45,0,0,0-.75-0.2c-4.21,4.72-10,7.42-16.15,8.66-4,.8-7.85,1-11.65,2.61C32.91,16.3,27.89,24.56,18.56,24.8A0.45,0.45,0,0,0,18.56,25.7Z"/><text class="cls-3" transform="translate(23.84 33.6) rotate(-8.26) scale(0.97 1)">C</text><text class="cls-3" transform="translate(30.55 32.4) rotate(-29.08) scale(0.97 1)">h</text><text class="cls-3" transform="translate(36.06 29.23) rotate(-40.96) scale(0.97 1)">a</text><text class="cls-3" transform="translate(40.42 24.84) rotate(-34.34) scale(0.97 1)">r</text><text class="cls-3" transform="translate(44.75 21.97) rotate(-16.81) scale(0.97 1)">l</text><text class="cls-3" transform="translate(48.51 20.7) rotate(-2.67) scale(0.97 1)">o</text><text class="cls-3" transform="translate(55.39 20.24) rotate(-13.75) scale(0.97 1)">t</text><text class="cls-3" transform="translate(60.98 18.8) rotate(-24.83) scale(0.97 1)">t</text><text class="cls-3" transform="matrix(0.78, -0.58, 0.6, 0.8, 66.2, 16.25)">e</text><path class="cls-2" d="M16.28,23.6L30.61,63c0.33,0.9,1.78.51,1.45-.4L17.73,23.2c-0.33-.9-1.78-0.51-1.45.4h0Z"/></svg>