<svg id="Layer_1" data-name="Layer 1" xmlns="http://www.w3.org/2000/svg" viewBox="0 0 95 66.62"><defs><style>.cls-1{fill:#7f372a;}.cls-2,.cls-3{fill:#e2614b;}.cls-3{font-size:7.5px;font-family:Big John;}</style></defs><title>christmas_icons</title><path class="cls-1" d="M26,29.18L24.36,13.64s20.27,4,37.5-8.82l-0.72,9.25,7.21,5.14S56.8,29.64,26,29.18Z"/><path class="cls-2" d="M26.46,29.18l-1-9.21c-0.18-1.71-.24-3.48-0.55-5.17-0.27-1.47-.76-0.56,0-0.6,3.26-.15,6.62.57,9.94,0.4A52.71,52.71,0,0,0,51.76,11a33.52,33.52,0,0,0,7.44-3.78C59.37,7.07,62.13,5.38,61.4,5a5.56,5.56,0,0,1-.05.67c0.26,0.62-.17,2.17-0.22,2.84-0.14,1.87-1,4.63,0,6.18,0.75,1.15,3,2.13,4.12,2.94,0.66,0.47,1.34.92,2,1.42,0.92,0.71.51,0.41,0.7,0-0.43,1-3.22,2.15-4.08,2.61C52.48,27.67,38.72,28.83,26,28.73a0.45,0.45,0,0,0,0,.9c11.2,0.09,22.71-.9,33.25-5,3.25-1.26,6.77-2.77,9.42-5.11a0.46,0.46,0,0,0-.09-0.71c-1.63-1.17-6.44-3.55-7-5-0.71-1.7.59-6.75,0.77-9a0.45,0.45,0,0,0-.68-0.39c-10.41,7.41-24.4,11.17-37.15,8.77a0.46,0.46,0,0,0-.57.43l1.65,15.53C25.62,29.75,26.52,29.75,26.46,29.18Z"/><path class="cls-2" d="M24,11.77L26,63.5a0.75,0.75,0,0,0,1.5,0L25.53,11.77a0.75,0.75,0,0,0-1.5,0h0Z"/><text class="cls-3" transform="translate(30.28 24.06) rotate(1.08) scale(0.97 1)">B</text><text class="cls-3" transform="translate(35.79 24.17) rotate(-5.1) scale(0.97 1)">O</text><text class="cls-3" transform="translate(42.38 23.57) rotate(-11.74) scale(0.97 1)">O</text><text class="cls-3" transform="translate(48.93 22.16) rotate(-18.31) scale(0.97 1)">N</text><text class="cls-3" transform="matrix(0.89, -0.39, 0.4, 0.92, 54.61, 20.24)">E</text></svg>