<svg id="Layer_1" data-name="Layer 1" xmlns="http://www.w3.org/2000/svg" viewBox="0 0 95 95"><defs><style>.cls-1{fill:#28403a;}.cls-10,.cls-2,.cls-3,.cls-4,.cls-9{fill:none;stroke-linecap:round;stroke-linejoin:round;}.cls-2{stroke:#49756a;}.cls-3,.cls-9{stroke:#e2614b;}.cls-3,.cls-4{stroke-width:0.5px;}.cls-10,.cls-4{stroke:#994233;}.cls-5,.cls-8{fill:#49756a;}.cls-5{opacity:0.5;}.cls-6{fill:#994233;}.cls-7{fill:#e2614b;}.cls-10,.cls-9{stroke-width:0.3px;}</style></defs><title>christmas_icons</title><polygon class="cls-1" points="23.22 69.11 33.95 40.6 51.09 58.13 23.22 69.11"/><polygon class="cls-1" points="23.22 69.11 33.95 40.6 51.09 58.13 23.22 69.11"/><path class="cls-1" d="M23.66,69.23L32,47c0.58-1.54,1.62-3.36,1.88-5a4.09,4.09,0,0,1,.37-1c0.45-.64-0.88-0.2-0.48,0,2.89,1.44,5.84,6,8.08,8.26,2.63,2.69,6.62,5.57,8.6,8.79,0.09,0.15,1-.47-0.44,0-1.59.48-3.14,1.24-4.68,1.84L23.1,68.68c-0.53.21-.3,1.08,0.24,0.87l27.86-11a0.46,0.46,0,0,0,.2-0.75L34.27,40.28a0.46,0.46,0,0,0-.75.2L22.79,69C22.59,69.54,23.46,69.77,23.66,69.23Z"/><ellipse class="cls-1" cx="43.1" cy="48.93" rx="4.16" ry="12.34" transform="translate(-21.97 44.8) rotate(-45)"/><path class="cls-2" d="M34.37,40.2C36,38.58,41.22,41.16,46,46"/><path class="cls-2" d="M46,46c4.82,4.82,7.41,10,5.78,11.67"/><path class="cls-3" d="M39.87,51.36a14,14,0,0,0,6.87-8.83,12.29,12.29,0,0,0-2-9.81"/><path class="cls-4" d="M41.14,52.24c1-1,5.87-6,13.24-5.89a16.66,16.66,0,0,1,7.26,1.86"/><path class="cls-5" d="M23.22,69.11l15-19.34a21.09,21.09,0,0,0,2.93,3.06Z"/><path class="cls-5" d="M23.22,69.11L35.47,46a18.76,18.76,0,0,0,1.4,2.1Z"/><path class="cls-2" d="M51.82,57.65c-1.63,1.63-6.85-1-11.67-5.78s-7.41-10-5.78-11.67"/><path class="cls-6" d="M26,39a0.6,0.6,0,0,0,0-1.2A0.6,0.6,0,0,0,26,39h0Z"/><path class="cls-6" d="M36.7,25.11a0.6,0.6,0,0,0,0-1.2,0.6,0.6,0,0,0,0,1.2h0Z"/><path class="cls-6" d="M52,28.12a0.6,0.6,0,0,0,0-1.2,0.6,0.6,0,0,0,0,1.2h0Z"/><path class="cls-6" d="M71.62,39.24a0.6,0.6,0,0,0,0-1.2,0.6,0.6,0,0,0,0,1.2h0Z"/><path class="cls-6" d="M59.72,54a0.6,0.6,0,0,0,0-1.2,0.6,0.6,0,0,0,0,1.2h0Z"/><path class="cls-6" d="M69.79,61.73a0.6,0.6,0,0,0,0-1.2,0.6,0.6,0,0,0,0,1.2h0Z"/><path class="cls-6" d="M49.65,70.63a0.6,0.6,0,0,0,0-1.2,0.6,0.6,0,0,0,0,1.2h0Z"/><path class="cls-7" d="M24.66,29.44a0.75,0.75,0,0,0,0-1.5,0.75,0.75,0,0,0,0,1.5h0Z"/><path class="cls-7" d="M16.95,50a0.75,0.75,0,0,0,0-1.5,0.75,0.75,0,0,0,0,1.5h0Z"/><path class="cls-7" d="M59.46,38.34a0.75,0.75,0,0,0,0-1.5,0.75,0.75,0,0,0,0,1.5h0Z"/><path class="cls-7" d="M60.11,22.25a0.75,0.75,0,0,0,0-1.5,0.75,0.75,0,0,0,0,1.5h0Z"/><path class="cls-7" d="M74.63,54.3a0.75,0.75,0,0,0,0-1.5,0.75,0.75,0,0,0,0,1.5h0Z"/><path class="cls-7" d="M57,73a0.75,0.75,0,0,0,0-1.5A0.75,0.75,0,0,0,57,73h0Z"/><rect class="cls-8" x="36.7" y="29.48" width="3.17" height="0.92"/><rect class="cls-8" x="66.62" y="46.35" width="3.17" height="0.92"/><rect class="cls-8" x="20.59" y="41.58" width="3.17" height="0.92" transform="translate(64.21 19.86) rotate(90)"/><rect class="cls-8" x="60.06" y="29.48" width="3.17" height="0.92" transform="matrix(0.33, 0.94, -0.94, 0.33, 69.35, -38.16)"/><rect class="cls-8" x="60.06" y="62.32" width="3.17" height="0.92" transform="translate(62.45 -25.2) rotate(45)"/><path class="cls-9" d="M48.77,40.6a9.56,9.56,0,0,0-1.64-7.88"/><path class="cls-10" d="M56,47.92A9.08,9.08,0,0,1,61,49.79"/></svg>