<svg id="Layer_1" data-name="Layer 1" xmlns="http://www.w3.org/2000/svg" viewBox="0 0 95 65.51"><defs><style>.cls-1{fill:#7f372a;}.cls-2,.cls-3{fill:#e2614b;}.cls-3{font-size:7.5px;font-family:Big John;}</style></defs><title>christmas_icons</title><path class="cls-1" d="M28,27.6l2.25-15.5s21.75,8.5,44.5,0l-3.25,8.84,6.75,6.66S62.46,35.1,28,27.6Z"/><path class="cls-2" d="M28.39,27.72c0.65-4.47,1.93-9.25,2-13.76,0-1.93-.42-1.6,1.08-0.94a38.29,38.29,0,0,0,8,2,69.52,69.52,0,0,0,25.39.25c1.51-.28,3-0.6,4.51-1,1.13-.3,3.49-1.67,4.28-1.64,1.22,0,.32-1.09.33,0.26a5.28,5.28,0,0,1-.5,1.37L71,20.82a0.44,0.44,0,0,0,.12.44l3.71,3.66c0.78,0.77,1.55,1.55,2.34,2.3s0.3,0.53.73,0c-0.93,1.13-4.75,1.5-6,1.78-14.35,3.07-29.63,1.14-43.8-1.85-0.56-.12-0.81.75-0.24,0.87,12.63,2.67,25.75,4.33,38.64,2.77,4-.48,8.28-1.11,12-2.82a0.45,0.45,0,0,0,.09-0.71c-1.44-1.42-6.32-5-6.63-6.45s2.57-6.79,3.24-8.61a0.45,0.45,0,0,0-.55-0.55c-13.86,4.91-30.36,5.33-44.26,0a0.45,0.45,0,0,0-.55.31l-2.25,15.5C27.44,28,28.31,28.29,28.39,27.72Z"/><text class="cls-3" transform="matrix(0.96, 0.13, -0.14, 0.99, 31.91, 24.24)">R</text><text class="cls-3" transform="matrix(0.97, 0.12, -0.12, 0.99, 37.52, 25.02)">a</text><text class="cls-3" transform="translate(43.6 25.74) rotate(5.49) scale(0.97 1)">l</text><text class="cls-3" transform="translate(48 26.17) rotate(3.53) scale(0.97 1)">e</text><text class="cls-3" transform="matrix(0.97, 0.01, -0.01, 1, 52.59, 26.43)">i</text><text class="cls-3" transform="translate(55.37 26.62) rotate(-2.22) scale(0.97 1)">g</text><text class="cls-3" transform="translate(62.1 26.33) rotate(-12.51) scale(0.97 1)">h</text><path class="cls-2" d="M30,10.17L20.06,61c-0.18.94,1.26,1.35,1.45,0.4l10-50.81c0.18-.94-1.26-1.35-1.45-0.4h0Z"/></svg>