<svg id="Layer_1" data-name="Layer 1" xmlns="http://www.w3.org/2000/svg" viewBox="0 0 95 95"><defs><style>.cls-1{fill:#7f372a;}.cls-2,.cls-3{fill:#e2614b;}.cls-3{font-size:7.5px;font-family:Big John;}</style></defs><title>christmas_icons</title><path class="cls-1" d="M20,47.19l3.36-13.27S32.57,36.5,37.7,35.6a45.73,45.73,0,0,0,12.17-5.2,39.09,39.09,0,0,1,33.43.91l-4.65,4.6,2.14,6.84S65.58,37.63,58,40.63c0,0-1.07.4-12.87,6.25C45.15,46.88,38.1,50.57,20,47.19Z"/><path class="cls-2" d="M20.41,47.31l1.8-7.11c0.36-1.42.78-2.83,1.08-4.26,0.15-.74.85-1.87,0-1.55,0.68-.27,3.32.79,4,0.93a47.68,47.68,0,0,0,5.63.83,19,19,0,0,0,8.36-1.2C47.9,32.65,53,29,60,28a40.39,40.39,0,0,1,17.92,1.58c1.23,0.38,4.76,1.47,4.76,1.75a6.08,6.08,0,0,1-1.33,1.31l-3,3a0.45,0.45,0,0,0-.12.44,66.73,66.73,0,0,0,2.35,6.47c0.31-.36-5.64-1.83-6.55-2-5.22-1.13-11.26-2.16-16.39-.15-4.58,1.79-8.7,4.7-13.3,6.43-7.45,2.79-16.71,1.35-24.24,0-0.57-.1-0.81.77-0.24,0.87,6.93,1.23,14.22,2.14,21.21.88,4.29-.77,7.9-3,11.79-4.92s6.62-3.36,11-3.44a51.88,51.88,0,0,1,16.79,3,0.45,0.45,0,0,0,.55-0.55c-0.46-1.48-2.49-5.26-2.09-6.68,0.24-.86,3.44-3.28,4.49-4.32a0.45,0.45,0,0,0-.09-0.71c-10.08-4.76-22.58-6.11-33-1.32C46.45,31.49,42.61,34,38.11,35c-4.68,1-10.1-.29-14.65-1.54a0.46,0.46,0,0,0-.55.31L19.55,47.07A0.45,0.45,0,0,0,20.41,47.31Z"/><text class="cls-3" transform="translate(23.38 44.01) rotate(12.5) scale(0.97 1)">G</text><text class="cls-3" transform="matrix(0.97, 0.01, -0.01, 1, 30.05, 45.39)">r</text><text class="cls-3" transform="translate(36.21 45.4) rotate(-10.59) scale(0.97 1)">e</text><text class="cls-3" transform="translate(41.01 44.45) rotate(-18.9) scale(0.97 1)">e</text><text class="cls-3" transform="matrix(0.86, -0.46, 0.48, 0.88, 45.7, 42.87)">n</text><text class="cls-3" transform="translate(50.74 39.79) rotate(-29.65) scale(0.97 1)">s</text><text class="cls-3" transform="matrix(0.93, -0.28, 0.28, 0.96, 54.24, 37.73)">b</text><text class="cls-3" transform="translate(58.8 36.25) rotate(-2.57) scale(0.97 1)">o</text><text class="cls-3" transform="matrix(0.95, 0.19, -0.19, 0.98, 64.9, 36.02)">r</text><text class="cls-3" transform="translate(70.68 37.37) rotate(1.98) scale(0.97 1)">o</text><path class="cls-2" d="M21.67,31.88L14,73.09c-0.35,1.89,2.54,2.7,2.89.8l7.65-41.21c0.35-1.89-2.54-2.7-2.89-.8h0Z"/></svg>