<svg id="Layer_1" data-name="Layer 1" xmlns="http://www.w3.org/2000/svg" viewBox="0 0 95 65.51"><defs><style>.cls-1{fill:#49756a;}.cls-2,.cls-3{fill:#5db59c;}.cls-3{font-size:7.5px;font-family:Big John;}</style></defs><title>christmas_icons</title><path class="cls-1" d="M24.66,33.26L26,20.73s13.13,0.8,21.32-7.32c0,0,8.05-8.68,25-12.84L69.75,5.79,77.3,8.92s-8.07,1.46-12.84,6.16A74.19,74.19,0,0,1,46.13,27.23,121.84,121.84,0,0,1,24.66,33.26Z"/><path class="cls-2" d="M25.11,33.26l0.75-6.76c0.16-1.44.4-2.89,0.48-4.34,0.07-1.18.29-1.17,0-1,1.24-.77,4.81-0.21,6.39-0.46a30.18,30.18,0,0,0,10.47-3.57c4.15-2.43,7.34-6.22,11.46-8.79a59.73,59.73,0,0,1,13.66-6.2c0.29-.09,3.87-1,3.57-1.65a5.32,5.32,0,0,1-.78,1.59c-0.47,1.18-1.14,2.32-1.7,3.46a0.46,0.46,0,0,0,.27.66l5.05,2.1c0.58,0.24,2.37,1.35,2.37.58s-1.18-.07-1.77,0c-4.59.79-8.63,3.65-12,6.63C52,25.34,39,30.15,24.54,32.83c-0.57.11-.33,1,0.24,0.87,11.17-2.07,22-5.25,31.44-11.63,7.06-4.75,12.44-11,21.2-12.71,0.49-.09.36-0.72,0-0.87C75.57,7.72,72,7.05,70.62,5.67c-0.53-.54-0.45-0.16-0.39.17A4.2,4.2,0,0,1,71,4.26,36.16,36.16,0,0,0,72.71.8,0.46,0.46,0,0,0,72.21.14c-8.87,2.3-17.57,6.05-24.44,12.25A29.83,29.83,0,0,1,26,20.28a0.46,0.46,0,0,0-.45.45L24.21,33.26C24.14,33.84,25,33.83,25.11,33.26Z"/><text class="cls-3" transform="translate(28.42 29.29) rotate(-10.06) scale(0.97 1)">a</text><text class="cls-3" transform="translate(34.59 28.13) rotate(-16.19) scale(0.97 1)">s</text><text class="cls-3" transform="matrix(0.9, -0.36, 0.37, 0.93, 39.02, 26.87)">h</text><text class="cls-3" transform="matrix(0.87, -0.43, 0.45, 0.89, 44.54, 24.57)">e</text><text class="cls-3" transform="translate(48.7 22.52) rotate(-30.49) scale(0.97 1)">v</text><text class="cls-3" transform="matrix(0.8, -0.56, 0.57, 0.82, 53.96, 19.35)">i</text><text class="cls-3" transform="matrix(0.73, -0.64, 0.66, 0.75, 56.34, 17.75)">l</text><text class="cls-3" transform="matrix(0.81, -0.54, 0.55, 0.83, 59.48, 14.72)">l</text><text class="cls-3" transform="matrix(0.9, -0.37, 0.39, 0.92, 62.98, 12.38)">e</text><path class="cls-2" d="M25.34,18.35L21.9,60.12c-0.08,1,1.42,1,1.5,0l3.44-41.77c0.08-1-1.42-1-1.5,0h0Z"/></svg>