<svg id="Layer_1" data-name="Layer 1" xmlns="http://www.w3.org/2000/svg" viewBox="0 0 95 65.51"><defs><style>.cls-1{fill:#7f372a;}.cls-2,.cls-3{fill:#e2614b;}.cls-3{font-size:7.5px;font-family:Big John;}</style></defs><title>christmas_icons</title><path class="cls-1" d="M20,30.6l3.36-13.27S32.57,19.92,37.7,19a45.73,45.73,0,0,0,12.17-5.2,39.09,39.09,0,0,1,33.43.91l-4.65,4.6,2.14,6.84S65.58,21,58,24c0,0-1.07.4-12.87,6.25C45.15,30.3,38.1,34,20,30.6Z"/><path class="cls-2" d="M20.41,30.72l1.8-7.11c0.36-1.42.78-2.83,1.08-4.26,0.15-.74.85-1.87,0-1.55,0.68-.27,3.32.79,4,0.93a47.68,47.68,0,0,0,5.63.83,19,19,0,0,0,8.36-1.2c6.56-2.3,11.63-6,18.67-7A40.39,40.39,0,0,1,77.93,13c1.23,0.38,4.76,1.47,4.76,1.75A6.08,6.08,0,0,1,81.35,16l-3,3a0.45,0.45,0,0,0-.12.44,66.73,66.73,0,0,0,2.35,6.47c0.31-.36-5.64-1.83-6.55-2-5.22-1.13-11.26-2.16-16.39-.15-4.58,1.79-8.7,4.7-13.3,6.43-7.45,2.79-16.71,1.35-24.24,0-0.57-.1-0.81.77-0.24,0.87,6.93,1.23,14.22,2.14,21.21.88,4.29-.77,7.9-3,11.79-4.92s6.62-3.36,11-3.44a51.88,51.88,0,0,1,16.79,3A0.45,0.45,0,0,0,81.23,26c-0.46-1.48-2.49-5.26-2.09-6.68,0.24-.86,3.44-3.28,4.49-4.32a0.45,0.45,0,0,0-.09-0.71C73.46,9.57,61,8.22,50.56,13c-4.11,1.89-7.95,4.42-12.44,5.43-4.68,1-10.1-.29-14.65-1.54a0.46,0.46,0,0,0-.55.31L19.55,30.48A0.45,0.45,0,0,0,20.41,30.72Z"/><text class="cls-3" transform="matrix(0.95, 0.21, -0.22, 0.98, 23.4, 27.43)">G</text><text class="cls-3" transform="matrix(0.97, 0.01, -0.01, 1, 30.07, 28.81)">r</text><text class="cls-3" transform="matrix(0.96, -0.18, 0.18, 0.98, 36.23, 28.82)">e</text><text class="cls-3" transform="translate(41.03 27.86) rotate(-18.9) scale(0.97 1)">e</text><text class="cls-3" transform="translate(45.72 26.29) rotate(-28.49) scale(0.97 1)">n</text><text class="cls-3" transform="translate(50.76 23.2) rotate(-29.65) scale(0.97 1)">s</text><text class="cls-3" transform="translate(54.26 21.15) rotate(-16.55) scale(0.97 1)">b</text><text class="cls-3" transform="matrix(0.97, -0.04, 0.04, 1, 58.82, 19.67)">o</text><text class="cls-3" transform="matrix(0.95, 0.19, -0.19, 0.98, 64.92, 19.44)">r</text><text class="cls-3" transform="translate(70.7 20.78) rotate(1.98) scale(0.97 1)">o</text><path class="cls-2" d="M22.4,15.5L14.75,56.71c-0.18.94,1.27,1.35,1.45,0.4L23.84,15.9C24,15,22.57,14.55,22.4,15.5h0Z"/></svg>